<svg width="29" height="29" viewBox="0 0 29 29" fill="none" xmlns="http://www.w3.org/2000/svg">
<path d="M24.5752 14.3749C28.2663 9.19236 30.1486 3.83614 27.5311 1.21867C24.9136 -1.3988 19.5574 0.483441 14.3749 4.17455C9.19236 0.483441 3.83614 -1.3988 1.21867 1.21867C-1.3988 3.83614 0.483441 9.19236 4.17455 14.3749C0.483441 19.5574 -1.3988 24.9136 1.21867 27.5311C2.06171 28.3742 3.18776 28.75 4.49949 28.75C7.2667 28.75 10.8605 27.0774 14.3824 24.5752C17.8893 27.0774 21.4831 28.75 24.2578 28.75C25.5695 28.75 26.6971 28.3727 27.5386 27.5311C30.1486 24.9136 28.2663 19.5574 24.5752 14.3749ZM25.8375 2.91224C26.9816 4.05626 26.2089 7.76384 23.0643 12.3878C22.0695 11.1563 21.0104 9.97824 19.8913 8.85844C18.7714 7.74092 17.5933 6.68328 16.3619 5.68993C20.9859 2.54537 24.6935 1.76672 25.8375 2.91224ZM21.6059 14.3749C20.5463 15.7153 19.4082 16.9918 18.1978 18.1978C16.9918 19.4082 15.7153 20.5463 14.3749 21.6059C13.0345 20.5463 11.7579 19.4082 10.552 18.1978C9.34154 16.9918 8.20351 15.7153 7.14391 14.3749C9.26979 11.696 11.696 9.26979 14.3749 7.14391C15.7153 8.20351 16.9918 9.34154 18.1978 10.552C19.4082 11.7579 20.5463 13.0345 21.6059 14.3749ZM2.91224 2.91224C3.24167 2.58131 3.78522 2.4106 4.50248 2.4106C6.27242 2.4106 9.09803 3.44382 12.3863 5.68993C11.1561 6.68409 9.97856 7.7417 8.85844 8.85844C7.74092 9.97835 6.68328 11.1565 5.68993 12.3878C2.54537 7.76384 1.76822 4.05626 2.91224 2.91224ZM2.91224 25.8375C1.76822 24.6935 2.54537 20.9859 5.68993 16.3619C6.68474 17.5934 7.74388 18.7715 8.86293 19.8913C9.98211 21.008 11.1587 22.0656 12.3878 23.0599C7.76384 26.2044 4.05626 26.9831 2.91224 25.8375ZM25.8375 25.8375C24.6935 26.9831 20.9859 26.2089 16.3619 23.0643C17.5928 22.0687 18.7708 21.0096 19.8913 19.8913C21.0089 18.7714 22.0665 17.5933 23.0599 16.3619C26.2044 20.9859 26.9816 24.6935 25.8375 25.8375ZM16.1718 14.3749C16.1718 14.7303 16.0664 15.0777 15.8689 15.3732C15.6715 15.6687 15.3909 15.899 15.0625 16.035C14.7342 16.171 14.3729 16.2066 14.0243 16.1373C13.6758 16.0679 13.3556 15.8968 13.1043 15.6455C12.853 15.3942 12.6819 15.074 12.6125 14.7254C12.5432 14.3769 12.5788 14.0156 12.7148 13.6873C12.8508 13.3589 13.0811 13.0783 13.3766 12.8808C13.6721 12.6834 14.0195 12.578 14.3749 12.578C14.8515 12.578 15.3085 12.7673 15.6455 13.1043C15.9825 13.4413 16.1718 13.8983 16.1718 14.3749Z" fill="white"/>
</svg>
