<svg width="32" height="32" viewBox="0 0 32 32" fill="none" xmlns="http://www.w3.org/2000/svg">
<path d="M0 8C0 3.58172 3.58172 0 8 0H24C28.4183 0 32 3.58172 32 8V24C32 28.4183 28.4183 32 24 32H8C3.58172 32 0 28.4183 0 24V8Z" fill="#FFEFDB"/>
<path d="M15.6014 14.8047C14.8892 14.8047 14.1929 15.0159 13.6007 15.4116C13.0085 15.8073 12.5469 16.3697 12.2743 17.0277C12.0018 17.6858 11.9304 18.4099 12.0694 19.1084C12.2084 19.807 12.5513 20.4487 13.055 20.9523C13.5586 21.456 14.2003 21.7989 14.8989 21.9379C15.5974 22.0768 16.3215 22.0055 16.9795 21.733C17.6376 21.4604 18.2 20.9988 18.5957 20.4066C18.9914 19.8144 19.2026 19.1181 19.2026 18.4059C19.2016 17.4511 18.8219 16.5357 18.1468 15.8605C17.4716 15.1854 16.5562 14.8056 15.6014 14.8047ZM15.6014 20.8067C15.1266 20.8067 14.6624 20.6659 14.2676 20.4021C13.8728 20.1383 13.5651 19.7633 13.3834 19.3246C13.2016 18.8859 13.1541 18.4032 13.2467 17.9375C13.3394 17.4718 13.568 17.044 13.9038 16.7082C14.2395 16.3725 14.6673 16.1438 15.133 16.0512C15.5988 15.9586 16.0815 16.0061 16.5202 16.1878C16.9589 16.3695 17.3338 16.6772 17.5976 17.072C17.8614 17.4669 18.0022 17.931 18.0022 18.4059C18.0022 19.0426 17.7493 19.6533 17.299 20.1035C16.8488 20.5537 16.2382 20.8067 15.6014 20.8067ZM21.8285 16.2046L19.5928 9.88824C19.3187 9.05531 18.7909 8.329 18.0833 7.8111C17.3757 7.2932 16.5238 7.00967 15.647 7.00024C14.7702 6.99081 13.9124 7.25596 13.1939 7.75852C12.4753 8.26108 11.932 8.97587 11.6401 9.80271L9.42608 16.0673C9.05075 17.0608 8.92061 18.1301 9.0467 19.1846C9.17279 20.2391 9.5514 21.2476 10.1504 22.1245C10.7494 23.0015 11.5511 23.721 12.4874 24.222C13.4238 24.723 14.4672 24.9908 15.5291 25.0025C16.5911 25.0143 17.6402 24.7697 18.5874 24.2895C19.5346 23.8094 20.3521 23.1078 20.9703 22.2443C21.5886 21.3808 21.9894 20.3809 22.1388 19.3295C22.2882 18.2781 22.1818 17.2061 21.8285 16.2046ZM15.6014 23.8077C14.7268 23.8071 13.8654 23.5943 13.0911 23.1875C12.3168 22.7807 11.6528 22.1922 11.156 21.4723C10.6593 20.7524 10.3446 19.9228 10.239 19.0545C10.1335 18.1863 10.2402 17.3054 10.55 16.4875C10.5514 16.4828 10.5531 16.4783 10.5552 16.474L12.7715 10.2026C12.9801 9.61146 13.3685 9.10049 13.8823 8.7414C14.3961 8.3823 15.0095 8.19312 15.6363 8.2004C16.2631 8.20769 16.8719 8.41107 17.3773 8.782C17.8826 9.15294 18.2591 9.6728 18.4539 10.2686L18.4584 10.2821L20.6956 16.6053C20.9828 17.4201 21.0705 18.292 20.9514 19.1477C20.8322 20.0035 20.5096 20.8182 20.0107 21.5236C19.5118 22.229 18.851 22.8045 18.0839 23.2019C17.3167 23.5993 16.4654 23.8071 15.6014 23.8077Z" fill="#F07F17"/>
</svg>
