<svg width="32" height="32" viewBox="0 0 32 32" fill="none" xmlns="http://www.w3.org/2000/svg">
<path d="M0 8C0 3.58172 3.58172 0 8 0H24C28.4183 0 32 3.58172 32 8V24C32 28.4183 28.4183 32 24 32H8C3.58172 32 0 28.4183 0 24V8Z" fill="#FFEFDB"/>
<path d="M19.3625 14.6589C19.3 14.5304 19.2317 14.4054 19.1576 14.2839C19.5822 13.3479 19.632 12.2848 19.2966 11.3133C18.9613 10.3417 18.2664 9.53558 17.3549 9.06072C17.2289 8.99501 17.082 8.98205 16.9464 9.02468C16.8108 9.06732 16.6977 9.16206 16.632 9.28807C16.5663 9.41408 16.5534 9.56103 16.596 9.69659C16.6386 9.83216 16.7334 9.94524 16.8594 10.0109C17.445 10.3157 17.9114 10.8083 18.1836 11.4097C18.4559 12.0111 18.5182 12.6866 18.3607 13.3277C17.5755 12.6205 16.5561 12.2291 15.4993 12.2291C14.4425 12.2291 13.4232 12.6205 12.6379 13.3277C12.4805 12.6864 12.5431 12.0109 12.8156 11.4094C13.0881 10.808 13.5547 10.3155 14.1406 10.0109C14.203 9.97841 14.2584 9.9339 14.3036 9.87997C14.3488 9.82603 14.3829 9.76372 14.404 9.69659C14.4251 9.62947 14.4328 9.55884 14.4266 9.48875C14.4204 9.41865 14.4005 9.35046 14.368 9.28807C14.3354 9.22568 14.2909 9.1703 14.237 9.12511C14.183 9.07992 14.1207 9.04579 14.0536 9.02468C13.9865 9.00357 13.9159 8.99589 13.8458 9.00207C13.7757 9.00826 13.7075 9.02819 13.6451 9.06072C12.7334 9.53546 12.0384 10.3415 11.703 11.3131C11.3675 12.2847 11.4172 13.3479 11.8417 14.2839C11.7674 14.405 11.6992 14.5297 11.6375 14.6576C10.6425 14.7533 9.71882 15.216 9.04637 15.9555C8.37392 16.6951 8.0009 17.6585 8 18.658C8 18.8001 8.05644 18.9364 8.15691 19.0369C8.25737 19.1373 8.39363 19.1938 8.53571 19.1938C8.67779 19.1938 8.81406 19.1373 8.91452 19.0369C9.01499 18.9364 9.07143 18.8001 9.07143 18.658C9.07237 18.0063 9.28892 17.3732 9.68731 16.8575C10.0857 16.3417 10.6435 15.9723 11.2739 15.8067C11.1017 16.8289 11.3062 17.8788 11.8494 18.7616C12.3926 19.6445 13.2376 20.3003 14.2277 20.6074C13.763 21.1342 13.1254 21.4777 12.4299 21.576C11.7343 21.6742 11.0265 21.5207 10.4342 21.1431C10.3749 21.1025 10.3082 21.0743 10.2379 21.06C10.1675 21.0457 10.095 21.0457 10.0247 21.06C9.95435 21.0743 9.8876 21.1025 9.8284 21.1431C9.7692 21.1837 9.71876 21.2358 9.68007 21.2962C9.64139 21.3567 9.61524 21.4243 9.60319 21.495C9.59114 21.5658 9.59343 21.6383 9.60993 21.7081C9.62642 21.778 9.65679 21.8438 9.69922 21.9017C9.74165 21.9596 9.79528 22.0083 9.85692 22.0451C10.3032 22.3297 10.8013 22.5233 11.3227 22.6148C11.844 22.7063 12.3783 22.6939 12.8949 22.5783C13.4114 22.4627 13.9 22.2461 14.3326 21.9411C14.7652 21.6361 15.1332 21.2486 15.4156 20.8009H15.5H15.5844C15.8667 21.249 16.2349 21.6369 16.6676 21.9422C17.1004 22.2476 17.5893 22.4643 18.1062 22.58C18.623 22.6957 19.1576 22.708 19.6793 22.6164C20.2009 22.5247 20.6993 22.3308 21.1458 22.0458C21.2074 22.009 21.261 21.9602 21.3035 21.9023C21.3459 21.8445 21.3763 21.7786 21.3927 21.7088C21.4092 21.6389 21.4115 21.5665 21.3995 21.4957C21.3874 21.425 21.3613 21.3574 21.3226 21.2969C21.2839 21.2364 21.2335 21.1844 21.1743 21.1438C21.1151 21.1032 21.0483 21.0749 20.978 21.0607C20.9077 21.0464 20.8352 21.0464 20.7648 21.0606C20.6945 21.0749 20.6277 21.1032 20.5685 21.1438C19.9762 21.5213 19.2684 21.6749 18.5728 21.5766C17.8772 21.4784 17.2396 21.1349 16.775 20.608C17.7645 20.3004 18.609 19.6444 19.1516 18.7616C19.6943 17.8788 19.8984 16.8292 19.7261 15.8074C20.3563 15.9729 20.9141 16.3423 21.3125 16.8579C21.7109 17.3735 21.9275 18.0064 21.9286 18.658C21.9286 18.8001 21.985 18.9364 22.0855 19.0369C22.1859 19.1373 22.3222 19.1938 22.4643 19.1938C22.6064 19.1938 22.7426 19.1373 22.8431 19.0369C22.9436 18.9364 23 18.8001 23 18.658C22.9988 17.6587 22.6256 16.6956 21.9532 15.9564C21.2808 15.2171 20.3572 14.7546 19.3625 14.6589ZM15.5 13.3009C15.9488 13.3008 16.3926 13.3948 16.8028 13.577C17.213 13.7591 17.5804 14.0253 17.8812 14.3583C17.6078 14.7336 17.2496 15.039 16.8357 15.2496C16.4218 15.4602 15.964 15.5699 15.4997 15.5699C15.0353 15.5699 14.5775 15.4602 14.1636 15.2496C13.7497 15.039 13.3915 14.7336 13.1181 14.3583C13.419 14.0251 13.7865 13.7589 14.1968 13.5767C14.6071 13.3946 15.0511 13.3006 15.5 13.3009ZM15.508 16.6438L15.5 16.6572L15.492 16.6438H15.508ZM12.2857 16.5152C12.2855 16.2522 12.3179 15.9901 12.3821 15.7351C12.8201 15.7896 13.2402 15.9418 13.6114 16.1805C13.9826 16.4191 14.2955 16.7381 14.5269 17.1139C14.7583 17.4897 14.9024 17.9127 14.9484 18.3516C14.9944 18.7905 14.9413 19.2342 14.7929 19.6498C14.0817 19.4885 13.4464 19.0906 12.9909 18.5211C12.5354 17.9516 12.2868 17.2444 12.2857 16.5152ZM16.2078 19.6498C16.0594 19.2342 16.0062 18.7905 16.0523 18.3516C16.0983 17.9127 16.2423 17.4897 16.4737 17.1139C16.7052 16.7381 17.018 16.4191 17.3893 16.1805C17.7605 15.9418 18.1806 15.7896 18.6185 15.7351C18.7224 16.1506 18.7421 16.5827 18.6766 17.0059C18.6111 17.4292 18.4617 17.8351 18.2371 18.1998C18.0125 18.5645 17.7173 18.8806 17.3688 19.1296C17.0203 19.3786 16.6256 19.5555 16.2078 19.6498Z" fill="#F07F17"/>
</svg>
