<svg width="58" height="58" viewBox="0 0 58 58" fill="none" xmlns="http://www.w3.org/2000/svg">
<rect width="58" height="58" rx="29" fill="#FF7700"/>
<path d="M21.8993 33.1644C21.421 32.0891 21.1543 30.8929 21.1543 29.6323C21.1543 24.9506 24.8331 21.1553 29.3711 21.1553C33.9091 21.1553 37.5879 24.9506 37.5879 29.6323C37.5879 30.8929 37.3211 32.0891 36.8428 33.1644" stroke="white" stroke-width="1.2" stroke-linecap="round"/>
<path d="M29.3721 16.7305V17.9946" stroke="white" stroke-width="1.2" stroke-linecap="round" stroke-linejoin="round"/>
<path d="M42.0131 29.3721H40.749" stroke="white" stroke-width="1.2" stroke-linecap="round" stroke-linejoin="round"/>
<path d="M17.9946 29.3721H16.7305" stroke="white" stroke-width="1.2" stroke-linecap="round" stroke-linejoin="round"/>
<path d="M38.3099 20.4326L37.416 21.3265" stroke="white" stroke-width="1.2" stroke-linecap="round" stroke-linejoin="round"/>
<path d="M21.3284 21.3284L20.4346 20.4346" stroke="white" stroke-width="1.2" stroke-linecap="round" stroke-linejoin="round"/>
<path d="M32.555 38.6078C33.8323 38.1947 34.3445 37.0256 34.4886 35.8497C34.5316 35.4984 34.2426 35.207 33.8887 35.207L24.9195 35.2073C24.5534 35.2073 24.2594 35.518 24.3031 35.8814C24.4443 37.055 24.8005 37.9124 26.1541 38.6078M32.555 38.6078C32.555 38.6078 26.3769 38.6078 26.1541 38.6078M32.555 38.6078C32.4014 41.0665 31.6914 42.0402 29.3818 42.0129C26.9115 42.0586 26.3432 40.855 26.1541 38.6078" stroke="white" stroke-width="1.2" stroke-linecap="round" stroke-linejoin="round"/>
</svg>
