<svg width="32" height="32" viewBox="0 0 32 32" fill="none" xmlns="http://www.w3.org/2000/svg">
<rect width="32" height="32" rx="8" fill="#FFEFDB"/>
<path d="M22.8571 12.2188V12.2857C22.8571 12.9961 22.5749 13.6774 22.0726 14.1797C21.5703 14.6821 20.889 14.9643 20.1786 14.9643H17.5V20.3214H18.0357C18.2528 20.3215 18.4648 20.2557 18.6436 20.1327C18.8224 20.0096 18.9597 19.8351 19.0371 19.6324C19.1146 19.4296 19.1287 19.2081 19.0774 18.9971C19.0262 18.7862 18.9121 18.5958 18.7502 18.4511C18.6497 18.3551 18.5905 18.2237 18.585 18.0848C18.5795 17.9459 18.6283 17.8103 18.721 17.7067C18.8137 17.603 18.943 17.5395 19.0816 17.5295C19.2203 17.5194 19.3574 17.5637 19.4641 17.6529C19.7875 17.9422 20.0155 18.3229 20.1178 18.7446C20.2201 19.1663 20.192 19.6091 20.0372 20.0145C19.8824 20.4199 19.6081 20.7687 19.2507 21.0149C18.8934 21.261 18.4697 21.3928 18.0357 21.3929H17.5V22.4643C17.5 22.6064 17.4436 22.7426 17.3431 22.8431C17.2426 22.9436 17.1064 23 16.9643 23C16.8222 23 16.6859 22.9436 16.5855 22.8431C16.485 22.7426 16.4286 22.6064 16.4286 22.4643V21.3929H14.8214C14.6793 21.3929 14.5431 21.3364 14.4426 21.236C14.3422 21.1355 14.2857 20.9992 14.2857 20.8571C14.2857 20.7151 14.3422 20.5788 14.4426 20.4783C14.5431 20.3779 14.6793 20.3214 14.8214 20.3214H16.4286V14.9643H14.8214C14.5373 14.9643 14.2647 15.0772 14.0638 15.2781C13.8629 15.479 13.75 15.7516 13.75 16.0357C13.75 16.3199 13.8629 16.5924 14.0638 16.7933C14.2647 16.9943 14.5373 17.1071 14.8214 17.1071C14.9635 17.1071 15.0998 17.1636 15.2002 17.264C15.3007 17.3645 15.3571 17.5008 15.3571 17.6429C15.3571 17.7849 15.3007 17.9212 15.2002 18.0217C15.0998 18.1221 14.9635 18.1786 14.8214 18.1786C14.2531 18.1786 13.7081 17.9528 13.3062 17.5509C12.9043 17.1491 12.6786 16.604 12.6786 16.0357C12.6786 15.4674 12.9043 14.9223 13.3062 14.5205C13.7081 14.1186 14.2531 13.8929 14.8214 13.8929H16.4286V8.53571C16.4286 8.39363 16.485 8.25737 16.5855 8.15691C16.6859 8.05644 16.8222 8 16.9643 8C17.1064 8 17.2426 8.05644 17.3431 8.15691C17.4436 8.25737 17.5 8.39363 17.5 8.53571V13.8929H20.1786C20.6048 13.8929 21.0136 13.7235 21.315 13.4221C21.6164 13.1207 21.7857 12.712 21.7857 12.2857V12.2188C21.7857 11.8103 21.6234 11.4185 21.3346 11.1297C21.0458 10.8408 20.654 10.6786 20.2455 10.6786H19.1071C18.9651 10.6786 18.8288 10.6221 18.7283 10.5217C18.6279 10.4212 18.5714 10.2849 18.5714 10.1429C18.5714 10.0008 18.6279 9.86452 18.7283 9.76405C18.8288 9.66358 18.9651 9.60714 19.1071 9.60714H20.2455C20.9382 9.60714 21.6025 9.88229 22.0922 10.3721C22.582 10.8618 22.8571 11.5261 22.8571 12.2188ZM12.1429 13.3571H10.5357C10.3936 13.3571 10.2574 13.3007 10.1569 13.2002C10.0564 13.0998 10 12.9635 10 12.8214V12.2857C10 11.5753 10.2822 10.894 10.7845 10.3917C11.2869 9.88935 11.9682 9.60714 12.6786 9.60714H14.8214C14.9635 9.60714 15.0998 9.66358 15.2002 9.76405C15.3007 9.86452 15.3571 10.0008 15.3571 10.1429C15.3571 10.2849 15.3007 10.4212 15.2002 10.5217C15.0998 10.6221 14.9635 10.6786 14.8214 10.6786C14.8214 11.0303 14.7521 11.3786 14.6175 11.7036C14.4829 12.0286 14.2856 12.3239 14.0369 12.5726C13.7882 12.8213 13.4929 13.0186 13.1679 13.1532C12.8429 13.2879 12.4946 13.3571 12.1429 13.3571ZM13.75 10.6786H12.6786C12.2523 10.6786 11.8435 10.8479 11.5422 11.1493C11.2408 11.4507 11.0714 11.8595 11.0714 12.2857H12.1429C12.5691 12.2857 12.9779 12.1164 13.2793 11.815C13.5807 11.5136 13.75 11.1048 13.75 10.6786Z" fill="#F07F17"/>
</svg>
