<svg width="32" height="33" viewBox="0 0 32 33" fill="none" xmlns="http://www.w3.org/2000/svg">
<path d="M0 8.5C0 4.08172 3.58172 0.5 8 0.5H24C28.4183 0.5 32 4.08172 32 8.5V24.5C32 28.9183 28.4183 32.5 24 32.5H8C3.58172 32.5 0 28.9183 0 24.5V8.5Z" fill="#FFEFDB"/>
<path d="M23.3846 23.2692H21.8415C22.6238 22.3186 23.1322 21.1728 23.312 19.9549C23.4919 18.737 23.3363 17.4931 22.8622 16.357C22.3881 15.2208 21.6132 14.2354 20.621 13.5066C19.6288 12.7779 18.4567 12.3333 17.2308 12.2208V9.73077C17.2308 9.40435 17.1011 9.0913 16.8703 8.86048C16.6395 8.62967 16.3264 8.5 16 8.5H12.3077C11.9813 8.5 11.6682 8.62967 11.4374 8.86048C11.2066 9.0913 11.0769 9.40435 11.0769 9.73077V17.7308C11.0769 18.0572 11.2066 18.3702 11.4374 18.6011C11.6682 18.8319 11.9813 18.9615 12.3077 18.9615H16C16.3264 18.9615 16.6395 18.8319 16.8703 18.6011C17.1011 18.3702 17.2308 18.0572 17.2308 17.7308V13.4585C18.3165 13.5801 19.3419 14.0202 20.1781 14.7233C21.0143 15.4264 21.6239 16.361 21.9302 17.4097C22.2365 18.4584 22.2258 19.5743 21.8995 20.6169C21.5731 21.6595 20.9457 22.5823 20.0962 23.2692H8.61538C8.45217 23.2692 8.29565 23.3341 8.18024 23.4495C8.06483 23.5649 8 23.7214 8 23.8846C8 24.0478 8.06483 24.2044 8.18024 24.3198C8.29565 24.4352 8.45217 24.5 8.61538 24.5H23.3846C23.5478 24.5 23.7044 24.4352 23.8198 24.3198C23.9352 24.2044 24 24.0478 24 23.8846C24 23.7214 23.9352 23.5649 23.8198 23.4495C23.7044 23.3341 23.5478 23.2692 23.3846 23.2692ZM16 17.7308H12.3077V9.73077H16V17.7308ZM11.6923 21.4231C11.5291 21.4231 11.3726 21.3582 11.2572 21.2428C11.1418 21.1274 11.0769 20.9709 11.0769 20.8077C11.0769 20.6445 11.1418 20.488 11.2572 20.3726C11.3726 20.2571 11.5291 20.1923 11.6923 20.1923H16.6154C16.7786 20.1923 16.9351 20.2571 17.0505 20.3726C17.1659 20.488 17.2308 20.6445 17.2308 20.8077C17.2308 20.9709 17.1659 21.1274 17.0505 21.2428C16.9351 21.3582 16.7786 21.4231 16.6154 21.4231H11.6923Z" fill="#F07F17"/>
</svg>
