<svg width="458" height="499" viewBox="0 0 458 499" fill="none" xmlns="http://www.w3.org/2000/svg">
<path d="M428.629 339.159L397.097 344.207L417.261 369.169L448.962 364.187L428.629 339.159Z" fill="#EBEBEB"/>
<path d="M397.099 344.209L385.535 373.974L405.87 399.001L417.264 369.17L397.099 344.209Z" fill="#DBDBDB"/>
<path d="M448.962 364.188L417.262 369.169L405.868 399L437.568 394.018L448.962 364.188Z" fill="#DBDBDB"/>
<path d="M432.562 413.207V372.644" stroke="#DBDBDB" stroke-width="2.31376" stroke-miterlimit="10"/>
<path d="M432.562 416.905V422.042" stroke="#DBDBDB" stroke-width="2.31376" stroke-miterlimit="10"/>
<path d="M423.927 406.102V388.582" stroke="#DBDBDB" stroke-width="2.31376" stroke-miterlimit="10"/>
<path d="M109.879 362.905C109.879 362.905 150.951 221.776 149.364 204.011C147.777 186.246 144.858 192.474 125.802 259.962C106.745 327.451 98.5029 360.077 98.5029 360.077L109.879 362.905Z" fill="#EBEBEB"/>
<path d="M124.158 366.452C168.353 264.348 167.573 229.225 116.455 364.538L124.158 366.452Z" fill="#DBDBDB"/>
<path d="M94.3301 359.042C121.521 225.644 127.633 206.803 127.801 253.052C127.889 277.258 98.5469 360.09 98.5469 360.09L94.3301 359.042Z" fill="#DBDBDB"/>
<path d="M117.779 364.867C165.956 239.922 156.395 223.825 154.755 225.079C152.544 226.768 106.975 362.183 106.975 362.183L117.779 364.867Z" fill="#DBDBDB"/>
<path d="M90.2812 358.035C100.345 200.814 111.606 167.813 109.624 256.861C107.643 345.911 96.6961 359.628 96.6961 359.628L90.2812 358.035Z" fill="#EBEBEB"/>
<path d="M90.2803 358.035C71.2057 280.539 91.5887 292.686 98.5046 360.079L90.2803 358.035Z" fill="#EBEBEB"/>
<path d="M125.506 366.789C156.191 322.685 166.707 307.169 146.906 316.123C127.106 325.079 120.908 365.647 120.908 365.647L125.506 366.789Z" fill="#EBEBEB"/>
<path d="M67.8483 368.48C67.7985 368.679 67.7488 368.878 67.7118 369.08C65.2037 379.926 67.8159 390.788 74.0225 399.098L118.802 410.226C128.189 405.791 135.594 397.418 138.454 386.66C138.515 386.463 138.565 386.265 138.613 386.066C139.026 384.402 139.317 382.733 139.479 381.081C139.736 378.744 139.753 376.422 139.56 374.147C139.382 372.063 139.03 370.023 138.488 368.047C137.747 365.176 136.642 362.413 135.233 359.824L83.0959 346.868C80.6387 348.497 78.3805 350.423 76.3698 352.611C74.9781 354.106 73.7125 355.745 72.5903 357.506C71.3548 359.425 70.2823 361.485 69.4158 363.671C68.7865 365.205 68.2624 366.816 67.8483 368.48Z" fill="#EBEBEB"/>
<path d="M72.5918 357.504L139.561 374.146C139.383 372.061 139.031 370.022 138.49 368.046L76.3713 352.609C74.9796 354.104 73.714 355.743 72.5918 357.504Z" fill="#DBDBDB"/>
<path d="M67.8474 368.48C67.7977 368.679 67.748 368.878 67.7109 369.081L138.453 386.661C138.514 386.464 138.564 386.265 138.613 386.066C139.026 384.402 139.316 382.733 139.478 381.081L69.415 363.67C68.7857 365.205 68.2616 366.817 67.8474 368.48Z" fill="#DBDBDB"/>
<path d="M84.5 272.481V247.796" stroke="#EBEBEB" stroke-width="2.31376" stroke-miterlimit="10"/>
<path d="M84.499 276.179V288.169" stroke="#EBEBEB" stroke-width="2.31376" stroke-miterlimit="10"/>
<path d="M72.5908 332.543V301.004" stroke="#EBEBEB" stroke-width="2.31376" stroke-miterlimit="10"/>
<path d="M72.5908 336.24V341.378" stroke="#EBEBEB" stroke-width="2.31376" stroke-miterlimit="10"/>
<path d="M80.5664 441.463V409.924" stroke="#EBEBEB" stroke-width="2.31376" stroke-miterlimit="10"/>
<path d="M80.5664 445.159V450.296" stroke="#EBEBEB" stroke-width="2.31376" stroke-miterlimit="10"/>
<path d="M92.5596 412.003V422.415" stroke="#EBEBEB" stroke-width="2.31376" stroke-miterlimit="10"/>
<path d="M108.082 434.728V417.209" stroke="#EBEBEB" stroke-width="2.31376" stroke-miterlimit="10"/>
<path d="M146.049 301.523C152.585 305.605 159.533 309.007 166.706 311.828C175.477 315.279 184.585 317.933 193.829 319.774C202.511 321.502 211.331 322.494 220.158 323.168L210.843 221.222C209.588 221.18 208.377 221.159 207.21 221.157C206.701 221.15 206.192 221.143 205.7 221.146C201.63 221.172 198.041 221.443 194.849 222.014C184.287 223.902 177.909 229.091 172.115 240.05C164.151 255.079 165.694 268.597 149.317 278.744C139.756 284.672 151.802 294.587 146.049 301.523Z" fill="#263238"/>
<path d="M169.418 247.593C167.343 255.778 162.113 263.378 155.683 268.767C153.927 270.239 152.038 271.51 150.094 272.72C148.015 274.015 145.891 275.295 144.079 276.958C142.469 278.436 141.085 280.19 140.255 282.223C139.325 284.505 139.347 286.993 139.943 289.357C140.607 291.987 141.854 294.432 142.472 297.073C142.645 297.817 142.772 298.589 142.819 299.36C143.56 299.843 144.319 300.297 145.09 300.733C145.279 297.911 144.287 294.957 143.309 292.316C142.421 289.917 141.508 287.395 141.898 284.796C142.199 282.796 143.378 280.953 144.75 279.509C148.071 276.014 152.72 274.103 156.446 271.092C159.805 268.377 162.748 265.105 165.039 261.44C167.652 257.259 169.338 252.747 170.421 247.952C170.57 247.297 169.589 246.92 169.418 247.593Z" fill="#263238"/>
<path d="M210.962 316.018C228.513 313.472 243.899 314.025 259.852 305.699C260.383 295.653 248.702 294.835 253.474 286.301C260.279 274.137 242.6 278.091 242.32 254.75C242.09 236.243 233.522 217.286 210.499 220.254C208.957 220.455 207.362 220.748 205.703 221.147C200.817 222.317 195.349 224.384 189.283 227.516L190.05 230.647L210.962 316.018Z" fill="#263238"/>
<path d="M262.299 303.957C262.861 303.68 263.419 303.393 263.981 303.115C263.805 301.262 262.866 299.426 261.68 298.01C259.717 295.667 256.482 293.715 255.85 290.516C255.536 288.921 255.99 287.287 256.283 285.724C256.614 283.957 256.704 282.221 256.114 280.497C254.947 277.083 251.86 274.922 249.105 272.849C246.26 270.71 243.043 267.642 244.115 263.679C244.371 262.737 243 261.824 242.461 262.822C240.753 265.983 242.289 269.606 244.616 272.018C247.088 274.583 250.45 276.173 252.666 278.993C253.675 280.278 254.335 281.785 254.262 283.441C254.187 285.168 253.623 286.826 253.479 288.545C253.179 292.11 255.184 294.737 257.605 297.102C259.39 298.842 262.078 301.266 262.299 303.957Z" fill="#263238"/>
<path d="M242.691 274.598L235.779 276.3C230.34 277.64 224.846 274.316 223.508 268.879L221.088 259.05C219.748 253.611 223.072 248.117 228.509 246.779L235.421 245.077C240.86 243.737 246.354 247.061 247.692 252.499L250.113 262.327C251.452 267.766 248.129 273.26 242.691 274.598Z" fill="white"/>
<path d="M237.831 275.795L235.779 276.301C230.34 277.641 224.846 274.317 223.508 268.88L221.088 259.051C219.748 253.612 223.072 248.118 228.509 246.78L230.561 246.274C236 244.935 241.494 248.258 242.832 253.696L245.253 263.524C246.592 268.962 243.27 274.456 237.831 275.795Z" fill="#D9DADE" stroke="#263238" stroke-width="1.15688" stroke-miterlimit="10"/>
<path d="M239.25 412.355C302.248 433.737 316.822 439.02 329.754 451.908C335.354 457.489 336.401 469.836 335.07 475.985C332.806 486.445 314.631 495.895 309.27 495.895C303.909 495.895 223.146 495.895 223.146 495.895L239.25 412.355Z" fill="#263238"/>
<path d="M152.69 335.223C155.197 354.277 159.434 374.122 162.582 387.536C164.895 397.413 166.61 403.799 166.61 403.799L224.509 393.863C250.693 372.907 240.528 318.616 240.528 318.616C238.529 317.87 236.424 317.154 234.306 316.483C219.251 311.708 202.435 308.739 202.435 308.739C196.258 306.814 186.843 303.711 177.606 301.174C174.459 300.323 171.34 299.532 168.37 298.876C160.879 297.22 154.389 296.444 151.047 297.638C149.959 307.888 150.87 321.347 152.69 335.223Z" fill="#2EBBF8"/>
<path d="M180.982 302.201L183.826 336.69L228 341.816L229.862 315.135C214.806 310.361 202.438 308.738 202.438 308.738C196.26 306.814 190.218 304.737 180.982 302.201Z" fill="#CC8364"/>
<path d="M229.858 315.135L222.581 341.188L227.998 341.816L229.858 315.135Z" fill="#783D3C"/>
<path d="M166.606 403.803C147.636 426.022 162.995 437.324 162.995 437.324L235.908 454.841L250.697 421.901C250.697 421.901 233.514 406.802 224.514 393.866L166.606 403.803Z" fill="#263238"/>
<path d="M166.605 403.804C133.963 437.684 138.575 495.641 174.879 495.896C236.896 496.33 287.509 495.896 287.509 495.896C261.629 439.171 199.796 415.568 166.605 403.804Z" fill="#263238"/>
<path d="M185.97 426.93C187.283 425.919 188.993 425.27 190.487 424.563C191.979 423.857 193.486 423.186 195.008 422.549C198.091 421.258 201.265 420.159 204.462 419.188C210.85 417.249 217.418 415.874 224.047 415.092C227.77 414.653 231.515 414.438 235.261 414.342C236.034 414.322 236.181 415.52 235.398 415.545C222.303 415.972 209.253 419.032 197.184 424.091C195.457 424.815 193.737 425.559 192.041 426.354C191.233 426.732 190.429 427.121 189.631 427.519C188.761 427.953 187.906 428.484 186.983 428.787C185.849 429.159 184.988 427.687 185.97 426.93Z" fill="#38474F"/>
<path d="M306.648 385.774C314.678 381.891 319.294 358.916 319.294 358.916L287.378 356.166C287.378 356.166 295.021 380.931 306.648 385.774Z" fill="#263238"/>
<path d="M236.524 315.118C247.582 312.088 277.522 328.562 314.852 344.718L328.134 379.493C310.525 385.132 242.555 348.694 242.555 348.694L236.524 315.118Z" fill="#783D3C"/>
<path d="M233.839 360.724L234.526 360.965L236.623 361.687L306.655 385.779C287.666 375.953 296.335 333.296 296.335 333.296C284.608 327.946 272.42 325.255 265.149 322.227C247.67 314.935 245.204 313.74 229.857 315.137C229.695 315.131 233.839 360.724 233.839 360.724Z" fill="#2EBBF8"/>
<path d="M321.48 379.861C325.442 380.463 329.559 379.63 332.781 377.247C340.334 371.659 341.691 359.959 336.093 349.088C328.902 335.123 267.759 283.296 267.759 283.296L253.145 285.326L301.029 366.071C305.435 373.499 312.941 378.561 321.48 379.861Z" fill="#CC8364"/>
<path d="M260.042 289.195C250.855 288.508 247.638 274.382 247.842 268.384L241.682 262.624C241.013 261.997 240.836 261.004 241.249 260.184C241.721 259.247 242.821 258.813 243.805 259.175L253.788 262.842L266.997 283.563L260.042 289.195Z" fill="#CC8364"/>
<path d="M171.114 349.234L170.003 374.581L169.159 393.808L143.233 387.665L141.255 387.203C141.255 386.277 141.255 385.363 141.266 384.449V384.438C141.266 384.426 141.266 384.426 141.266 384.415C141.428 347.522 144.968 313.718 151.054 302.866L171.114 349.234Z" fill="#CC8364"/>
<path d="M169.159 393.809C169.159 393.809 168.951 395.914 168.569 399.663C167.054 414.193 162.75 453.469 156.792 491.091L142.621 482.333C142.621 482.333 132.463 420.487 141.256 387.203L143.234 387.666L169.159 393.809Z" fill="#CC8364"/>
<path d="M170.002 374.581L169.158 393.808C169.158 393.808 168.95 395.914 168.568 399.662C153.401 398.077 146.252 391.645 143.232 387.665C141.902 385.942 141.358 384.681 141.265 384.449V384.438C141.254 384.426 141.254 384.415 141.254 384.415H141.265L170.002 374.581Z" fill="#783D3C"/>
<path d="M149.334 477.713C149.334 477.713 127.063 484.029 116.504 484.459L103.859 490.227C102.178 490.994 101.703 493.16 102.909 494.559C103.587 495.346 104.648 495.688 105.658 495.446L116.923 492.74L145.271 492.957L149.334 477.713Z" fill="#CC8364"/>
<path d="M156.795 491.087C155.572 497.951 139.959 495.452 134.546 495.452C130.46 495.452 122.693 495.286 119.134 495.207C118.009 495.181 117.024 494.459 116.656 493.396C116.106 491.811 117.125 490.115 118.783 489.856L131.432 487.877L150.747 477.34L156.795 491.087Z" fill="#CC8364"/>
<path d="M142.615 479.761L116.505 482.805L108.564 490.403C107.57 491.354 107.467 492.905 108.325 493.98C109.19 495.062 110.741 495.298 111.887 494.521L118.781 489.857L142.615 490.427V479.761Z" fill="#CC8364"/>
<path d="M224.515 279.357L222.583 288.635L222.086 291.007L220.385 299.186L219.297 304.415L218.002 311.46C216.567 319.246 209.337 324.579 201.482 323.619C193.916 322.705 188.305 316.285 188.305 308.765C188.305 308.418 188.316 308.071 188.339 307.712L191.313 265.394L224.515 279.357Z" fill="#CC8364"/>
<path d="M222.582 288.636L222.085 291.007L220.384 299.187C206.629 298.793 194.378 290.244 193.672 277.946C200.509 277.287 220.199 286.935 222.582 288.636Z" fill="#783D3C"/>
<path d="M232.686 230.321C216.05 216.001 199.108 223.278 190.094 231.561C179.638 241.169 179.022 255.57 184.359 267.591C186.786 273.129 190.505 278.194 195.153 282.085C203.289 288.919 214.941 292.678 224.692 288.459C231.732 285.428 236.724 278.633 238.905 271.269C242.6 258.828 238.332 235.181 232.686 230.321Z" fill="#CC8364"/>
<path d="M232.763 239.786C232.416 242.578 223.957 243.426 223.266 240.313C222.438 236.575 233.158 236.612 232.763 239.786Z" fill="#263238"/>
<path d="M208.138 243.02C208.416 245.667 199.358 248.057 198.217 246.751C195.127 243.218 207.641 238.285 208.138 243.02Z" fill="#263238"/>
<path d="M230.842 252.83C231.179 254.419 230.424 255.975 229.154 256.307C227.885 256.638 226.582 255.618 226.245 254.03C225.907 252.442 226.663 250.884 227.932 250.554C229.202 250.223 230.504 251.242 230.842 252.83Z" fill="#263238"/>
<path d="M210.256 255.915C210.593 257.504 209.838 259.061 208.568 259.392C207.299 259.723 205.996 258.703 205.659 257.115C205.321 255.527 206.077 253.969 207.346 253.639C208.616 253.308 209.918 254.327 210.256 255.915Z" fill="#263238"/>
<path d="M227.07 261.192C225.41 257.51 223.566 253.943 221.68 250.374C221.497 250.028 220.935 250.232 221.095 250.605C222.386 253.627 223.696 256.607 225.125 259.57C225.817 261.003 226.769 262.54 226.873 264.159C226.961 265.514 226.09 266.566 225.101 267.38C224.844 267.592 224.92 268.051 225.287 268.088C226.553 268.215 227.61 267.099 227.904 265.967C228.327 264.344 227.733 262.661 227.07 261.192Z" fill="#263238"/>
<path d="M199.654 222.782C201.541 240.115 190.651 261.624 181.444 261.897C172.521 233.157 199.654 222.782 199.654 222.782Z" fill="#263238"/>
<path d="M180.111 257.569C176.665 256.394 172.403 256.919 170.063 259.706C168.114 262.028 167.88 265.36 168.354 268.354C168.966 272.217 170.662 275.971 173.49 278.671C176.318 281.371 180.334 282.917 184.206 282.374C188.079 281.831 191.655 279.041 192.737 275.282C194.812 268.074 186.301 259.681 180.111 257.569Z" fill="#CC8364"/>
<path d="M184.762 270.78C183.532 269.163 181.876 267.812 179.982 267.052C179.113 266.704 178.23 266.423 177.305 266.276C176.378 266.129 175.425 266.167 174.49 266.111C173.882 266.075 173.696 267.075 174.32 267.191C174.733 267.268 175.111 267.36 175.494 267.539C175.877 267.717 176.24 267.938 176.61 268.143C176.987 268.352 177.36 268.573 177.727 268.799C177.905 268.907 178.082 269.02 178.252 269.14C178.419 269.259 178.678 269.395 178.799 269.559C178.76 269.526 178.721 269.494 178.681 269.462C178.738 269.509 178.795 269.556 178.85 269.605C178.995 269.727 179.14 269.848 179.289 269.964C179.38 270.034 179.472 270.103 179.562 270.174C179.576 270.186 179.571 270.179 179.583 270.188C179.939 270.417 180.262 270.795 180.552 271.096C181.162 271.728 181.753 272.376 182.265 273.09C182.505 273.423 183.079 273.625 183.469 273.634C183.877 273.645 184.376 273.479 184.668 273.183C185.367 272.475 185.339 271.539 184.762 270.78Z" fill="#263238"/>
<path d="M211.186 269.599C211.472 268.622 220.101 269.05 220.937 270.171C221.468 270.885 219.443 274.341 215.762 274.064C212.723 273.836 210.854 270.733 211.186 269.599Z" fill="#EBEBEB"/>
<path d="M131.502 377.824C142.2 386.732 155.003 390.552 162.581 392.119C166.61 392.954 170.625 392.273 170.625 392.273L174.878 336.428L168.984 323.51L151.049 297.638C144.767 298.921 141.365 315.781 138.575 333.835C136.231 348.95 134.307 369.484 131.502 377.824Z" fill="#2EBBF8"/>
<path d="M169.966 385.097C170.037 383.114 170.107 381.132 170.178 379.149C170.317 375.245 170.439 371.341 170.608 367.439C170.777 363.534 170.951 359.631 171.135 355.729C171.322 351.762 171.644 347.801 171.776 343.833C171.781 343.668 172.033 343.667 172.033 343.833C172.024 347.798 172.205 351.763 172.252 355.729C172.299 359.632 172.333 363.535 172.365 367.439C172.396 371.342 172.38 375.245 172.381 379.149C172.382 381.132 172.382 383.114 172.383 385.097C172.384 387.025 172.581 389.08 172.26 390.985C172.064 392.153 170.051 392.192 169.892 390.985C169.639 389.067 169.897 387.029 169.966 385.097Z" fill="#9C79ED"/>
<path d="M187.08 374.935C187.955 374.647 188.99 374.795 189.906 374.778C190.764 374.762 191.623 374.728 192.482 374.697C194.322 374.63 196.161 374.556 197.999 374.466C201.615 374.288 205.228 374.052 208.837 373.787C216.118 373.253 223.384 372.552 230.632 371.687C231.028 371.639 231.122 372.329 230.722 372.387C223.506 373.414 216.27 374.311 209.021 375.065C205.35 375.447 201.676 375.779 197.999 376.095C196.161 376.252 194.322 376.407 192.482 376.548C191.624 376.614 190.764 376.674 189.906 376.747C188.978 376.825 187.992 377.051 187.08 376.843C186.064 376.609 186.192 375.227 187.08 374.935Z" fill="#9C79ED"/>
<path d="M224.821 421.158C247.25 427.173 270.847 432.713 288.117 449.346C290.268 451.417 292.271 453.659 294.099 456.02C295.973 458.441 298.119 461.19 299.052 464.139C299.96 467.014 296.356 468.941 294.445 466.606C292.844 464.65 291.702 462.299 290.231 460.237C288.751 458.162 287.13 456.2 285.415 454.317C281.989 450.556 278.135 447.203 274.017 444.221C264.78 437.533 254.268 432.763 243.567 428.933C237.229 426.664 230.81 424.67 224.345 422.802C223.415 422.534 223.877 420.905 224.821 421.158Z" fill="#38474F"/>
<path d="M192.045 227.926C221.814 223.723 238.023 236.603 238.023 236.603C229.267 216.002 210.219 217.634 192.045 227.926Z" fill="#263238"/>
<path d="M181.881 264.805C180.705 249.775 183.868 237.294 190.52 230.978C197.255 224.583 203.027 222.503 212.14 219.982L212.137 219.968C209.502 219.225 198.676 220.654 194.545 222.069C180.433 228.733 170.633 247.014 181.881 264.805Z" fill="#D9DADE"/>
<path d="M180.904 265.94C177.229 250.395 180.599 238.59 188.288 230.435C194.993 223.323 202.908 220.607 212.142 219.981L212.139 219.967C209.322 219.255 197.693 220.825 193.244 222.296C178.023 229.156 169.063 248.254 180.904 265.94Z" fill="white"/>
<path d="M197.97 267.073L237.43 260.364C245.181 259.038 250.434 251.947 249.165 244.525C247.895 237.104 240.582 232.162 232.832 233.489L193.374 240.198C185.623 241.523 180.369 248.615 181.638 256.036C182.906 263.458 190.219 268.399 197.97 267.073Z" fill="white"/>
<path d="M207.746 265.4L238.026 260.261C245.448 258.991 250.435 251.946 249.165 244.524C247.896 237.103 240.849 232.116 233.428 233.386L203.148 238.525C195.726 239.795 190.739 246.841 192.009 254.262C193.279 261.683 200.325 266.671 207.746 265.4Z" stroke="#263238" stroke-width="1.15688" stroke-miterlimit="10"/>
<path d="M237.981 257.655L223.462 260.119L218.615 260.94L216.556 261.299L208.076 262.733L207.613 262.814C206.988 262.919 206.352 262.976 205.739 262.976C200.452 262.976 195.778 259.17 194.853 253.779C193.823 247.752 197.861 242.037 203.888 241.007L219.263 238.404L227.731 236.97L229.802 236.611L234.256 235.859C234.383 235.836 234.51 235.825 234.638 235.813C235.147 235.732 235.644 235.697 236.13 235.697C241.417 235.697 246.091 239.503 247.016 244.894C248.046 250.91 244.008 256.625 237.981 257.655Z" fill="#D9DADE"/>
<path d="M227.73 236.969L216.554 261.298L208.074 262.732L219.261 238.403L227.73 236.969Z" fill="white"/>
<path d="M234.635 235.812L223.46 260.118L218.612 260.94L229.799 236.611L234.253 235.859C234.381 235.836 234.508 235.824 234.635 235.812Z" fill="white"/>
<path d="M229.255 249.658L213.182 252.373C212.254 252.53 211.373 251.905 211.217 250.976C211.061 250.048 211.686 249.168 212.615 249.012L228.688 246.296C229.616 246.14 230.497 246.765 230.653 247.694C230.809 248.622 230.184 249.501 229.255 249.658Z" fill="#2EBBF8"/>
<path d="M187.797 284.193L180.884 285.895C175.446 287.234 169.952 283.911 168.613 278.473L166.193 268.644C164.853 263.206 168.177 257.712 173.616 256.373L180.528 254.672C185.967 253.332 191.461 256.656 192.799 262.094L195.219 271.922C196.558 277.36 193.235 282.854 187.797 284.193Z" fill="white"/>
<path d="M176.044 261.816C179.732 260.908 183.458 263.162 184.366 266.85L185.543 271.625C186.451 275.314 184.197 279.04 180.509 279.948C176.821 280.856 173.095 278.603 172.187 274.914L171.01 270.139C170.101 266.451 172.355 262.724 176.044 261.816Z" fill="#D9DADE"/>
<path d="M182.939 285.391L180.886 285.897C175.448 287.236 169.954 283.913 168.615 278.475L166.195 268.646C164.855 263.208 168.179 257.714 173.618 256.375L175.67 255.87C181.108 254.53 186.602 257.854 187.941 263.292L190.361 273.121C191.7 278.557 188.377 284.051 182.939 285.391Z" stroke="#263238" stroke-width="1.15688" stroke-miterlimit="10"/>
<path d="M266.508 283.174C257.321 282.488 254.104 268.362 254.307 262.363L244.095 254.674C243.426 254.047 243.249 253.054 243.662 252.234C244.134 251.297 245.234 250.863 246.218 251.225L260.254 256.822L266.508 283.174Z" fill="#CC8364"/>
<path d="M267.763 283.294L264.702 247.701C264.71 246.485 264.109 245.346 263.101 244.666L261.297 243.45L261.118 239.752C261.045 238.25 259.97 236.986 258.501 236.67L245.519 233.888C244.258 233.684 243.057 234.498 242.779 235.744L242.743 235.908C242.498 237.011 243.051 238.137 244.075 238.617L251.169 241.942L246.961 241.521C245.666 241.391 244.499 242.313 244.329 243.605C244.198 244.601 244.698 245.576 245.585 246.05L255.02 251.089C255.02 251.089 251.639 259.273 253.41 269.449C255.181 279.626 260.047 289.194 260.047 289.194L267.763 283.294Z" fill="#CC8364"/>
<path d="M241.24 359.619C241.044 360.73 240.604 361.991 240.754 363.101L242.871 363.761C242.883 363.749 242.883 363.738 242.895 363.726C244.526 361.088 245.787 358.196 246.654 355.223C247.534 352.227 247.777 349.207 247.915 346.107C247.939 345.621 247.21 345.632 247.163 346.107C246.863 349.057 245.96 351.995 244.988 354.783C244.41 356.449 243.704 358.046 242.918 359.608C243.057 358.416 243.184 357.224 243.276 356.033C243.461 353.58 243.485 351.116 243.392 348.652C243.184 343.758 242.524 338.807 241.02 334.122C240.916 333.809 240.477 333.936 240.523 334.249C241.367 339.073 242.027 343.897 242.062 348.791C242.073 351.162 241.946 353.534 241.726 355.894C241.599 357.143 241.448 358.381 241.24 359.619Z" fill="#9C79ED"/>
<path d="M310.521 411.388L311.083 409.144C312.48 409.493 313.941 409.705 315.425 409.772L315.322 412.084C313.683 412.01 312.067 411.776 310.521 411.388ZM307.06 410.216C305.56 409.567 304.137 408.751 302.83 407.788L304.201 405.924C305.368 406.784 306.64 407.514 307.979 408.093L307.06 410.216ZM318.949 411.994L318.733 409.69C320.188 409.553 321.651 409.286 323.081 408.894L323.692 411.124C322.134 411.554 320.537 411.845 318.949 411.994ZM300.073 405.378C298.97 404.238 297.962 402.952 297.078 401.557L299.032 400.319C299.831 401.581 300.742 402.742 301.735 403.769L300.073 405.378ZM327.116 409.95L326.226 407.815C327.598 407.243 328.917 406.555 330.146 405.769L331.393 407.72C330.049 408.577 328.611 409.328 327.116 409.95ZM334.306 405.555L332.798 403.799C333.935 402.823 334.949 401.755 335.809 400.624L337.65 402.024C336.692 403.285 335.566 404.472 334.306 405.555ZM339.611 398.919L337.549 397.87C337.916 397.148 338.232 396.401 338.485 395.65C338.571 395.398 338.651 395.145 338.722 394.888L340.95 395.507C340.868 395.804 340.776 396.099 340.676 396.39C340.388 397.247 340.028 398.097 339.611 398.919Z" fill="#EBEBEB"/>
<path d="M339.684 397.041C338.17 396.53 336.876 395.388 336.227 393.795V393.794C335.043 390.885 336.446 387.556 339.353 386.371C342.26 385.186 345.591 386.589 346.776 389.497C347.351 390.906 347.342 392.455 346.75 393.856C346.159 395.258 345.058 396.346 343.649 396.92C342.336 397.456 340.934 397.463 339.684 397.041ZM339.441 392.485C339.904 393.621 341.203 394.17 342.341 393.707C343.476 393.244 344.026 391.944 343.563 390.808C343.339 390.257 342.913 389.827 342.366 389.596C341.812 389.363 341.214 389.362 340.663 389.586C339.527 390.049 338.98 391.35 339.441 392.485Z" fill="#EBEBEB"/>
<path d="M372.263 292.535V261.987" stroke="#EBEBEB" stroke-width="2.31376" stroke-miterlimit="10"/>
<path d="M372.263 296.232V302.36" stroke="#EBEBEB" stroke-width="2.31376" stroke-miterlimit="10"/>
<path d="M360.269 418.198V377.636" stroke="#EBEBEB" stroke-width="2.31376" stroke-miterlimit="10"/>
<path d="M360.269 421.896V427.033" stroke="#EBEBEB" stroke-width="2.31376" stroke-miterlimit="10"/>
<path d="M372.261 393.684V412.357" stroke="#EBEBEB" stroke-width="2.31376" stroke-miterlimit="10"/>
<path d="M382.871 403.537V386.019" stroke="#EBEBEB" stroke-width="2.31376" stroke-miterlimit="10"/>
<path d="M338.057 246.373C339.013 257.24 339.982 268.174 342.836 278.703C345.69 289.232 350.564 299.443 358.355 307.078C354.71 294.578 354.425 283.562 350.321 272.015C347.213 263.276 341.609 253.782 338.057 246.373Z" fill="#DBDBDB"/>
<path d="M356.12 304.504C344.845 294.376 327.542 291.561 313.639 297.594C319.369 300.257 325.69 302.829 332.009 302.808C340.271 302.782 348.455 301.794 356.12 304.504Z" fill="#DBDBDB"/>
<path d="M349.552 290.748C350.081 282.92 349.949 275.049 349.16 267.245C349.008 265.744 348.825 264.223 348.239 262.833C347.651 261.444 346.598 260.184 345.175 259.684C343.737 259.179 342.028 259.558 340.938 260.624C339.848 261.689 339.43 263.39 339.901 264.838C338.451 263.972 336.669 263.264 335.035 262.828C333.403 262.391 331.562 262.446 330.14 263.359C329.09 264.032 328.338 265.151 328.112 266.377C327.885 267.603 328.188 268.916 328.926 269.92C326.579 269.495 324.171 272.329 323.866 274.695C323.559 277.061 324.84 279.408 326.623 280.993C328.405 282.578 330.643 283.539 332.837 284.473C338.401 286.841 343.99 288.38 349.552 290.748Z" fill="#2EBBF8"/>
<path d="M356.571 266.524C356.692 268.009 356.3 269.497 355.904 270.943C354.631 275.595 353.362 280.258 352.105 284.917L349.845 288.845L349.52 289.415C346.415 287.049 343.49 284.461 340.755 281.676C339.48 280.38 338.226 278.993 337.523 277.297C336.836 275.609 336.812 273.543 337.899 272.083C338.98 270.611 341.978 269.745 343.336 270.966C342.805 269.54 342.715 267.917 343.237 266.478C343.758 265.038 344.926 263.826 346.39 263.392C347.866 262.954 349.684 263.081 350.674 264.249C351.086 262.811 353.004 262.217 354.35 262.859C354.606 262.984 354.831 263.135 355.037 263.307C355.959 264.083 356.474 265.322 356.571 266.524Z" fill="#9C79ED"/>
<path d="M356.569 266.523C356.691 268.008 356.299 269.496 355.903 270.942C354.629 275.594 353.36 280.257 352.104 284.916L349.843 288.844C349.267 286.459 349.471 283.929 349.789 281.481C350.161 278.664 350.667 275.867 351.376 273.13C351.999 270.747 352.758 268.396 353.719 266.134C354.075 265.315 354.467 264.191 355.034 263.306C355.957 264.082 356.472 265.321 356.569 266.523Z" fill="#2EBBF8"/>
<path d="M345.843 288.821C342.307 284.821 337.971 281.531 333.168 279.201C332.191 278.728 331.113 278.284 330.052 278.508C328.992 278.733 328.088 279.933 328.568 280.906C325.775 279.364 321.61 281.256 320.122 284.079C318.634 286.901 319.893 290.83 322.743 292.263C324.678 293.235 326.959 293.1 329.118 292.94C333.951 292.584 338.785 292.228 343.618 291.871L345.843 288.821Z" fill="#9C79ED"/>
<path d="M342.303 291.963C344.449 283.329 352.87 283.661 352.87 283.661C356.352 288.84 350.191 297.532 342.303 291.963Z" fill="#263238"/>
<path d="M366.267 335.555L365.104 335.75C362.447 319.953 357.249 304.79 349.654 290.682L350.692 290.123C358.348 304.345 363.588 319.629 366.267 335.555Z" fill="#263238"/>
<path d="M356.588 255.256C350.996 277.824 351.54 289.075 357.486 304.476C360.196 298.282 359.789 292.186 359.63 285.427C359.3 271.525 357.702 264.558 356.588 255.256Z" fill="#EBEBEB"/>
<path d="M385.051 334.462L388.115 342.958L399.426 374.283L370.715 385.25L358.261 354.362L354.881 345.986L354.807 345.792C353.91 343.445 353.68 340.873 354.166 338.389C355.92 329.487 355.12 320.321 351.902 311.896C351.438 310.68 350.919 309.471 350.358 308.293L363.292 303.352C363.659 304.604 364.08 305.85 364.544 307.066C367.761 315.49 373.277 322.855 380.519 328.322C382.593 329.886 384.164 332.029 385.051 334.462Z" fill="#DBDBDB"/>
<path d="M385.051 334.462L388.115 342.958L399.426 374.283L370.715 385.25L358.261 354.362L354.881 345.986L354.807 345.792C353.91 343.445 353.68 340.873 354.166 338.389C355.92 329.487 355.12 320.321 351.902 311.896C351.438 310.68 350.919 309.471 350.358 308.293L363.292 303.352C363.659 304.604 364.08 305.85 364.544 307.066C367.761 315.49 373.277 322.855 380.519 328.322C382.593 329.886 384.164 332.029 385.051 334.462Z" fill="#DBDBDB"/>
<path d="M385.05 334.462L388.115 342.958L399.425 374.283L380.293 381.592L367.839 350.704L364.459 342.328L364.385 342.133C363.488 339.787 363.258 337.214 363.744 334.731C365.498 325.828 364.698 316.662 361.48 308.238C361.016 307.022 360.498 305.813 359.937 304.634L363.291 303.353C363.658 304.605 364.079 305.851 364.543 307.067C367.76 315.491 373.277 322.856 380.519 328.323C382.592 329.886 384.163 332.029 385.05 334.462Z" fill="#EBEBEB"/>
<path d="M385.055 334.463L388.119 342.959L358.265 354.364L354.885 345.988L354.811 345.794C353.914 343.447 353.684 340.876 354.17 338.391C355.923 329.489 355.124 320.323 351.906 311.898C351.442 310.682 350.923 309.473 350.362 308.295L363.296 303.354C363.663 304.606 364.084 305.852 364.548 307.068C367.765 315.491 373.281 322.857 380.523 328.322C382.596 329.886 384.167 332.03 385.055 334.463Z" fill="#2EBBF8"/>
<path d="M385.056 334.463L388.12 342.959L367.845 350.705L364.465 342.329L364.391 342.134C363.494 339.788 363.264 337.216 363.75 334.732C365.504 325.829 364.704 316.663 361.486 308.239C361.022 307.023 360.503 305.814 359.942 304.635L363.297 303.354C363.664 304.606 364.085 305.852 364.549 307.068C367.766 315.491 373.282 322.857 380.524 328.322C382.598 329.886 384.169 332.03 385.056 334.463Z" fill="#9C79ED"/>
<path d="M143.093 85.0244V170.46C141.277 170.633 139.495 170.818 137.737 171.015C130.529 171.767 123.785 172.577 117.468 173.456C113.5 173.988 109.717 174.555 106.084 175.145C95.7419 176.811 86.753 178.639 78.9788 180.606C47.7084 188.507 36.209 198.676 36.209 209.759V124.312C36.209 107.596 62.366 92.9606 143.093 85.0244Z" fill="#2EBBF8"/>
<path d="M131.022 103.101C131.022 104.452 129.992 105.58 128.649 105.717C58.8988 112.819 36.209 125.677 36.209 140.34V135.045C36.209 120.418 58.7843 107.588 128.125 100.486C129.673 100.326 131.022 101.544 131.022 103.101Z" fill="white"/>
<path d="M131.022 113.764C131.022 115.114 129.992 116.242 128.649 116.379C58.8988 123.481 36.209 136.339 36.209 151.002V145.707C36.209 131.08 58.7843 118.25 128.125 111.148C129.673 110.988 131.022 112.208 131.022 113.764Z" fill="white"/>
<path d="M131.022 124.427C131.022 125.777 129.992 126.905 128.649 127.042C58.8988 134.144 36.209 147.002 36.209 161.665V156.37C36.209 141.743 58.7843 128.913 128.125 121.811C129.673 121.651 131.022 122.871 131.022 124.427Z" fill="white"/>
<path d="M131.022 135.09C131.022 136.44 129.992 137.568 128.649 137.705C58.8988 144.808 36.209 157.665 36.209 172.328V167.033C36.209 152.406 58.7843 139.576 128.125 132.474C129.673 132.314 131.022 133.533 131.022 135.09Z" fill="white"/>
<path d="M131.022 145.753C131.022 147.103 129.992 148.231 128.649 148.369C58.8988 155.471 36.209 168.328 36.209 182.992V177.697C36.209 163.069 58.7843 150.239 128.125 143.137C129.673 142.977 131.022 144.196 131.022 145.753Z" fill="white"/>
<path d="M78.4705 164.708C78.4902 163.039 76.9215 161.807 75.303 162.206C46.6946 169.261 36.2109 178.391 36.2109 188.358V193.653C36.2109 183.549 46.9861 174.302 76.5062 167.204C77.6411 166.931 78.4566 165.928 78.4705 164.76C78.4694 164.743 78.4694 164.725 78.4705 164.708Z" fill="white"/>
<path d="M59.4584 150.332V235.779C44.7984 228.445 36.2109 219.553 36.2109 209.969V124.522C36.2109 134.097 44.7984 142.987 59.4584 150.332Z" fill="#2EBBF8"/>
<path d="M132.043 143.452L100.113 143.883L116.452 171.499L148.539 171.159L132.043 143.452Z" fill="white"/>
<path d="M100.116 143.882L84.3652 171.66L100.861 199.367L116.454 171.5L100.116 143.882Z" fill="#9C79ED"/>
<path d="M148.541 171.159L116.454 171.5L100.861 199.367L132.948 199.026L148.541 171.159Z" fill="#9C79ED"/>
<path d="M84.2442 190.131L85.8522 191.795C84.8168 192.796 83.8659 193.925 83.0248 195.15L81.1171 193.84C82.0461 192.486 83.0988 191.239 84.2442 190.131ZM87.0693 187.812C88.4124 186.882 89.8585 186.106 91.3659 185.504L92.2231 187.652C90.8765 188.189 89.5855 188.882 88.3846 189.714L87.0693 187.812ZM79.2765 196.965L81.3473 197.999C80.6937 199.307 80.1477 200.69 79.7242 202.112L77.5077 201.452C77.9681 199.902 78.5639 198.393 79.2765 196.965ZM94.8678 184.436C96.4191 184.102 98.0434 183.926 99.6943 183.912L99.7128 186.226C98.2192 186.239 96.7523 186.397 95.356 186.698L94.8678 184.436ZM76.6955 204.979L78.9792 205.351C78.7397 206.818 78.6263 208.301 78.6449 209.76L76.3299 209.788C76.3114 208.195 76.4341 206.578 76.6955 204.979ZM76.6273 213.407L78.9144 213.054C79.1423 214.535 79.5137 215.96 80.0192 217.289L77.857 218.111C77.2936 216.631 76.8806 215.048 76.6273 213.407ZM79.4581 221.416L81.4387 220.22C81.8575 220.913 82.3249 221.575 82.8281 222.187C82.997 222.393 83.1694 222.596 83.3499 222.792L81.647 224.357C81.4376 224.129 81.2363 223.895 81.0408 223.657C80.4669 222.96 79.9348 222.206 79.4581 221.416Z" fill="#2EBBF8"/>
<path d="M81.0175 222.471C82.2519 221.455 83.9051 220.961 85.5999 221.251C88.6946 221.782 90.7804 224.734 90.2494 227.828C89.7184 230.923 86.7684 233.009 83.6737 232.478C82.1733 232.221 80.8637 231.395 79.9856 230.152C79.1087 228.91 78.7662 227.4 79.0242 225.901C79.2637 224.502 79.9983 223.308 81.0175 222.471ZM85.0134 224.671C83.8045 224.464 82.6522 225.277 82.444 226.487C82.2369 227.696 83.0513 228.85 84.2603 229.057C84.8468 229.157 85.4368 229.023 85.9215 228.681C86.4132 228.334 86.7302 227.826 86.8297 227.24C87.0368 226.033 86.2212 224.879 85.0134 224.671Z" fill="#2EBBF8"/>
<path d="M169.733 93.407V185.978C190.514 183.262 213.065 181.776 236.616 181.776C271.827 181.776 304.783 185.086 333.008 190.869V98.2844C304.783 92.5151 271.828 89.2041 236.616 89.2041C213.065 89.2041 190.514 90.6907 169.733 93.407Z" fill="#2EBBF8"/>
<path d="M207.122 144.582C207.122 150.503 202.322 155.664 196.4 156.107C190.478 156.55 185.678 152.11 185.678 146.188C185.678 140.266 190.478 135.106 196.4 134.663C202.321 134.22 207.122 138.661 207.122 144.582Z" fill="white"/>
<path d="M295.476 109.7C295.476 114.954 291.216 118.59 285.961 117.822C280.707 117.053 276.447 112.171 276.447 106.916C276.447 101.662 280.707 98.0257 285.961 98.7938C291.216 99.5631 295.476 104.445 295.476 109.7Z" fill="white"/>
<path d="M310.929 165.871H287.11V168.814H310.929V165.871Z" fill="#3C9199"/>
<path d="M317.199 165.871H314.456V168.814H317.199V165.871Z" fill="#3C9199"/>
<path d="M257.308 190.202C277.652 190.202 294.144 174.077 294.144 154.186C294.144 134.295 277.652 118.17 257.308 118.17C236.964 118.17 220.472 134.295 220.472 154.186C220.472 174.077 236.964 190.202 257.308 190.202Z" fill="#3C9199"/>
<path d="M291.461 140.685C288.881 142.802 285.966 144.595 282.738 145.995C264.136 154.036 242.375 145.81 234.149 127.612C233.987 127.254 233.837 126.907 233.687 126.548C236.266 124.443 239.182 122.649 242.409 121.25C261.024 113.198 282.773 121.435 290.998 139.621C291.16 139.979 291.311 140.327 291.461 140.685Z" fill="#3C9199"/>
<path d="M311.673 130.678C310.828 128.931 309.301 127.763 307.867 127.092C306.409 126.409 304.963 126.039 303.551 125.831C300.729 125.414 298.01 125.483 295.338 125.68C290.907 126.027 286.603 126.791 282.369 127.774C283.329 128.642 284.243 129.567 285.099 130.539C288.581 129.914 292.064 129.463 295.546 129.336C298.033 129.278 300.52 129.382 302.799 129.845C305.067 130.273 307.092 131.337 307.473 132.494C307.913 133.616 307.196 135.595 305.888 137.399C304.581 139.204 302.834 140.858 301.006 142.432C298.681 144.341 296.171 146.087 293.556 147.707C291.948 148.714 290.305 149.662 288.651 150.588C279.882 155.389 270.719 159.507 261.545 163.545C256.952 165.569 252.29 167.455 247.57 169.121C242.85 170.81 238.095 172.383 233.294 173.633C231.293 174.153 229.291 174.651 227.29 175.067C224.49 175.669 221.691 176.143 218.926 176.398C216.589 176.606 214.24 176.687 212.204 176.432C211.186 176.328 210.296 176.085 209.648 175.831C208.988 175.553 208.757 175.333 208.641 175.229C208.537 175.114 208.41 174.743 208.549 174.015C208.699 173.297 209.046 172.395 209.578 171.493C210.619 169.676 212.135 167.837 213.766 166.101C215.941 163.834 218.359 161.682 220.904 159.658C220.557 157.517 220.418 155.377 220.476 153.249C216.577 155.713 212.748 158.35 209.173 161.52C207.137 163.348 205.171 165.303 203.447 167.756C202.591 168.994 201.804 170.393 201.26 172.117C200.728 173.806 200.497 176.108 201.434 178.341C202.394 180.562 204.245 182.066 205.876 182.934C207.542 183.825 209.15 184.311 210.677 184.623C213.743 185.259 216.612 185.375 219.435 185.317C225.023 185.155 230.356 184.38 235.596 183.27C235.62 183.27 235.654 183.258 235.677 183.258C240.93 182.113 246.089 180.724 251.133 179.059C256.189 177.393 261.129 175.484 266.022 173.448C275.74 169.26 284.972 163.927 293.383 157.413C293.602 157.24 293.834 157.066 294.053 156.893C298.022 153.804 301.828 150.472 305.287 146.689C307.126 144.699 308.862 142.571 310.319 140.095C311.06 138.869 311.696 137.492 312.089 135.919C312.471 134.38 312.517 132.436 311.673 130.678Z" fill="#3C9199"/>
<path d="M292.052 173.844H273.894V176.787H292.052V173.844Z" fill="#3C9199"/>
<path d="M300.323 173.844H295.579V176.787H300.323V173.844Z" fill="#3C9199"/>
<path d="M270.013 219.651L268.297 218.099C269.262 217.032 270.136 215.841 270.892 214.562L272.884 215.739C272.048 217.152 271.082 218.468 270.013 219.651ZM267.351 222.155C266.074 223.173 264.683 224.046 263.219 224.747L262.218 222.661C263.525 222.035 264.766 221.255 265.908 220.345L267.351 222.155ZM274.51 212.497L272.374 211.605C272.939 210.256 273.39 208.839 273.716 207.392L275.972 207.903C275.617 209.478 275.124 211.024 274.51 212.497ZM259.798 226.047C258.272 226.486 256.664 226.77 255.017 226.895L254.843 224.588C256.333 224.475 257.785 224.218 259.158 223.824L259.798 226.047ZM276.545 204.328L274.24 204.11C274.381 202.631 274.394 201.143 274.277 199.689L276.584 199.505C276.711 201.092 276.697 202.715 276.545 204.328ZM276.045 195.914L273.787 196.419C273.459 194.957 272.993 193.561 272.4 192.269L274.502 191.303C275.162 192.743 275.682 194.294 276.045 195.914ZM272.681 188.114L270.786 189.44C270.321 188.777 269.809 188.148 269.267 187.571C269.084 187.377 268.899 187.186 268.704 187.002L270.299 185.326C270.523 185.539 270.739 185.759 270.95 185.983C271.57 186.642 272.152 187.359 272.681 188.114Z" fill="#2EBBF8"/>
<path d="M271.058 187.167C269.895 188.264 268.279 188.869 266.568 188.692C263.445 188.37 261.165 185.567 261.486 182.443C261.808 179.32 264.611 177.04 267.735 177.361C269.249 177.516 270.611 178.252 271.571 179.432C272.53 180.613 272.973 182.096 272.817 183.61C272.67 185.022 272.019 186.262 271.058 187.167ZM266.922 185.24C268.143 185.365 269.237 184.476 269.363 183.253C269.488 182.034 268.599 180.937 267.378 180.812C266.787 180.751 266.208 180.924 265.746 181.299C265.279 181.679 264.997 182.206 264.936 182.797C264.812 184.019 265.703 185.114 266.922 185.24Z" fill="#2EBBF8"/>
<path d="M232.301 99.2617C215.002 99.3612 198.088 100.419 181.935 102.404C181.068 102.51 180.43 103.252 180.437 104.124C180.437 104.136 180.437 104.148 180.437 104.16C180.444 105.186 181.327 105.973 182.345 105.847C198.372 103.877 215.156 102.83 232.327 102.731C233.263 102.725 234.023 101.975 234.032 101.039C234.032 101.026 234.032 101.014 234.032 101.002C234.042 100.043 233.261 99.2571 232.301 99.2617Z" fill="white"/>
<path d="M232.224 106.944C214.953 107.047 198.066 108.102 181.937 110.085C181.074 110.192 180.43 110.929 180.431 111.797C180.431 111.809 180.431 111.822 180.431 111.833C180.431 112.863 181.326 113.654 182.348 113.528C198.35 111.561 215.107 110.516 232.252 110.414C233.188 110.408 233.947 109.657 233.957 108.72C233.957 108.707 233.957 108.696 233.957 108.683C233.967 107.725 233.184 106.939 232.224 106.944Z" fill="white"/>
<path d="M232.174 114.627C214.923 114.731 198.057 115.786 181.947 117.767C181.084 117.873 180.439 118.61 180.44 119.479C180.44 119.491 180.44 119.503 180.44 119.515C180.442 120.544 181.336 121.336 182.357 121.21C198.341 119.245 215.079 118.199 232.201 118.096C233.142 118.091 233.903 117.333 233.907 116.394C233.907 116.381 233.907 116.369 233.907 116.357C233.91 115.401 233.13 114.621 232.174 114.627Z" fill="white"/>
<path d="M199.095 123.719C193.3 124.183 187.578 124.757 181.953 125.448C181.09 125.554 180.445 126.291 180.446 127.16C180.446 127.171 180.446 127.184 180.446 127.196C180.447 128.225 181.342 129.017 182.363 128.891C187.947 128.206 193.625 127.635 199.377 127.176C200.261 127.106 200.951 126.374 200.959 125.487C200.959 125.475 200.959 125.464 200.959 125.452C200.968 124.444 200.102 123.64 199.095 123.719Z" fill="white"/>
<path d="M306.326 119.121L327.955 126.11L323.233 103.762L301.518 96.6777L306.326 119.121Z" fill="white"/>
<path d="M327.955 126.109L344.908 110.968L340.1 88.5244L323.232 103.762L327.955 126.109Z" fill="#9C79ED"/>
<path d="M301.518 96.6777L323.232 103.761L340.099 88.5251L318.385 81.4404L301.518 96.6777Z" fill="#9C79ED"/>
<path d="M428.505 225.93V254.88C428.505 241.565 392.491 225.301 364.37 215.101L354.758 219.505V182.805C383.426 192.462 428.505 211.033 428.505 225.93Z" fill="#2EBBF8"/>
<path d="M380.31 198.811C380.323 199.516 380.342 200.223 380.354 200.929C380.356 201.062 380.363 201.196 380.367 201.329C404.487 211.22 428.499 224.051 428.499 234.925V232.424C428.499 221.541 404.449 208.706 380.31 198.811Z" fill="white"/>
<path d="M378.405 198.036C373.615 196.102 368.845 194.288 364.283 192.635C364.291 193.441 364.298 194.247 364.309 195.054C364.309 195.083 364.309 195.113 364.31 195.143C368.846 196.787 373.589 198.59 378.353 200.512C378.368 199.685 378.388 198.861 378.405 198.036Z" fill="white"/>
<path d="M419.358 226.145L419.397 227.853C419.402 228.133 419.41 228.412 419.417 228.692C425.032 233.117 428.498 237.527 428.498 241.656V239.155C428.499 235.01 425.01 230.583 419.358 226.145Z" fill="white"/>
<path d="M393.404 211.245C383.929 206.849 373.717 202.787 364.369 199.396C364.378 200.232 364.387 201.068 364.396 201.903C373.724 205.286 383.91 209.336 393.366 213.722L393.404 211.245Z" fill="white"/>
<path d="M395.329 212.148L395.368 214.662C403.587 218.561 411.155 222.701 416.973 226.864L417.029 224.404C411.193 220.223 403.589 216.064 395.329 212.148Z" fill="white"/>
<path d="M375.874 210.752C372 209.219 368.16 207.768 364.457 206.424C364.465 207.26 364.476 208.096 364.484 208.931C368.159 210.265 371.969 211.703 375.813 213.223C375.831 212.399 375.85 211.575 375.874 210.752Z" fill="white"/>
<path d="M428.509 225.15V254.091C428.509 263.662 421.173 272.634 408.328 280.39V251.438C421.173 243.682 428.509 234.71 428.509 225.15Z" fill="#2EBBF8"/>
<path d="M428.505 186.97V215.921C428.505 201.024 383.426 182.437 354.758 172.78V143.847C383.426 153.503 428.505 172.075 428.505 186.97Z" fill="#2EBBF8"/>
<path d="M394.434 168.228C394.444 167.5 394.462 166.774 394.471 166.046C384.67 161.447 374.002 157.2 364.283 153.676C364.291 154.482 364.298 155.288 364.309 156.095C364.309 156.125 364.309 156.154 364.31 156.184C374.007 159.697 384.647 163.934 394.427 168.521C394.429 168.423 394.433 168.325 394.434 168.228Z" fill="white"/>
<path d="M396.863 167.185C396.868 167.533 396.876 167.88 396.881 168.228C396.888 168.721 396.903 169.213 396.915 169.705C414.377 178.138 428.498 187.628 428.498 195.965V193.464C428.499 185.117 414.349 175.622 396.863 167.185Z" fill="white"/>
<path d="M416.263 184.905C403.288 175.844 382.242 166.921 364.369 160.438C364.378 161.274 364.387 162.109 364.396 162.944C382.235 169.413 403.23 178.316 416.204 187.362C416.224 186.544 416.244 185.725 416.263 184.905Z" fill="white"/>
<path d="M418.46 186.503C418.481 187.352 418.502 188.2 418.522 189.049C424.656 193.703 428.499 198.356 428.499 202.698V200.197C428.499 195.84 424.63 191.171 418.46 186.503Z" fill="white"/>
<path d="M401.672 183.307C390.148 177.385 376.576 171.864 364.454 167.465C364.462 168.301 364.473 169.137 364.481 169.972C376.567 174.356 390.091 179.857 401.588 185.76C401.613 184.943 401.641 184.125 401.672 183.307Z" fill="white"/>
<path d="M428.509 186.191V215.132C428.509 222.632 424.003 229.766 415.871 236.234L408.328 246.128V212.479C421.173 204.725 428.509 195.751 428.509 186.191Z" fill="#2EBBF8"/>
<path d="M428.505 148.014V176.964C428.505 163.286 390.5 146.496 362.089 136.365L354.758 139.993V104.889C383.426 114.546 428.505 133.116 428.505 148.014Z" fill="#2EBBF8"/>
<path d="M385.138 129.3C385.179 128.565 385.203 127.826 385.231 127.088C378.195 124.078 371.013 121.289 364.283 118.85C364.291 119.656 364.298 120.462 364.309 121.269C364.309 121.299 364.309 121.328 364.31 121.358C370.997 123.78 378.13 126.55 385.122 129.538C385.128 129.458 385.135 129.378 385.138 129.3Z" fill="white"/>
<path d="M422.569 148.381C422.584 149.22 422.59 150.058 422.587 150.897C426.303 154.4 428.498 157.859 428.498 161.14V158.639C428.499 155.353 426.297 151.889 422.569 148.381Z" fill="white"/>
<path d="M420.34 146.424C412.584 140.038 400.192 133.592 387.088 127.891C387.106 128.361 387.12 128.832 387.147 129.301C387.168 129.683 387.197 130.063 387.224 130.445C400.247 136.119 412.555 142.529 420.288 148.88C420.3 148.06 420.317 147.242 420.34 146.424Z" fill="white"/>
<path d="M394.364 137.909C384.62 133.339 374.034 129.118 364.369 125.611C364.378 126.447 364.387 127.283 364.396 128.118C374.043 131.616 384.605 135.829 394.331 140.388C394.342 139.562 394.353 138.735 394.364 137.909Z" fill="white"/>
<path d="M396.356 138.854C396.367 139.692 396.378 140.528 396.39 141.366C400.606 143.391 404.64 145.474 408.332 147.592C408.344 146.77 408.361 145.946 408.382 145.124C404.666 142.991 400.602 140.892 396.356 138.854Z" fill="white"/>
<path d="M428.509 147.234V176.175C428.509 185.746 421.173 194.718 408.328 202.474V173.522C421.173 165.766 428.509 156.794 428.509 147.234Z" fill="#2EBBF8"/>
<path d="M298.338 248.209C299.149 253.13 303.006 256.987 307.928 257.798C303.006 258.609 299.149 262.466 298.338 267.388C297.527 262.466 293.67 258.609 288.749 257.798C293.67 256.987 297.527 253.13 298.338 248.209Z" fill="#EBEBEB"/>
<path d="M49.8677 262.569C50.6787 267.491 54.5357 271.348 59.457 272.159C54.5357 272.97 50.6787 276.827 49.8677 281.748C49.0567 276.827 45.1997 272.97 40.2783 272.159C45.2008 271.348 49.0579 267.491 49.8677 262.569Z" fill="#EBEBEB"/>
<path d="M289.847 238.157C290.279 240.779 292.333 242.833 294.956 243.266C292.334 243.698 290.28 245.752 289.847 248.375C289.416 245.753 287.36 243.699 284.738 243.266C287.36 242.833 289.416 240.779 289.847 238.157Z" fill="#EBEBEB"/>
<path d="M47.8344 431.249C48.5019 435.302 51.6787 438.478 55.7312 439.147C51.6775 439.815 48.5019 442.991 47.8344 447.045C47.1668 442.991 43.99 439.816 39.9375 439.147C43.99 438.48 47.1668 435.303 47.8344 431.249Z" fill="#EBEBEB"/>
<path d="M393.4 446.229C394.067 450.281 397.244 453.458 401.297 454.125C397.244 454.793 394.067 457.97 393.4 462.023C392.732 457.971 389.556 454.794 385.502 454.125C389.556 453.458 392.732 450.281 393.4 446.229Z" fill="#EBEBEB"/>
<path d="M256.573 389.214C257.223 393.16 260.315 396.253 264.262 396.904C260.316 397.554 257.223 400.646 256.573 404.593C255.922 400.647 252.83 397.554 248.883 396.904C252.829 396.253 255.922 393.161 256.573 389.214Z" fill="#EBEBEB"/>
<path d="M179.56 198.285C180.26 202.532 183.589 205.862 187.835 206.56C183.589 207.26 180.26 210.589 179.56 214.835C178.86 210.589 175.532 207.259 171.285 206.56C175.532 205.862 178.862 202.532 179.56 198.285Z" fill="#EBEBEB"/>
<path d="M25.6094 497H434.293" stroke="#EBEBEB" stroke-width="2.31376" stroke-miterlimit="10"/>
<path d="M342.447 131.147V103.683" stroke="#DBDBDB" stroke-width="2.31376" stroke-miterlimit="10"/>
<path d="M342.447 133.651V137.13" stroke="#DBDBDB" stroke-width="2.31376" stroke-miterlimit="10"/>
<path d="M336.602 126.337V114.475" stroke="#DBDBDB" stroke-width="2.31376" stroke-miterlimit="10"/>
</svg>
