<svg width="326" height="216" viewBox="0 0 326 216" fill="none" xmlns="http://www.w3.org/2000/svg">
<path d="M133.349 150.791C146.53 151.194 159.77 150.458 172.95 150.818C173.226 151.223 173.156 151.923 173.173 152.405L173.304 152.45L173.351 155.372C181.998 155.338 190.707 155.162 199.35 155.402L199.356 207.598L199.361 222.596C199.361 224.776 199.606 227.31 199.293 229.455C199.16 230.368 198.374 231.533 197.727 232.181C197.447 232.462 196.738 232.942 196.694 233.329C192.618 233.44 188.526 233.376 184.448 233.382C182.046 233.386 179.118 233.707 176.784 233.186C175.936 232.996 175.139 232.502 174.505 231.917C174.052 231.499 173.619 230.959 173.445 230.362C172.783 228.082 173.257 219.761 173.152 216.761C170.952 216.354 168.455 216.599 166.21 216.532C159.382 216.33 149.347 216.181 143.018 214.114C142.067 213.045 140.11 206.723 139.506 205.084C140.458 201.51 141.975 198.029 143.145 194.516C144.853 189.388 154.574 159.297 153.713 155.889C153.468 154.918 152.469 154.149 151.675 153.622C145.623 153.128 139.416 153.606 133.336 153.46L133.349 150.791Z" fill="#A8BDAB"/>
<path d="M133.349 150.791C146.53 151.194 159.77 150.458 172.95 150.818C173.226 151.223 173.156 151.923 173.173 152.405C173.223 154.683 173.256 156.962 173.271 159.241L173.072 159.353C170.54 160.763 164.973 161.909 161.936 162.832C160.062 163.402 158.301 164.18 156.455 164.779C155.742 165.011 152.956 165.608 152.633 166.187C154.521 166.146 157.386 164.543 159.262 163.92C162.221 162.938 165.235 162.074 168.237 161.231C169.92 160.758 171.615 160.38 173.255 159.766V195.534C173.257 202.601 173.397 209.7 173.152 216.761C170.952 216.354 168.455 216.599 166.21 216.532C159.382 216.33 149.347 216.181 143.018 214.114C142.067 213.045 140.11 206.723 139.506 205.084C140.458 201.51 141.975 198.029 143.145 194.516C144.853 189.388 154.574 159.297 153.713 155.889C153.468 154.918 152.469 154.149 151.675 153.622C145.623 153.128 139.416 153.606 133.336 153.46L133.349 150.791Z" fill="#F6F6F5"/>
<path d="M71.6015 150.756C80.3771 150.664 89.1869 150.613 97.9616 150.742C98.9501 150.737 100.929 150.388 101.7 151.049C101.755 151.415 101.746 151.712 101.702 152.079C101.744 155.503 101.76 158.927 101.747 162.351C101.747 163.993 101.631 165.729 101.765 167.363L101.763 173.178C101.757 174.778 101.466 178.757 101.861 180.076L102.008 180.167C101.67 180.652 101.833 181.257 101.8 181.84L101.87 182.675C102.82 182.614 103.803 182.466 104.748 182.444C104.055 184.302 103.252 186.221 102.764 188.146C102.452 188.996 102.101 189.868 101.947 190.763C101.484 193.442 101.64 198.935 101.872 201.72C101.837 203.553 101.853 205.42 101.691 207.246C101.567 208.153 101.742 217.335 101.935 217.992L102.126 218.128C102.033 218.617 101.931 219.096 101.795 219.575C102.448 220.033 102.649 220.819 103.25 221.307C103.788 223.097 103.338 227.736 103.533 230.04C104.256 230.061 105.005 230.125 105.726 230.095C106.474 230.239 107.348 230.315 107.98 230.753C108.191 231.14 108.313 231.35 108.209 231.815C108.086 232.362 107.818 232.954 107.621 233.482C105.724 233.467 103.79 233.525 101.903 233.337C101.329 232.935 100.748 232.541 100.207 232.094C98.3094 233.248 97.3201 233.467 95.0676 233.367C89.3445 233.666 83.5395 233.257 77.8007 233.411C77.0307 234.42 75.9467 235.353 74.7252 235.747C73.1859 236.244 63.2893 236.207 61.3492 235.99C60.5073 235.895 59.6399 235.695 58.8872 235.296C56.3756 233.964 56.7234 227.353 55.9655 224.81C55.9518 224.764 55.9364 224.718 55.9222 224.673C55.7182 223.471 55.6872 222.24 55.6175 221.025C55.4687 219.433 54.9807 217.867 54.8953 216.276C54.8596 215.61 54.9422 214.895 55.4344 214.4C56.4426 213.387 58.6144 213.7 59.9339 213.748C60.1944 212.506 60.1787 211.302 60.0563 210.045C59.9295 210.025 59.8035 210.002 59.6764 209.985C59.1019 209.904 58.5999 209.821 58.0498 209.618C55.0152 208.495 52.4002 206.473 51.0392 203.483C49.664 200.462 49.3464 195.189 50.5328 192.081C51.3897 191.413 52.5256 190.709 53.6532 190.8C58.8041 191.216 55.6551 199.217 58.1209 202.023C58.6084 202.578 59.1543 202.713 59.8661 202.739C59.896 202.7 59.9314 202.664 59.9559 202.621C60.3901 201.862 60.2537 189.632 59.977 188.142C60.652 185.958 60.1345 183.149 60.2537 180.864C60.3709 178.617 61.2531 177.016 62.9045 175.532C61.6731 174.726 59.7475 173.912 58.8664 172.743C60.3635 173.283 61.6012 174.393 63.0988 174.955L63.2509 175.01C67.4248 173.903 67.3943 173.754 71.4711 175.368L71.6506 175.209C71.4972 172.036 71.6064 168.81 71.6037 165.632C71.6001 161.449 71.5192 157.252 71.6193 153.071L71.6015 150.756Z" fill="#A8BDAB"/>
<path d="M62.9045 175.532C61.6731 174.726 59.7475 173.912 58.8664 172.742C60.3635 173.283 61.6012 174.392 63.0988 174.954L63.2509 175.01C67.4248 173.902 67.3943 173.753 71.4711 175.368L71.6506 175.208C71.6564 175.241 71.6611 175.273 71.6682 175.306C71.9405 176.514 73.2336 177.47 73.624 178.8C74.3714 181.347 73.9424 187.271 73.9413 190.117C73.941 190.909 73.6857 193.682 74.1579 194.218C74.9756 194.186 75.8647 193.672 76.4051 193.077C79.3134 189.879 75.4142 182.119 81.1149 181.681C81.8582 181.624 82.5692 181.847 83.1083 182.369C84.7736 183.986 84.4434 187.197 84.4019 189.304C84.3385 192.526 83.4319 195.643 81.0649 197.94C79.1539 199.795 76.4968 200.753 73.9298 201.268C73.9374 202.887 73.7239 212.854 74.0019 213.517C74.0404 213.609 74.1422 213.658 74.2122 213.728L75.118 213.862L65.0688 213.875C63.434 213.874 61.5271 214.061 59.9339 213.747C60.1944 212.506 60.1787 211.301 60.0563 210.045C59.9295 210.025 59.8035 210.002 59.6764 209.984C59.1019 209.904 58.5999 209.82 58.0498 209.617C55.0152 208.494 52.4002 206.472 51.0392 203.483C49.664 200.462 49.3464 195.189 50.5328 192.081C51.3897 191.412 52.5256 190.708 53.6532 190.799C58.8041 191.216 55.6551 199.217 58.1209 202.022C58.6084 202.577 59.1543 202.713 59.8661 202.739C59.896 202.699 59.9314 202.663 59.9559 202.62C60.3901 201.862 60.2537 189.632 59.977 188.142C60.652 185.957 60.1345 183.148 60.2537 180.863C60.3709 178.616 61.2531 177.016 62.9045 175.532Z" fill="#E7DFD1"/>
<path d="M70.2073 178.096C70.5891 178.126 70.8326 178.126 71.1365 178.391C71.4615 179.064 71.2814 179.923 71.2276 180.651C70.8422 180.622 70.6089 180.621 70.3042 180.351C69.9858 179.667 70.1543 178.832 70.2073 178.096Z" fill="#E0E1DE"/>
<path d="M66.187 191.684C66.6256 191.774 66.7396 191.778 67.081 192.089C67.3415 192.784 67.168 193.57 67.0937 194.294C66.7947 194.315 66.6361 194.328 66.3679 194.185C66.022 193.431 66.1738 192.502 66.187 191.684Z" fill="#E0E1DE"/>
<path d="M68.8729 198.669C69.2177 198.722 69.3524 198.76 69.6039 199.006C69.9272 199.837 69.7474 200.629 69.5723 201.471C69.2393 201.364 69.1762 201.33 68.9368 201.077C68.6698 200.3 68.8092 199.472 68.8729 198.669Z" fill="#E0E1DE"/>
<path d="M63.0204 181.671C63.3981 181.727 63.5496 181.76 63.8507 182.019C64.1403 182.685 63.9891 183.427 63.929 184.133C63.6375 184.151 63.4673 184.15 63.1963 184.036C62.8066 183.371 62.991 182.422 63.0204 181.671Z" fill="#E0E1DE"/>
<path d="M68.3564 184.584C68.5996 184.667 68.7341 184.792 68.9225 184.964C69.1772 185.747 69.1511 186.595 68.8489 187.361C68.5714 187.283 68.4437 187.191 68.2326 186.997C67.9689 186.205 68.0131 185.344 68.3564 184.584Z" fill="#E0E1DE"/>
<path d="M80.2386 192.972C80.613 193.038 80.7176 193.044 81.0217 193.291C81.316 193.993 81.1167 194.85 81.0341 195.586C80.6676 195.499 80.5765 195.497 80.3014 195.223C80.0283 194.505 80.1771 193.723 80.2386 192.972Z" fill="#E0E1DE"/>
<path d="M63.1312 199.159C63.4343 199.237 63.5773 199.321 63.812 199.527C64.1457 200.265 63.9854 200.93 63.8433 201.695C63.566 201.676 63.4175 201.641 63.1768 201.502C62.8254 200.73 63.0146 199.967 63.1312 199.159Z" fill="#E0E1DE"/>
<path d="M71.949 189.791C72.3298 189.839 72.4319 189.821 72.7322 190.076C72.9916 190.81 72.7753 191.622 72.6671 192.376C72.3816 192.319 72.2622 192.243 72.0437 192.051C71.7731 191.331 71.9021 190.546 71.949 189.791Z" fill="#E0E1DE"/>
<path d="M71.3453 204.702C71.6687 204.778 71.7521 204.787 71.9912 205.01C72.2361 205.741 72.0571 206.577 71.9745 207.328C71.708 207.262 71.5962 207.176 71.3972 206.99C71.1373 206.249 71.277 205.467 71.3453 204.702Z" fill="#E0E1DE"/>
<path d="M63.7988 209.225C63.997 209.309 64.1496 209.424 64.325 209.547C64.6003 210.297 64.4485 210.985 64.2684 211.741C64.0365 211.683 63.9209 211.586 63.7403 211.433C63.4774 210.67 63.549 209.981 63.7988 209.225Z" fill="#E0E1DE"/>
<path d="M79.0627 183.902C79.3737 183.939 79.5137 183.973 79.7596 184.169C80.0278 184.835 79.8636 185.57 79.7909 186.267C79.5211 186.218 79.4736 186.175 79.26 185.997C78.9803 185.326 79.0525 184.617 79.0627 183.902Z" fill="#F6F6F5"/>
<path d="M55.6181 221.025C55.4694 219.434 54.9813 217.867 54.896 216.276C54.8603 215.61 54.9429 214.895 55.4351 214.4C56.4433 213.387 58.6151 213.7 59.9345 213.748C61.5277 214.062 63.4346 213.875 65.0695 213.875L75.1187 213.862C76.6616 213.805 78.2062 213.818 79.748 213.9C79.8356 216.323 79.4593 218.618 79.0991 221.001C78.9138 222.219 78.6811 223.451 78.5433 224.675C78.2888 227.583 77.9641 230.497 77.8013 233.411C77.0314 234.421 75.9474 235.353 74.7259 235.747C73.1865 236.244 63.29 236.207 61.3498 235.99C60.508 235.895 59.6406 235.695 58.8879 235.296C56.3763 233.964 56.7241 227.353 55.9662 224.81C55.9525 224.764 55.9371 224.719 55.9228 224.673C55.7189 223.472 55.6879 222.241 55.6181 221.025Z" fill="#F6F6F5"/>
<path d="M97.9623 150.742C98.9508 150.737 100.93 150.388 101.701 151.049C101.755 151.415 101.747 151.712 101.702 152.079C101.745 155.503 101.76 158.927 101.748 162.351C101.748 163.993 101.632 165.729 101.766 167.363L101.764 173.178C101.757 174.778 101.467 178.757 101.862 180.076L102.009 180.167C101.671 180.652 101.834 181.257 101.801 181.84L101.87 182.675C102.82 182.614 103.804 182.466 104.749 182.444C104.055 184.302 103.253 186.221 102.765 188.146C102.453 188.996 102.102 189.868 101.947 190.763C101.485 193.442 101.64 198.935 101.872 201.72C101.838 203.553 101.854 205.42 101.692 207.246C101.568 208.153 101.743 217.335 101.935 217.992L102.127 218.128C102.033 218.617 101.932 219.096 101.796 219.575C102.449 220.033 102.65 220.819 103.251 221.307C103.789 223.097 103.338 227.736 103.533 230.04C104.256 230.061 105.006 230.125 105.727 230.095C106.475 230.239 107.348 230.315 107.981 230.753C108.192 231.14 108.314 231.35 108.209 231.815C108.086 232.362 107.819 232.954 107.621 233.482C105.724 233.467 103.791 233.525 101.904 233.337C101.329 232.935 100.748 232.541 100.207 232.094C98.3101 233.248 97.3209 233.467 95.0684 233.367C95.134 233.146 97.4328 230.857 97.9225 230.031C98.2366 221.529 97.9667 212.915 97.9659 204.401L97.9632 155.434L97.9623 150.742Z" fill="#E7DFD1"/>
<path d="M101.869 182.675C102.819 182.614 103.802 182.466 104.748 182.444C104.054 184.303 103.251 186.222 102.764 188.146L102.404 188.355L102.164 188.28C101.488 187.333 101.873 183.928 101.869 182.675Z" fill="#F6F6F5"/>
<path d="M71.6016 150.756C80.3771 150.664 89.187 150.612 97.9617 150.742L97.9625 155.433C94.6749 155.256 91.3494 155.348 88.0563 155.348L71.7484 155.353C71.7352 154.591 71.6732 153.831 71.6194 153.071L71.6016 150.756Z" fill="#70917E"/>
<path d="M105.122 142.137C107.451 142.738 110.156 142.463 112.555 142.46C116.144 142.457 119.735 142.421 123.324 142.465C122.417 142.735 121.892 143.123 121.454 143.978C120.774 145.309 120.827 147.17 121.323 148.555C121.681 149.555 122.291 150.183 123.183 150.731C126.079 150.776 128.976 150.784 131.872 150.755L131.911 153.479L133.188 153.463L133.335 153.461C139.414 153.606 145.622 153.128 151.673 153.622C152.468 154.15 153.466 154.919 153.712 155.889C154.573 159.298 144.851 189.388 143.143 194.516C141.973 198.029 140.457 201.511 139.505 205.084C138.994 205.869 137.189 211.155 137.239 211.979C135.623 215.118 134.89 218.617 133.17 221.704C132.782 221.052 132.434 220.328 131.848 219.833L131.595 219.88L131.493 219.474C131.655 217.343 131.816 215.223 132.06 213.1C128.542 212.845 123.188 212.556 119.986 211.193C118.977 212.669 118.859 221.782 118.647 223.966C118.343 227.093 117.668 230.263 117.604 233.403L113.079 233.375C113.479 231.08 113.444 228.759 113.681 226.45C114.297 220.445 114.987 214.153 115.297 208.135L113.287 207.556C112.091 208.881 110.895 210.178 109.896 211.661C107.899 214.626 105.815 218.902 103.25 221.308C102.649 220.82 102.447 220.034 101.795 219.576C101.931 219.097 102.032 218.618 102.126 218.129L101.934 217.993C102.854 216.938 105.68 209.077 106.214 207.329C104.697 207.09 103.213 207.134 101.69 207.247C101.853 205.421 101.836 203.554 101.871 201.72C101.639 198.936 101.484 193.443 101.946 190.764C102.101 189.869 102.451 188.997 102.764 188.146C103.251 186.222 104.054 184.303 104.748 182.445C103.802 182.467 102.819 182.615 101.869 182.676L101.799 181.841C101.832 181.258 101.67 180.653 102.007 180.168L101.861 180.077C101.466 178.758 101.756 174.779 101.763 173.179L101.765 167.363C101.631 165.73 101.747 163.994 101.746 162.351C101.759 158.927 101.744 155.503 101.701 152.08C101.746 151.712 101.754 151.416 101.699 151.05C100.929 150.389 98.9496 150.737 97.9611 150.743C89.1864 150.614 80.3765 150.665 71.601 150.757C68.8201 150.773 66.0142 150.867 63.2372 150.712C62.8502 150.483 62.4272 150.252 62.0931 149.949C61.364 149.286 61.0187 148.569 60.9583 147.586C60.8776 146.27 60.7868 144.26 61.7766 143.248C62.2647 142.749 63.0003 142.687 63.6618 142.613C66.536 142.294 69.6175 142.506 72.5115 142.506L89.0077 142.477L93.8736 142.471C96.8195 142.486 102.537 142.885 105.122 142.137Z" fill="#ED5F1F"/>
<path d="M115.819 202.782C117.249 200.473 119.462 196.368 121.335 194.63C120.86 196.938 120.62 199.288 120.62 201.645L133.041 201.642L133.016 201.771C132.997 203.547 132.815 205.323 132.67 207.092L132.586 207.199C132.504 209.17 132.426 211.156 132.061 213.099C128.544 212.843 123.19 212.555 119.987 211.191C118.978 212.668 118.86 221.781 118.648 223.964C118.344 227.092 117.669 230.261 117.606 233.401L113.08 233.373C113.48 231.079 113.445 228.758 113.682 226.448C114.298 220.444 114.988 214.152 115.298 208.134L115.499 207.057C115.577 205.651 115.977 204.183 115.819 202.782Z" fill="#B68E68"/>
<path d="M120.549 201.772C124.695 201.873 128.867 201.804 133.015 201.771C132.996 203.547 132.814 205.323 132.669 207.093C128.506 206.967 124.314 207.062 120.148 207.074C120.308 205.309 120.442 203.541 120.549 201.772Z" fill="#87593F"/>
<path d="M120.164 207.213L132.584 207.2C132.503 209.17 132.425 211.157 132.06 213.099C128.543 212.844 123.189 212.556 119.986 211.192L119.797 211.013C119.894 209.744 120.017 208.477 120.164 207.213Z" fill="#F6F6F5"/>
<path d="M110.195 180.207C111.451 180.088 112.748 180.231 114.01 180.248C114.928 180.223 115.852 180.179 116.77 180.215C115.994 182.294 108.714 201.394 108.407 201.667L108.352 201.86C107.763 203.733 106.772 205.482 106.215 207.328C104.698 207.089 103.214 207.133 101.691 207.246C101.854 205.42 101.837 203.553 101.872 201.719C101.64 198.935 101.485 193.442 101.947 190.763C102.102 189.867 102.452 188.996 102.765 188.145C103.253 186.221 104.055 184.302 104.749 182.444L104.944 181.646C105.081 181.176 105.238 180.712 105.387 180.246C106.746 180.126 108.224 180.107 109.581 180.26L110.195 180.207Z" fill="#F6F6F5"/>
<path d="M105.387 180.246C106.746 180.126 108.224 180.107 109.581 180.26L110.195 180.207L109.658 181.327C108.903 183.2 108.332 185.172 107.651 187.078C105.915 191.937 104.184 196.823 102.373 201.654C104.375 201.654 106.409 201.576 108.407 201.667L108.352 201.86C107.763 203.733 106.772 205.482 106.215 207.328C104.698 207.089 103.214 207.133 101.691 207.246C101.854 205.42 101.837 203.553 101.872 201.719C101.64 198.935 101.485 193.442 101.947 190.763C102.102 189.867 102.452 188.996 102.765 188.145C103.253 186.221 104.055 184.302 104.749 182.444L104.944 181.646C105.081 181.176 105.238 180.712 105.387 180.246Z" fill="#B68E68"/>
<path d="M101.87 201.719C103.978 201.942 106.306 201.472 108.35 201.86C107.761 203.734 106.77 205.483 106.213 207.328C104.696 207.089 103.212 207.133 101.689 207.246C101.852 205.42 101.835 203.553 101.87 201.719Z" fill="#87593F"/>
<path d="M110.196 180.208C111.452 180.089 112.748 180.232 114.01 180.249C112.489 180.51 111.234 181.347 109.658 181.328L110.196 180.208Z" fill="#E0E1DE"/>
<path d="M121.335 194.631L121.41 194.42C122.347 191.767 125.851 187.17 127.567 184.597C128.875 187.804 130.017 191.145 131.165 194.417C131.818 196.279 132.601 198.184 133.079 200.093C133.115 200.62 133.187 201.127 133.04 201.642L120.619 201.645C120.619 199.289 120.859 196.938 121.335 194.631Z" fill="#F6F6F5"/>
<path d="M101.765 167.362C103.845 170.56 106.427 172.73 110.244 173.514C112.895 174.058 115.279 173.611 117.888 173.771C118.25 173.793 118.578 173.864 118.884 174.063C118.892 175.185 117.404 179.237 116.77 180.215C115.851 180.179 114.927 180.223 114.009 180.248C112.748 180.231 111.451 180.088 110.195 180.207L109.581 180.26C108.224 180.107 106.746 180.126 105.387 180.246C105.237 180.712 105.081 181.176 104.944 181.646L104.749 182.444C103.803 182.465 102.82 182.613 101.87 182.675L101.8 181.84C101.833 181.257 101.67 180.652 102.008 180.167L101.861 180.076C101.466 178.757 101.757 174.778 101.764 173.178L101.765 167.362Z" fill="black"/>
<path d="M101.764 173.179C101.83 173.631 101.823 174.096 102.101 174.463C104.753 174.757 107.438 174.244 110.063 174.853C110.741 175.474 111.603 176.186 111.608 177.19C111.616 178.619 110.286 179.255 109.581 180.261C108.224 180.108 106.746 180.127 105.387 180.247C105.237 180.713 105.081 181.177 104.944 181.647L104.749 182.445C103.803 182.466 102.82 182.614 101.87 182.676L101.8 181.841C101.833 181.258 101.67 180.653 102.008 180.168L101.861 180.077C101.466 178.758 101.757 174.779 101.764 173.179Z" fill="#DFDFDF"/>
<path d="M102.006 180.167C103.127 180.191 104.267 180.17 105.385 180.246C105.235 180.712 105.079 181.177 104.942 181.646L104.747 182.444C103.801 182.466 102.818 182.614 101.868 182.675L101.798 181.841C101.831 181.257 101.668 180.652 102.006 180.167Z" fill="#F6F6F5"/>
<path d="M101.801 181.84C102.849 181.807 103.898 181.716 104.944 181.646L104.749 182.443C103.804 182.465 102.821 182.613 101.871 182.675L101.801 181.84Z" fill="#E0E1DE"/>
<path d="M123.184 150.731C126.08 150.776 128.976 150.784 131.872 150.755L131.911 153.479C128.364 153.736 124.628 153.513 121.06 153.511L101.715 153.577C101.862 153.061 102.051 152.557 102.229 152.051C102.323 151.652 102.441 151.264 102.56 150.873C103.285 150.504 120.64 150.747 123.184 150.731Z" fill="#70917E"/>
<path d="M130.238 180.274L130.559 180.248C132.111 183.11 132.733 186.746 134.181 189.798C134.489 190.732 133.593 199.167 133.154 199.972C133.131 200.013 133.104 200.052 133.079 200.093C132.601 198.184 131.817 196.279 131.164 194.417C130.017 191.145 128.875 187.803 127.566 184.596C128.307 183.101 129.218 181.597 130.238 180.274Z" fill="#B68E68"/>
<path d="M130.561 180.249C132.089 180.178 133.607 180.183 135.137 180.208C134.988 181.727 134.546 189.058 134.182 189.799C132.735 186.746 132.113 183.111 130.561 180.249Z" fill="#F6F6F5"/>
<path d="M133.828 174.518L135.672 174.475C135.607 176.413 135.513 178.299 135.135 180.209C133.605 180.184 132.087 180.178 130.558 180.249L130.236 180.275C131.018 178.497 132.6 176.012 133.828 174.518Z" fill="#FEB952"/>
<path d="M115.819 202.783C115.977 204.184 115.577 205.652 115.499 207.058L113.084 207.036C113.768 205.587 114.806 204.027 115.819 202.783Z" fill="#87593F"/>
<path d="M133.83 174.518C134.229 173.922 134.576 173.285 135.19 172.892L135.503 172.911C135.772 173.411 135.707 173.912 135.674 174.475L133.83 174.518Z" fill="#F6F6F5"/>
<path d="M152.262 98.9276C154.477 98.6517 156.99 98.9144 159.246 98.9408C164.581 99.0028 169.922 98.9498 175.258 98.9498C177.77 98.9498 180.653 99.2232 183.124 98.8927C183.244 98.6792 183.341 98.4944 183.406 98.2578C183.583 98.5485 183.685 98.9015 184.04 98.977C187.146 99.6377 192.333 97.4744 194.49 100.595C194.991 101.32 195.114 102.293 195.151 103.156C195.262 105.776 194.833 108.553 194.704 111.182L194.246 120.586C194.139 122.871 194.155 125.422 193.673 127.654C193.499 128.463 193.209 129.347 192.47 129.801C191.832 130.193 191.01 130.453 190.276 130.585C189.123 130.792 183.869 131.024 182.828 130.696C182.393 130.559 182.346 130.102 182.209 129.715C182.2 129.69 182.192 129.664 182.184 129.638C181.968 129.771 181.798 129.867 181.617 130.044C182.53 133.17 183.263 136.404 184.292 139.484C183.787 140.786 183.325 141.437 182.019 142.016C181.87 142.083 181.72 142.147 181.569 142.207C178.679 142.808 175.268 142.432 172.305 142.46C169.282 142.513 166.258 142.532 163.234 142.516C161.729 142.514 160.17 142.591 158.674 142.45L158.426 142.426C157.06 142.744 154.288 142.762 152.944 142.437L152.809 142.184C152.686 141.436 152.489 140.879 152.069 140.241L151.988 139.953C152.388 139.505 157.286 139.737 158.23 139.665L158.436 139.649C160.149 139.641 166.938 139.296 168.064 139.803L168.357 140.225C168.996 140.214 169.277 139.534 169.972 139.388C170.141 139.62 170.259 139.797 170.504 139.956L170.65 139.642C170.614 138.945 170.241 138.179 169.85 137.604C169.664 137.331 169.469 137.374 169.16 137.315L169.623 137.158C169.937 136.255 168.341 131.722 167.999 130.669C164.079 130.716 160.159 130.736 156.238 130.73C154.204 130.733 151.987 130.917 149.974 130.643C148.517 130.049 147.719 129.298 146.831 128.012C146.629 122.325 147.491 116.445 147.928 110.774C148.152 107.869 148.033 104.811 148.528 101.945C148.641 101.29 148.843 100.777 149.286 100.269C150.085 99.3525 151.106 99.0473 152.262 98.9276Z" fill="#A8BDAB"/>
<path d="M165.657 116.979C166.566 115.556 167.298 114.947 168.971 114.577C169.195 114.528 169.419 114.481 169.644 114.438C168.945 115.116 168.215 115.776 167.651 116.576C167.577 118.333 167.49 120.118 167.696 121.869C168.102 125.321 169.354 128.891 170.365 132.212C171.211 134.989 171.992 137.874 172.574 140.719L171.827 142.297C168.954 142.361 166.08 142.377 163.207 142.344C161.764 142.341 160.096 142.209 158.672 142.451L158.424 142.426C157.058 142.744 154.286 142.763 152.942 142.437L152.807 142.185C152.684 141.437 152.487 140.88 152.068 140.241L151.986 139.953C152.387 139.506 157.284 139.738 158.228 139.666L158.434 139.649C160.148 139.641 166.936 139.297 168.063 139.803L168.355 140.226C168.994 140.214 169.275 139.534 169.97 139.389C170.139 139.621 170.257 139.798 170.503 139.956L170.648 139.642C170.612 138.945 170.239 138.18 169.848 137.604C169.662 137.331 169.467 137.374 169.158 137.316L169.621 137.159C169.935 136.256 168.339 131.722 167.998 130.669C167.584 127.473 166.132 124.444 165.688 121.247C165.491 119.828 165.58 118.403 165.657 116.979Z" fill="#70917E"/>
<path d="M158.434 139.649C160.148 139.641 166.936 139.297 168.063 139.803L168.022 140.272C166.548 140.82 160.4 140.438 158.39 140.419C158.4 141.085 158.388 141.761 158.424 142.426C157.058 142.744 154.286 142.763 152.942 142.437L152.807 142.185C152.684 141.436 152.487 140.88 152.068 140.241L151.986 139.953C152.387 139.505 157.284 139.737 158.228 139.666L158.434 139.649Z" fill="#F6F6F5"/>
<path d="M146.831 128.013C146.629 122.326 147.491 116.446 147.928 110.775C148.152 107.87 148.033 104.812 148.528 101.946C148.641 101.291 148.843 100.779 149.286 100.27C150.085 99.3536 151.106 99.0484 152.262 98.9287L152.476 99.1049C152.156 100.045 151.13 100.389 150.873 101.473C150.856 101.545 150.837 101.616 150.819 101.688C150.545 102.822 150.577 104.106 150.481 105.27C150.197 108.723 149.988 112.152 149.798 115.612C149.609 119.061 149.056 123.879 149.305 127.2C149.359 127.925 149.547 128.643 149.956 129.252C150.252 129.691 151.974 130.44 151.96 130.525L149.974 130.644C148.517 130.05 147.719 129.299 146.831 128.013Z" fill="#70917E"/>
<path d="M181.616 130.045C180.869 127.277 179.857 124.438 179.376 121.619C179.09 119.941 179.542 117.983 179.029 116.415C177.262 114.177 172.705 115.578 170.237 115.116L170.051 114.822L170.138 114.586C170.33 114.508 170.502 114.443 170.706 114.405C172.25 114.121 177.556 114.066 178.736 114.925C179.394 115.403 179.801 116.151 180.014 116.92C180.449 118.494 180.099 120.239 180.361 121.853C180.791 124.504 181.842 126.968 182.183 129.639C181.967 129.771 181.797 129.868 181.616 130.045Z" fill="#E0E1DE"/>
<path d="M177.806 135.452C177.339 135.67 176.861 135.929 176.33 135.833C175.801 135.737 175.351 135.408 175.069 134.955C174.641 134.266 174.587 133.361 174.829 132.599C175.004 132.049 175.398 131.519 175.94 131.288C176.522 131.039 177.056 131.21 177.622 131.409C178.035 131.274 178.257 131.214 178.674 131.386C179.146 131.58 179.442 132.139 179.568 132.604C179.77 133.347 179.736 134.372 179.304 135.033C179.117 135.32 178.838 135.546 178.49 135.596C178.226 135.634 178.036 135.581 177.806 135.452Z" fill="#F6F6F5"/>
<path d="M177.623 131.41C178.035 131.275 178.258 131.215 178.675 131.387C179.147 131.581 179.442 132.14 179.569 132.605C179.771 133.348 179.736 134.373 179.305 135.034C179.118 135.321 178.839 135.547 178.491 135.597C178.227 135.635 178.037 135.582 177.807 135.453C177.87 135.395 177.933 135.337 177.994 135.277C178.47 134.801 178.852 134.179 178.83 133.485C178.803 132.593 178.204 132.006 177.623 131.41Z" fill="#70917E"/>
<path d="M160.264 105.364L160.871 105.619C161.26 106.307 160.29 118.968 159.996 120.276C159.6 120.21 159.471 120.264 159.231 119.928C159.051 117.688 159.672 107.335 160.264 105.364Z" fill="#C2C6BE"/>
<path d="M189.613 105.392C189.849 105.477 190.026 105.598 190.231 105.741C190.336 106.381 189.567 119.248 189.293 120.171L188.831 120.064C188.498 119.718 188.573 119.375 188.566 118.91C188.532 116.489 188.74 108.098 189.227 106.052C189.29 105.786 189.425 105.584 189.613 105.392Z" fill="#C2C6BE"/>
<path d="M156.52 105.535L156.954 105.696C157.435 106.862 156.756 119.136 156.299 120.397C156.023 120.317 155.821 120.213 155.574 120.071C155.126 118.346 156.178 107.491 156.52 105.535Z" fill="#C2C6BE"/>
<path d="M187.372 105.394C187.729 105.473 187.943 105.52 188.216 105.787C188.357 106.748 187.628 119.61 187.392 120.339C187.026 120.285 186.852 120.253 186.547 120.021C186.355 118.304 186.804 116.306 186.897 114.559C187.06 111.493 186.907 108.444 187.372 105.394Z" fill="#C2C6BE"/>
<path d="M185.904 105.449C185.971 105.493 186.044 105.529 186.105 105.58C186.245 105.697 186.293 105.892 186.318 106.064C186.473 107.13 185.9 119.375 185.631 120.004C185.572 120.144 185.399 120.321 185.306 120.448C185.163 120.359 184.97 120.258 184.887 120.104C184.367 119.142 185.294 106.951 185.904 105.449Z" fill="#C2C6BE"/>
<path d="M158.344 105.393C158.703 105.499 158.782 105.517 159.036 105.786C159.117 106.544 158.34 119.944 158.313 120.005C158.248 120.153 158.121 120.265 158.024 120.395C157.675 120.223 157.588 120.21 157.385 119.863C157.399 118.248 157.585 116.642 157.658 115.029C157.782 112.279 157.444 107.878 158.344 105.393Z" fill="#C2C6BE"/>
<path d="M162.029 105.645L162.674 105.919C162.913 106.4 162.216 118.839 161.958 120.388C161.674 120.338 161.456 120.269 161.195 120.147C160.891 119.291 161.686 107.364 162.029 105.645Z" fill="#C2C6BE"/>
<path d="M154.718 105.393C154.972 105.554 155.114 105.589 155.199 105.895C155.532 107.097 154.831 119.15 154.223 120.308L153.917 120.069C153.293 117.794 154.081 107.949 154.718 105.393Z" fill="#C2C6BE"/>
<path d="M191.249 105.566C191.407 105.632 191.559 105.734 191.708 105.819C192.16 107.284 191.505 118.877 190.985 120.373C190.741 120.311 190.585 120.219 190.377 120.078C190.126 118.796 190.91 107.08 191.249 105.566Z" fill="#C2C6BE"/>
<path d="M183.827 105.376C184.095 105.439 184.271 105.534 184.502 105.679C184.919 107.488 183.841 117.3 183.72 120.005C183.449 120.083 183.458 120.081 183.204 119.955C182.782 115.833 183.177 109.56 183.827 105.376Z" fill="#C2C6BE"/>
<path d="M140.854 139.626C142.249 140.301 143.386 140.837 144.962 140.896C144.879 141.362 144.694 141.93 144.895 142.376C145.481 142.43 151.996 142.445 152.334 142.385C152.528 142.351 152.649 142.287 152.808 142.185L152.944 142.438C154.287 142.763 157.059 142.744 158.425 142.427L158.673 142.451C160.169 142.592 161.728 142.514 163.233 142.517C166.257 142.533 169.281 142.514 172.304 142.46C175.268 142.432 178.679 142.808 181.568 142.208C183.005 142.965 207.051 142.562 210.424 142.56C212.901 142.558 215.716 142.289 218.147 142.706C218.848 143.21 219.306 143.658 219.789 144.385C219.887 145.844 219.928 147.266 219.773 148.725C219.093 149.523 218.441 150.152 217.539 150.7C212.808 151.077 207.914 150.831 203.162 150.83C203.173 151.844 203.273 152.937 203.172 153.942L203.168 154.791L203.166 197.266L203.16 209.792C203.158 211.943 202.992 214.264 203.225 216.394C203.269 219.509 203.611 227.054 202.994 229.624C202.797 230.446 202.414 231.259 201.82 231.871C200.891 232.827 199.488 233.39 198.157 233.386C197.669 233.384 197.18 233.356 196.693 233.328C196.737 232.942 197.446 232.461 197.726 232.181C198.373 231.532 199.158 230.367 199.292 229.454C199.605 227.309 199.36 224.775 199.36 222.596L199.355 207.597L199.349 155.401C190.706 155.161 181.997 155.337 173.349 155.371L173.303 152.449L173.171 152.404C173.155 151.922 173.225 151.222 172.948 150.818C159.769 150.458 146.529 151.193 133.348 150.79L133.335 153.46L133.188 153.462L131.911 153.478L131.872 150.754C128.976 150.783 126.08 150.775 123.184 150.729C122.291 150.182 121.682 149.554 121.323 148.554C120.827 147.169 120.774 145.308 121.455 143.977C121.892 143.122 122.417 142.734 123.324 142.464C125.343 142.469 127.425 142.562 129.434 142.379C132.536 142.096 137.82 140.637 140.854 139.626Z" fill="#E7DFD1"/>
<path d="M173.301 150.72C181.973 150.761 190.673 150.863 199.343 150.714L199.349 155.401C190.706 155.161 181.997 155.338 173.35 155.371L173.303 152.45L173.301 150.72Z" fill="#70917E"/>
<path d="M131.871 150.755C132.402 150.771 132.616 150.712 133.055 151.028C133.382 151.706 133.22 152.715 133.187 153.463L131.91 153.478L131.871 150.755Z" fill="black"/>
<path d="M91.6043 135.421C93.0141 135.298 94.4214 134.894 95.8112 134.626C97.664 134.269 99.5336 133.978 101.392 133.646C103.484 133.814 105.594 134.122 107.685 134.239C110.913 134.535 114.117 134.976 117.339 135.29C120.661 135.614 124.021 135.8 127.312 136.38C129.263 136.643 131.256 136.783 133.22 136.921C134.613 137.062 136.769 137.584 138.078 137.458C142.256 138.407 146.257 137.227 150.433 137.01C151.454 137.938 152.529 138.757 153.634 139.579C155.211 139.588 156.871 139.493 158.436 139.65L158.23 139.666C157.286 139.738 152.389 139.506 151.988 139.954L152.07 140.242C152.489 140.88 152.686 141.437 152.809 142.185C152.65 142.287 152.529 142.352 152.335 142.386C151.997 142.445 145.482 142.43 144.896 142.377C144.695 141.93 144.88 141.363 144.962 140.896C143.387 140.837 142.25 140.301 140.855 139.626C137.821 140.637 132.537 142.096 129.435 142.379C127.425 142.563 125.344 142.469 123.325 142.464C119.736 142.42 116.145 142.456 112.556 142.46C110.157 142.462 107.452 142.737 105.123 142.136C102.538 142.884 96.8205 142.486 93.8746 142.47C93.8727 140.92 93.8908 139.37 93.9287 137.821C93.1604 137.22 91.3619 136.511 91.127 135.548L91.6043 135.421Z" fill="#B2422E"/>
<path d="M93.9273 137.82C97.5723 139.861 101.126 141.006 105.122 142.135C102.537 142.884 96.819 142.485 93.8732 142.469C93.8713 140.92 93.8894 139.37 93.9273 137.82Z" fill="black"/>
<path d="M147.981 139.453C148.184 140.002 148.393 140.593 148.799 141.029C149.05 141.299 149.187 141.353 149.545 141.345C150.318 140.573 148.926 139.398 149.015 138.484C149.629 138.639 150.258 139.745 150.666 140.258C151.05 140.743 151.268 140.948 151.879 141.017C152.145 140.74 152.072 140.616 152.069 140.242C152.489 140.88 152.685 141.437 152.808 142.185C152.649 142.287 152.528 142.352 152.334 142.386C151.997 142.445 145.481 142.43 144.895 142.377C144.694 141.93 144.879 141.363 144.962 140.896C145.076 140.849 145.19 140.801 145.305 140.757C146.249 140.401 147.097 139.934 147.981 139.453Z" fill="#A8BDAB"/>
<path d="M135.295 135.354C137.692 134.697 140.319 134.113 142.815 134.143C145.089 134.17 147.376 134.78 149.593 135.231C152.884 135.902 156.213 136.522 159.521 137.106C160.919 137.352 162.364 137.751 163.782 137.807C165.568 137.879 167.395 137.575 169.159 137.317C169.468 137.375 169.663 137.332 169.849 137.605C170.24 138.181 170.613 138.946 170.649 139.643L170.503 139.957C170.258 139.799 170.14 139.622 169.971 139.39C169.276 139.535 168.995 140.215 168.356 140.227L168.063 139.804C166.937 139.298 160.148 139.642 158.435 139.65C156.87 139.494 155.21 139.588 153.633 139.58C152.528 138.758 151.452 137.938 150.432 137.01C146.256 137.228 142.255 138.408 138.077 137.458C137.104 136.802 136.144 136.171 135.295 135.354Z" fill="#60281E"/>
<path d="M89.0087 142.475C88.9928 140.22 88.5278 134.698 89.5599 132.895C89.8632 132.366 90.3106 131.946 90.925 131.829C91.3532 131.747 91.7229 131.795 92.0762 132.032C92.1237 132.78 91.2958 133.689 91.0304 134.396C90.8895 134.771 90.8495 134.947 91.029 135.304L91.6043 135.42L91.127 135.547C91.3619 136.51 93.1604 137.219 93.9287 137.82C93.8909 139.37 93.8727 140.92 93.8747 142.469L89.0087 142.475Z" fill="#DFDFDF" fill-opacity="0.992157"/>
<path d="M127.062 131.841C129.048 131.809 130.62 131.653 132.364 132.778C133.172 134.21 133.312 135.3 133.219 136.921C131.255 136.783 129.261 136.643 127.311 136.38C127.25 134.866 127.167 133.353 127.062 131.841Z" fill="black"/>
<path d="M102.83 131.815C104.65 131.825 106.475 131.811 108.294 131.891C108.06 132.649 107.752 133.448 107.684 134.239C105.593 134.123 103.483 133.814 101.391 133.647C101.979 133.081 102.398 132.506 102.83 131.815Z" fill="black"/>
<path d="M203.172 153.942C207.664 153.119 216.006 154.176 220.099 156.292L220.122 156.429C219.431 156.555 218.029 155.708 217.264 155.514C212.945 154.422 207.513 153.604 203.168 154.791L203.172 153.942Z" fill="#E0E1DE"/>
<path d="M235.626 61.4785L238.102 63.6209L239.534 64.8287C238.458 67.1586 237.122 69.4959 236.231 71.8887C236.563 73.825 237.126 75.5974 237.824 77.4282C241 77.8353 244.15 77.7195 247.308 78.0277C247.578 78.4425 247.615 78.8248 247.652 79.3044C247.972 83.4144 247.954 87.551 248.177 91.6665L249.107 108.536C249.171 109.93 249.538 112.421 249.256 113.694C249.213 113.89 249.215 113.872 249.157 114.031C246.724 115.929 243.583 116.985 240.952 118.599C240.825 120.352 240.471 122.115 240.402 123.861C235.312 125.367 225.695 125.296 220.457 124.291C219.27 124.063 218.133 123.579 216.975 123.243C214.667 122.708 211.977 121.949 209.916 120.753C209.995 119.097 210.097 117.443 210.221 115.791L210.194 115.423C209.466 114.666 206.352 114.534 205.191 114.351C206.148 113.386 207.091 112.426 207.965 111.384C207.02 110.483 206.059 109.603 205.233 108.59C205.698 106.381 206.53 104.262 207.15 102.092C208.102 98.7607 208.987 95.4056 209.971 92.0842C211.033 88.5026 212.168 84.974 213.081 81.3461C215.924 80.298 218.633 79.0928 221.4 77.8718C221.26 77.3969 220.951 76.9168 220.724 76.4735C220.507 76.0343 220.232 75.635 220.324 75.1315C220.729 74.6396 221.702 74.5946 222.29 74.3185C222.327 74.3006 222.365 74.282 222.402 74.2639L224.981 73.6707C226.735 73.5167 230.784 72.649 232.345 71.9386C232.987 72.1821 233.501 72.3355 234.2 72.3345C233.679 71.0847 233.754 69.9464 233.815 68.6186C234.32 67.8045 234.906 67.1603 235.575 66.4779C235.035 65.8608 234.451 65.2004 234.169 64.4216C234.21 63.7925 234.405 64.0505 234.685 63.6283C234.88 63.3341 234.748 62.7025 234.875 62.3819C234.977 62.1258 235.435 61.7085 235.626 61.4785Z" fill="#ED5F1F"/>
<path d="M235.625 61.4785L238.101 63.6209L239.533 64.8287C238.457 67.1586 237.121 69.4959 236.231 71.8887C236.562 73.825 237.125 75.5974 237.823 77.4282C238.667 82.2826 247.203 111.239 246.894 112.643C246.238 113.222 241.157 115.572 239.936 116.159C237.565 110.551 235.975 104.926 235.308 98.8596C235.131 97.2532 235.119 95.6247 234.999 94.0126C234.577 88.324 234.309 82.7199 234.414 77.0115C234.434 75.9407 234.789 73.0517 234.199 72.3345C233.678 71.0847 233.754 69.9464 233.815 68.6186C234.319 67.8045 234.905 67.1603 235.574 66.4779C235.035 65.8608 234.45 65.2004 234.168 64.4216C234.209 63.7925 234.405 64.0505 234.684 63.6283C234.879 63.3341 234.747 62.7025 234.875 62.3819C234.977 62.1258 235.434 61.7085 235.625 61.4785Z" fill="#B2422E"/>
<path d="M210.219 115.791L210.391 115.309C211.693 114.999 214.864 115.791 216.404 115.837C216.919 118.239 216.935 120.795 216.973 123.243C214.665 122.709 211.975 121.949 209.914 120.753C209.993 119.098 210.095 117.444 210.219 115.791Z" fill="#B2422E"/>
<path d="M220.725 76.4739C222.556 76.3608 226.018 75.6704 227.658 76.2191C227.21 76.6896 222.335 77.7385 221.4 77.8721C221.26 77.3973 220.951 76.9172 220.725 76.4739Z" fill="#FED788"/>
<path d="M214.97 53.3468C215.064 51.1045 214.552 47.3368 216.361 45.6986C218.57 43.6989 226.92 41.4239 229.911 41.6754C231.539 41.8121 233.023 42.8549 234.033 44.089C234.418 44.5587 234.766 45.061 235.102 45.5666C235.107 44.8271 235.11 44.1222 235.256 43.394L235.435 43.2688C235.832 44.3767 235.688 45.4351 235.582 46.58C236.121 46.1853 237.606 44.7343 238.2 44.7997C237.744 45.7535 236.827 46.4411 236.039 47.1142C238.05 48.5926 240.927 50.4866 241.35 53.1558C241.674 55.1964 240.247 57.2092 239.067 58.7318C238.521 59.4326 237.97 60.1296 237.415 60.8224C237.875 61.2163 238.182 61.4965 238.218 62.1284C238.245 62.6222 238.168 63.1325 238.102 63.6206L235.626 61.4781C235.434 61.7082 234.977 62.1254 234.875 62.3815C234.748 62.7021 234.879 63.3337 234.685 63.628C234.405 64.0501 234.21 63.7921 234.169 64.4213C234.451 65.2 235.035 65.8604 235.575 66.4775C234.905 67.1599 234.32 67.8041 233.815 68.6183C233.754 69.946 233.679 71.0843 234.2 72.3341C233.501 72.3352 232.986 72.1817 232.345 71.9383C230.784 72.6486 226.735 73.5163 224.981 73.6703L222.402 74.2635L222.247 73.4167L222.175 73.1523C221.617 72.6456 219.079 72.8861 218.089 72.4071C216.304 71.5438 214.916 69.5746 214.238 67.7649C212.601 63.3952 213.014 57.5581 214.97 53.3468Z" fill="#B2422E"/>
<path d="M214.969 53.3468C215.063 51.1045 214.551 47.3368 216.36 45.6986C218.569 43.6989 226.919 41.4239 229.91 41.6754C231.538 41.8121 233.022 42.8549 234.032 44.089C234.417 44.5587 234.765 45.061 235.101 45.5666C235.106 44.8271 235.109 44.1222 235.255 43.394L235.434 43.2688C235.831 44.3767 235.687 45.4351 235.581 46.58C236.12 46.1853 237.605 44.7343 238.199 44.7997C237.743 45.7535 236.826 46.4411 236.038 47.1142C238.049 48.5926 240.926 50.4866 241.349 53.1558C241.672 55.1964 240.246 57.2092 239.066 58.7318C238.52 59.4326 237.969 60.1296 237.413 60.8224L237.021 61.1891C236.697 60.4719 236.208 59.6777 235.605 59.1573C234.756 58.4233 233.91 58.5029 232.869 58.5757C232.756 58.6462 232.644 58.7173 232.534 58.7922L232.376 58.9012C231.367 59.5863 230.826 60.6044 229.976 61.4455L229.816 61.2772C229.708 59.8671 229.801 58.4746 229.85 57.064C229.325 56.3591 228.424 55.4033 228.134 54.5864C227.792 53.6238 227.97 52.0724 227.24 51.3153C226.653 51.2848 224.746 52.4583 223.944 52.7015C222.139 53.2486 216.54 54.181 214.969 53.3468Z" fill="#43302E"/>
<path d="M232.911 59.7168C234.477 59.9315 235.575 60.6613 237.021 61.1897L237.413 60.823C237.874 61.2169 238.181 61.4972 238.216 62.129C238.244 62.6229 238.167 63.1331 238.1 63.6212L235.624 61.4788C235.433 61.7088 234.976 62.126 234.874 62.3821C234.746 62.7027 234.878 63.3343 234.683 63.6286C234.404 64.0508 234.208 63.7927 234.168 64.4219C234.449 65.2006 235.034 65.8611 235.574 66.4781C234.904 67.1605 234.319 67.8047 233.814 68.6189C233.753 69.9466 233.677 71.0849 234.199 72.3347C233.5 72.3358 232.985 72.1824 232.344 71.9389C231.347 71.5101 230.224 71.2529 229.184 70.9384C230.813 68.3351 232.08 62.8073 232.911 59.7168Z" fill="#E7DFD1"/>
<path d="M229.183 70.9384C229.047 70.7407 229.056 70.7973 229.009 70.5727C228.87 69.9156 231.681 60.5175 232.249 59.7703L232.911 59.7168C232.079 62.8073 230.812 68.3351 229.183 70.9384Z" fill="#A8BDAB"/>
<path d="M222.246 73.4168L222.348 73.0133C222.955 72.7215 223.596 72.626 224.227 72.4051C225.231 72.0532 226.111 71.5335 227.012 70.9785C226.298 71.8294 225.488 72.6784 224.979 73.6705L222.401 74.2636L222.246 73.4168Z" fill="#60281E"/>
<path d="M216.838 65.0991C219.125 65.1669 221.399 65.1391 223.685 65.0908L222.287 66.1501C220.926 67.1781 219.714 67.1459 218.088 67.1287C217.607 66.5171 217.074 65.8449 216.838 65.0991Z" fill="#F6F6F5"/>
<path d="M218.611 59.9111C218.64 59.98 218.675 60.0465 218.699 60.1178C218.907 60.7519 218.608 62.0088 218.303 62.5839C218.082 62.9989 217.889 63.1927 217.457 63.3456L216.826 62.9992C216.703 62.9212 216.579 62.8444 216.462 62.7574C216.176 62.5452 215.939 62.4491 215.891 62.0876C216.338 61.9492 216.796 61.8158 217.229 61.6355C218.077 61.2817 218.28 60.7014 218.611 59.9111Z" fill="#951F33"/>
<path d="M222.847 58.3252C222.986 58.329 223.054 58.3288 223.201 58.3444C223.534 58.3804 223.716 58.4023 223.921 58.6933C224.338 59.2862 223.988 60.6592 223.888 61.3614C223.415 61.2411 223.041 61.1761 222.783 60.7229C222.411 60.0707 222.657 59.0021 222.847 58.3252Z" fill="#43302E"/>
<path d="M215.961 57.1543C216.341 57.2646 216.639 57.2902 216.855 57.6638C217.266 58.3733 216.986 59.5237 216.773 60.2588C216.271 60.1035 216.125 60.0713 215.77 59.6939C215.445 58.8372 215.7 57.9921 215.961 57.1543Z" fill="#43302E"/>
<path d="M223.248 54.6338L223.647 54.7779C224.017 55.3285 226.081 57.5906 226.157 57.8429C226.205 58.007 226.164 58.3359 226.166 58.5179C225.9 58.4962 225.966 58.5275 225.743 58.4202C224.313 57.7279 223.644 56.051 223.248 54.6338Z" fill="#60281E"/>
<path d="M217.44 54.5576C217.77 54.6973 217.821 54.6814 217.983 54.9935C217.479 55.6347 216.32 55.7379 215.562 55.8551C215.344 55.7615 215.212 55.6545 215.027 55.5079L215.045 55.198C215.203 55.1104 215.344 55.047 215.526 55.0286C216.203 54.9608 216.687 54.9545 217.308 54.6306C217.353 54.6076 217.396 54.582 217.44 54.5576Z" fill="#60281E"/>
<path d="M122.725 72.2986C125.551 71.8059 127.974 72.4625 130.316 74.1152C134.354 76.9645 136.509 81.4969 137.723 86.1279C138.711 88.8168 138.534 93.8496 137.167 96.3805C137.088 96.5265 136.986 96.6174 136.865 96.7274L136.543 96.7316L136.358 96.4617L136.426 96.3816C136.818 95.9056 137.037 95.5131 136.947 94.876C136.892 94.4906 136.761 94.0624 136.564 93.7267C136.431 94.8288 136.18 95.5153 135.41 96.3357L133.469 95.5894C132.483 97.2954 131.635 98.4139 129.635 98.9289C128.874 99.1246 128.039 99.1076 127.257 99.1641L126.465 101.899C125.774 104.572 125.302 107.247 124.534 109.921C122.089 107.714 118.481 104.986 115.801 103.008C116.358 101.301 117.634 99.6914 117.959 97.95C118.463 98.0689 119.11 98.0779 119.633 98.1046C120.119 98.1293 120.312 98.0178 120.662 97.6953C120.803 97.182 120.575 96.7409 120.404 96.2589C119.923 95.9657 119.633 95.6673 119.292 95.2218L119.537 95.1933L119.379 94.9581L119.451 94.8233L119.799 95.0939L120.122 94.9775C119.361 94.1598 118.731 93.3517 118.104 92.4242C118.724 91.8258 119.437 91.1349 119.792 90.3383C120.216 89.3889 120.068 88.5366 119.712 87.6077C119.004 86.4565 118.114 85.5589 116.823 85.0856L114.724 84.9706C114.748 83.9083 114.722 82.7055 114.537 81.66L113.857 81.3682C113.795 81.2323 113.763 81.1769 113.722 81.0418C113.006 78.7193 113.85 75.791 114.851 73.6835C117.502 72.5204 119.816 72.014 122.725 72.2986Z" fill="#B2422E"/>
<path d="M122.725 72.2986C125.551 71.8059 127.974 72.4625 130.316 74.1152C134.354 76.9645 136.509 81.4969 137.723 86.1279C138.711 88.8168 138.534 93.8496 137.167 96.3805C137.088 96.5265 136.986 96.6174 136.865 96.7274L136.543 96.7316L136.358 96.4617L136.426 96.3816C136.818 95.9056 137.037 95.5131 136.947 94.876C136.892 94.4906 136.761 94.0624 136.564 93.7267C136.431 94.8288 136.18 95.5153 135.41 96.3357L133.469 95.5894C133.835 95.1049 134.13 94.6687 134.293 94.0772C135.509 89.662 135.044 84.4809 132.784 80.4741C132.205 79.4462 131.364 78.1561 130.164 77.8198C129.808 78.1643 129.481 80.1725 129.246 80.7593L129.167 80.9512C128.134 83.0719 126.964 84.4584 124.852 85.5427C123.22 86.4864 121.41 86.8506 119.712 87.6077C119.004 86.4565 118.114 85.5589 116.823 85.0856L114.724 84.9706C114.748 83.9083 114.722 82.7055 114.537 81.66L113.857 81.3682C113.795 81.2323 113.763 81.1769 113.722 81.0418C113.006 78.7193 113.85 75.791 114.851 73.6835C117.502 72.5204 119.816 72.014 122.725 72.2986Z" fill="#43302E"/>
<path d="M114.851 73.6831C117.502 72.5201 119.816 72.0137 122.725 72.2983C120.67 73.474 118.324 74.4896 117.64 76.9658C117.28 78.2655 117.315 79.7044 117.187 81.0426C117.05 82.4749 116.761 83.6173 116.823 85.0853L114.724 84.9703C114.748 83.908 114.722 82.7052 114.537 81.6596L113.857 81.3679C113.795 81.232 113.763 81.1765 113.722 81.0415C113.006 78.719 113.85 75.7907 114.851 73.6831Z" fill="#A8BDAB"/>
<path d="M137.724 86.1279C138.712 88.8169 138.535 93.8497 137.168 96.3805C137.089 96.5266 136.987 96.6174 136.866 96.7275L136.544 96.7316L136.359 96.4618L136.427 96.3816C136.819 95.9056 137.038 95.5131 136.948 94.876C136.893 94.4906 136.762 94.0624 136.564 93.7267C136.184 92.0485 136.963 88.4812 137.719 86.9802L137.822 87.9725C137.81 87.3579 137.76 86.7417 137.724 86.1279Z" fill="#776A69"/>
<path d="M124.854 85.5418C124.947 84.1583 126.842 82.0966 127.83 81.0909C128.464 80.4456 128.442 80.9476 129.169 80.9504C128.135 83.0711 126.965 84.4575 124.854 85.5418Z" fill="#60281E"/>
<path d="M125.791 95.9438C127.208 95.9046 128.548 95.5988 129.982 95.6246L130.093 97.5578L127.576 97.5919C126.878 97.1214 126.295 96.8291 125.445 96.7028L125.791 95.9438Z" fill="#C2C6BE"/>
<path d="M123.158 97.6709C124.521 98.3794 125.742 98.8757 127.257 99.1633L126.466 101.898C125.559 100.407 124.248 99.0414 123.158 97.6709Z" fill="#60281E"/>
<path d="M119.293 95.2218L119.538 95.1933L119.379 94.958L119.452 94.8232L119.8 95.0939L120.122 94.9775C121.849 95.8542 123.929 95.5904 125.792 95.9443L125.446 96.7032C123.803 96.3376 122.08 96.305 120.404 96.2588C119.924 95.9657 119.634 95.6673 119.293 95.2218Z" fill="#E7DFD1"/>
<path d="M125.984 91.9746C126.846 92.0303 131.127 91.8868 131.561 92.2551C131.573 92.7572 131.343 93.0992 131.108 93.526C130.411 94.021 129.812 94.1104 128.972 93.9776C127.68 93.7731 126.741 92.9944 125.984 91.9746Z" fill="#F6F6F5"/>
<path d="M129.982 88.0078C130.921 88.3685 131.163 89.2167 132.336 89.394C132.394 89.4028 132.452 89.4099 132.51 89.4179L132.641 89.6331L132.287 90.2559C132.056 90.369 131.81 90.5038 131.563 90.5757C131.151 90.6954 130.969 90.5894 130.618 90.3844C130.176 89.7283 130.114 88.7816 129.982 88.0078Z" fill="#951F33"/>
<path d="M131.917 85.0596C131.996 85.0898 132.074 85.1197 132.151 85.1551C132.503 85.3187 132.693 85.5383 132.815 85.9089C133.06 86.656 132.836 87.4702 132.511 88.1531L131.954 87.9777C131.799 87.8138 131.655 87.664 131.576 87.4485C131.296 86.689 131.631 85.77 131.917 85.0596Z" fill="#43302E"/>
<path d="M125.636 86.2139C126.045 86.2531 126.176 86.2973 126.49 86.5622C126.849 87.2893 126.671 87.8729 126.443 88.6182C126.256 88.586 126.03 88.5589 125.859 88.4771C125.625 88.3659 125.469 88.1672 125.384 87.9305C125.175 87.3456 125.397 86.7535 125.636 86.2139Z" fill="#43302E"/>
<path d="M131.642 82.9336C132.178 82.9223 132.618 83.0107 133.089 83.2813C133.387 83.4532 133.478 83.474 133.57 83.8015L133.204 83.9429C132.5 83.9538 131.39 84.0744 130.834 83.6107C131.04 83.2015 131.248 83.154 131.642 82.9336Z" fill="#60281E"/>
<path d="M114.85 73.6826C113.85 75.7902 113.005 78.7185 113.721 81.041C113.763 81.176 113.794 81.2315 113.857 81.3673L114.536 81.6591C114.721 82.7047 114.747 83.9075 114.723 84.9698L116.822 85.0848C118.113 85.558 119.003 86.4556 119.711 87.6068C120.067 88.5357 120.215 89.388 119.792 90.3375C119.436 91.1341 118.724 91.825 118.103 92.4234C118.73 93.3509 119.36 94.159 120.121 94.9767L119.799 95.0931L119.45 94.8224L119.378 94.9572L119.536 95.1925L119.292 95.221C119.632 95.6665 119.923 95.9649 120.403 96.258C120.574 96.74 120.802 97.1812 120.661 97.6945C120.311 98.017 120.119 98.1284 119.632 98.1037C119.11 98.0771 118.462 98.068 117.958 97.9492C117.252 97.9083 116.533 97.8756 115.832 97.7754C111.891 97.2125 107.374 94.9569 104.985 91.7514L104.813 91.0391L104.438 91.0729C104.245 91.114 104.205 91.1039 104.022 91.0539C103.537 89.5766 105.278 84.3179 105.888 82.8674C107.663 78.6455 110.573 75.4133 114.85 73.6826Z" fill="#43302E"/>
<path d="M114.724 84.9707L116.823 85.0857C118.114 85.5589 119.004 86.4565 119.712 87.6078C120.068 88.5366 120.216 89.3889 119.792 90.3384C119.437 91.135 118.724 91.8259 118.104 92.4243C118.731 93.3518 119.361 94.1599 120.122 94.9776L119.799 95.094L119.451 94.8234L119.379 94.9581L119.537 95.1934L119.292 95.2219C118.602 94.5516 118.085 93.6601 117.373 92.9607C116.086 93.2286 114.813 93.3293 113.595 92.7265C112.575 92.2264 111.794 91.3417 111.426 90.2668C111.109 89.308 111.187 88.2624 111.643 87.3613C112.292 86.0744 113.403 85.4063 114.724 84.9707Z" fill="#E0E1DE"/>
<path d="M114.183 86.6251C114.868 86.5666 115.643 86.5268 116.271 86.8433C116.738 87.078 117.015 87.4799 117.167 87.972C117.378 88.6575 117.511 89.9404 117.194 90.5855L116.949 90.6305C116.543 90.2223 116.423 88.8348 116.156 88.2161C115.91 88.0055 115.784 87.8321 115.433 87.8249C114.93 87.8148 114.416 88.1724 114.071 88.5065C114.041 88.5359 114.012 88.5663 113.982 88.5962C114.144 90.7428 115.428 89.9341 116.047 91.2045L115.848 91.513C115.566 91.6448 115.315 91.7389 114.999 91.7323C114.319 91.7181 113.693 91.406 113.255 90.8885C112.643 90.1658 112.798 89.1699 112.837 88.2927C113.236 87.638 113.613 87.1392 114.183 86.6251Z" fill="#C2C6BE"/>
<path d="M104.439 91.074C105.017 86.2495 105.946 83.2782 108.675 79.1808C108.931 78.7971 109.165 78.0751 109.519 77.805C109.693 77.6727 109.733 77.7076 109.938 77.7065C109.69 78.8901 108.686 80.192 108.081 81.2595C106.252 84.4714 105.193 88.0631 104.986 91.7526L104.814 91.0403L104.439 91.074Z" fill="#E0E1DE"/>
<path d="M168.032 57.8029C165.809 57.8092 159.167 58.1587 157.46 57.557C157.177 57.4571 157.275 57.5339 157.14 57.2652L157.475 57.1543C157.766 57.255 158.069 57.3679 158.378 57.3961C159.426 57.4916 160.565 57.3437 161.625 57.3478L171.171 57.3552L201.304 57.3739C202.644 58.5885 206.026 60.9091 206.895 62.1001L206.736 62.2179C206.271 61.8761 205.85 61.4185 205.364 61.1237C203.898 60.2349 202.597 58.9086 201.278 57.801L185.904 57.8054C185.211 59.0145 184.43 61.3085 183.398 62.1786C184.038 60.7941 184.753 59.3986 185.272 57.9657L185.328 57.807C179.722 57.7807 174.116 57.7898 168.51 57.8342C169.721 59.9039 171.547 62.7229 173.506 64.122C176.469 64.2187 179.405 63.8794 182.372 64.1725L182.443 63.8533L182.878 63.2154L183.084 63.2321C183.506 63.7452 182.895 64.1673 183.892 64.2766C187.623 64.6858 192.523 62.7748 195.288 66.1505C197.141 68.4126 196.928 73.6458 196.625 76.4751C196.486 77.7701 196.05 79.5192 194.966 80.3536C194.842 80.4492 194.686 80.5126 194.532 80.5381C194.686 80.1288 195.073 79.7209 195.325 79.3561C196.116 78.2126 196.228 77.0476 196.271 75.6966C196.363 72.7381 196.883 68.2589 194.674 65.9686C194.225 65.5033 193.661 65.1044 193.037 64.9194C191.141 64.3575 187.152 64.7446 184.995 64.7053C175.531 64.8247 166.065 64.8634 156.6 64.8212C154.888 64.816 147.226 64.5052 146.103 64.8033C144.864 65.1324 144.206 66.3361 143.158 66.7481C143.357 66.0149 144.269 65.3616 144.898 64.9606C145.331 64.6845 145.825 64.4396 146.338 64.3688C151.169 63.6993 156.37 64.021 161.246 63.9919C164.341 63.9733 169.847 63.5824 172.71 64.2252C170.976 62.2319 169.444 60.0324 168.032 57.8029Z" fill="#E0E1DE"/>
<path d="M247.351 48.7846C249.003 48.6477 250.739 48.5192 252.321 49.1072C253.938 49.7089 255.548 50.957 256.257 52.5625C256.815 53.8246 256.812 55.3439 256.301 56.619C255.836 57.777 254.82 58.7669 253.663 59.2269C251.951 59.9077 250.619 59.5146 248.99 58.8473C248.723 59.2288 248.366 59.4715 247.997 59.7482C247.946 59.9351 247.886 59.9776 247.753 60.1122C247.278 60.0353 246.658 59.9013 246.333 59.5212C245.417 58.4495 247.632 56.7987 247.661 55.6478C247.662 55.5871 247.658 55.5267 247.657 55.4661C249.208 55.9319 250.415 57.2582 252.191 56.6478C252.692 56.4754 253.078 56.1221 253.284 55.633C253.565 54.9621 253.479 54.1847 253.214 53.524C252.774 52.4313 251.882 51.8472 250.834 51.4277C249.712 51.3001 248.552 51.3813 247.424 51.4058C247.754 50.5837 247.285 49.6614 247.351 48.7846Z" fill="#A8BDAB"/>
<path d="M161.141 76.392C163.314 76.5167 165.553 76.3476 167.734 76.3413L182.319 76.3325C184.888 76.3344 187.691 76.1351 190.221 76.5748L190.417 76.9229C190.195 76.9698 189.97 77.0061 189.744 77.0311C187.988 77.2196 186.153 77.1345 184.389 77.1354L175.786 77.1312L165.697 77.1071C164.472 77.1035 163.181 77.2216 161.967 77.1529C161.558 77.1299 161.385 77.123 161.07 76.8683L161.141 76.392Z" fill="#E0E1DE"/>
<path d="M264.145 56.3291C264.19 56.3357 264.236 56.3373 264.28 56.3489C264.753 56.4743 265.143 57.0779 265.413 57.4639C266.613 59.1803 267.476 61.5162 268.258 63.4678C269.438 66.4154 270.19 69.219 270.792 72.3205C272.147 79.2954 271.706 83.9568 270.391 90.8938C269.957 93.1798 266.544 102.646 264.789 103.844L264.583 104.014C264.491 103.547 266.217 101.067 266.509 100.409C267.766 97.5753 269.239 94.0626 269.97 91.0572C270.372 89.4069 270.539 87.5906 270.792 85.9049C272.145 76.8832 269.624 63.7456 264.145 56.3291Z" fill="#E0E1DE"/>
<path d="M189.338 52.2981C189.486 52.4016 189.475 52.4741 189.532 52.641C188.918 53.0321 162.806 52.7982 160.184 52.7925L160.029 52.6813L160.053 52.4524C161.72 52.025 166.269 52.3228 168.289 52.3204L189.338 52.2981Z" fill="#E0E1DE"/>
<path d="M241.766 139.369C245.143 139.228 270.171 139.079 270.868 139.523C270.59 139.761 270.473 139.723 270.117 139.747C263.876 139.886 257.611 139.778 251.368 139.776C248.464 139.775 244.358 140.058 241.573 139.69L241.451 139.529L241.766 139.369Z" fill="#E0E1DE"/>
<path d="M151.814 35.7783C153.614 36.1184 155.404 39.2726 157.026 40.3615C157.345 40.3651 157.622 40.384 157.937 40.4455L157.969 40.6572C157.4 40.9207 156.75 41.1749 156.237 41.5366C155.464 42.0818 154.332 43.4479 154.213 44.4067C153.872 47.1605 154.06 50.1217 154.089 52.8982C154.107 54.6053 155.218 55.7068 156.366 56.8377L156.194 56.998C155.563 56.7271 154.936 56.1106 154.566 55.5443C153.183 53.4315 153.229 46.8226 153.777 44.4356C154.039 43.2967 155.052 41.8732 156.06 41.263L156.842 40.781C156.829 40.4947 155.927 39.9171 155.649 39.6833C154.287 38.5392 153.073 37.0462 151.814 35.7783Z" fill="#E0E1DE"/>
<path d="M244.227 60.5801C245.017 61.2449 246.121 61.6273 246.744 62.4634C246.701 63.2874 245.603 64.6434 245.115 65.3568C244.187 64.6612 243.204 64.0439 242.23 63.4145C243.063 62.5564 243.631 61.6056 244.227 60.5801Z" fill="#A8BDAB"/>
<path d="M39.224 123.338C39.7809 124.479 37.907 130.261 37.7867 132.004C37.5776 135.043 37.5383 139.416 38.1183 142.385C38.4848 144.26 39.235 146.208 39.403 148.098L39.1759 148.11C37.2309 142.911 36.663 136.106 37.5221 130.637C37.9061 128.194 38.6341 125.742 39.224 123.338Z" fill="#E0E1DE"/>
<path d="M57.7754 47.753C58.012 47.6904 57.9577 47.6706 58.1523 47.7132C59.2563 47.9561 60.3444 48.2687 61.4561 48.485C63.5101 48.885 67.014 48.3132 69.2662 48.3785C69.7853 48.3936 70.9604 48.5904 71.3853 48.3017C71.3236 48.0598 71.275 47.8334 71.2505 47.585L71.5022 47.6231L71.9121 48.2396C72.4355 48.443 73.0334 48.2199 73.5895 48.1408L73.7344 48.3503C73.287 48.5259 72.8585 48.72 72.4287 48.9346L72.6164 49.2596C72.1684 49.5781 72.2829 49.1573 71.8912 49.0379C71.4836 48.9135 70.0579 49.1844 69.5429 49.2042C67.4299 49.2857 65.2787 49.3324 63.17 49.149C61.7934 49.0293 58.6376 48.7801 57.7754 47.753Z" fill="#E0E1DE"/>
<path d="M108.681 123.084C108.685 123.18 108.692 123.231 108.667 123.333C108.477 124.126 107.627 126.746 107.001 127.163C106.911 126.994 106.789 126.792 106.779 126.595C106.728 125.621 108.008 123.742 108.681 123.084Z" fill="#E7DFD1"/>
<path d="M139.504 205.083C140.109 206.722 142.065 213.044 143.016 214.113C143.353 216.262 144.407 218.643 145.132 220.702C146.617 224.921 148.105 229.184 149.774 233.332C148.243 233.384 146.733 233.413 145.203 233.335C144.328 231.728 143.852 229.798 143.261 228.068C142.503 225.85 141.607 223.687 140.834 221.472C139.77 218.429 138.882 214.71 137.239 211.978C137.189 211.154 138.994 205.867 139.504 205.083Z" fill="#B68E68"/>
</svg>
