<svg width="255" height="198" viewBox="0 0 255 198" fill="none" xmlns="http://www.w3.org/2000/svg">
<path d="M7.56874 41.5723C2.59475 46.491 3.33249 85.3251 7.56874 88.4831C11.805 91.641 244.399 82.6682 246.556 77.7874C248.713 72.906 251.695 56.5775 245.672 53.5613C239.648 50.5451 15.4197 33.8089 7.56874 41.5723Z" fill="white" fill-opacity="0.49"/>
<path d="M88.4726 9.18164C88.4726 9.18164 80.1573 9.25933 79.9243 10.1904C79.6912 11.1214 80.951 11.4322 80.951 11.4322V34.4481C80.951 36.1791 82.3538 37.5818 84.0847 37.5818C85.8156 37.5818 87.2184 36.1791 87.2184 34.4481V10.8958C87.2184 10.8958 88.9512 11.0437 88.4726 9.18164Z" fill="#6DD2D0"/>
<path d="M86.1334 12.4395H81.7883C81.7883 12.4395 81.7268 34.5673 82.2539 35.535C82.7144 36.3809 84.4267 36.8041 85.8232 35.0975C87.2198 33.3902 86.1334 12.4395 86.1334 12.4395Z" fill="url(#paint0_linear_355_1496)"/>
<mask id="mask0_355_1496" style="mask-type:luminance" maskUnits="userSpaceOnUse" x="82" y="7" width="17" height="17">
<path d="M94.0746 15.3292C92.1361 13.7182 92.8632 7.82316 90.9247 7.58077C88.9862 7.33838 85.3522 7.92012 83.8985 9.04258C82.4448 10.165 83.0103 11.942 83.0103 11.942C83.0103 11.942 82.1477 13.0725 82.9022 13.9613C83.6567 14.8494 83.6567 14.8494 83.6567 14.8494C83.6567 14.8494 83.3335 15.6766 84.0607 16.5959C84.7879 17.5151 85.8376 16.0844 85.8376 16.0844C85.8376 16.0844 87.4442 15.3982 88.2155 15.9315C88.9875 16.4647 89.6196 19.7762 90.394 20.0987C91.1684 20.4219 93.7526 20.0987 93.7526 20.0987L95.8527 23.0783L98.1946 18.4387C98.194 18.4387 96.0131 16.9402 94.0746 15.3292Z" fill="white"/>
</mask>
<g mask="url(#mask0_355_1496)">
<path d="M94.0746 15.3292C92.1361 13.7182 92.8632 7.82316 90.9247 7.58077C88.9862 7.33838 85.3522 7.92012 83.8985 9.04258C82.4448 10.165 83.0103 11.942 83.0103 11.942C83.0103 11.942 82.1477 13.0725 82.9022 13.9613C83.6567 14.8494 83.6567 14.8494 83.6567 14.8494C83.6567 14.8494 83.3335 15.6766 84.0607 16.5959C84.7879 17.5151 85.8376 16.0844 85.8376 16.0844C85.8376 16.0844 87.4442 15.3982 88.2155 15.9315C88.9875 16.4647 89.6196 19.7762 90.394 20.0987C91.1684 20.4219 93.7526 20.0987 93.7526 20.0987L95.8527 23.0783L98.1946 18.4387C98.1946 18.4387 96.0131 16.9402 94.0746 15.3292Z" fill="#925F2D"/>
</g>
<mask id="mask1_355_1496" style="mask-type:luminance" maskUnits="userSpaceOnUse" x="82" y="7" width="17" height="17">
<path d="M94.0746 15.3292C92.1361 13.7182 92.8632 7.82316 90.9247 7.58077C88.9862 7.33838 85.3522 7.92012 83.8985 9.04258C82.4448 10.165 83.0103 11.942 83.0103 11.942C83.0103 11.942 82.1477 13.0725 82.9022 13.9613C83.6567 14.8494 83.6567 14.8494 83.6567 14.8494C83.6567 14.8494 83.3335 15.6766 84.0607 16.5959C84.7879 17.5151 85.8376 16.0844 85.8376 16.0844C85.8376 16.0844 87.4442 15.3982 88.2155 15.9315C88.9875 16.4647 89.6196 19.7762 90.394 20.0987C91.1684 20.4219 93.7526 20.0987 93.7526 20.0987L95.8527 23.0783L98.1946 18.4387C98.194 18.4387 96.0131 16.9402 94.0746 15.3292Z" fill="white"/>
</mask>
<g mask="url(#mask1_355_1496)">
<path d="M83.5672 15.5456C84.2683 14.2168 86.0856 12.5604 87.7295 13.1589C88.1061 13.2963 88.2671 12.6953 87.8936 12.5592C85.9905 11.8662 83.8574 13.6636 83.0289 15.2348C82.8425 15.5884 83.3801 15.9005 83.5672 15.5456Z" fill="#042638"/>
</g>
<mask id="mask2_355_1496" style="mask-type:luminance" maskUnits="userSpaceOnUse" x="82" y="7" width="17" height="17">
<path d="M94.0746 15.3292C92.1361 13.7182 92.8632 7.82316 90.9247 7.58077C88.9862 7.33838 85.3522 7.92012 83.8985 9.04258C82.4448 10.165 83.0103 11.942 83.0103 11.942C83.0103 11.942 82.1477 13.0725 82.9022 13.9613C83.6567 14.8494 83.6567 14.8494 83.6567 14.8494C83.6567 14.8494 83.3335 15.6766 84.0607 16.5959C84.7879 17.5151 85.8376 16.0844 85.8376 16.0844C85.8376 16.0844 87.4442 15.3982 88.2155 15.9315C88.9875 16.4647 89.6196 19.7762 90.394 20.0987C91.1684 20.4219 93.7526 20.0987 93.7526 20.0987L95.8527 23.0783L98.1946 18.4387C98.194 18.4387 96.0131 16.9402 94.0746 15.3292Z" fill="white"/>
</mask>
<g mask="url(#mask2_355_1496)">
<path d="M82.4172 12.9943C84.0636 11.4181 86.1078 10.1508 88.454 10.9333C88.8344 11.0601 88.9966 10.4597 88.6181 10.3336C86.0668 9.4827 83.7808 10.8283 81.9747 12.5573C81.6863 12.8339 82.1282 13.2715 82.4172 12.9943Z" fill="#042638"/>
</g>
<path d="M49.1393 197.133C75.8915 197.133 97.5784 195.252 97.5784 192.932C97.5784 190.612 75.8915 188.731 49.1393 188.731C22.3871 188.731 0.700195 190.612 0.700195 192.932C0.700195 195.252 22.3871 197.133 49.1393 197.133Z" fill="#C6C6C5"/>
<path d="M25.3203 185.729C26.848 185.403 28.3483 184.95 29.8021 184.381C29.6958 182.459 31.8605 177.522 31.8605 177.522L22.498 176.528C22.498 176.528 21.9306 184.33 19.8025 185.323C19.5421 185.445 19.1499 185.59 18.667 185.755C20.7659 186.343 23.1487 186.192 25.3203 185.729Z" fill="#925F2D"/>
<path d="M29.8015 184.381C28.3471 184.951 26.8468 185.403 25.3197 185.729C23.1481 186.192 20.7652 186.344 18.667 185.756C15.2052 186.939 6.98063 189.149 7.60277 191.14C8.31192 193.41 15.8497 193.41 18.6061 192.559C21.3625 191.707 23.0648 190.431 24.058 190.431C25.0512 190.431 29.165 191.566 29.8742 190.431C30.5833 189.296 30.4416 186.273 29.8742 184.805C29.83 184.691 29.8108 184.543 29.8015 184.381Z" fill="black"/>
<path d="M72.6437 185.729C71.116 185.403 69.6157 184.95 68.162 184.381C68.2683 182.459 66.1035 177.522 66.1035 177.522L75.466 176.528C75.466 176.528 76.0335 184.33 78.1616 185.323C78.422 185.445 78.8141 185.59 79.2971 185.755C77.1982 186.343 74.8153 186.192 72.6437 185.729Z" fill="#925F2D"/>
<path d="M68.1623 184.381C69.6166 184.951 71.117 185.403 72.644 185.729C74.8156 186.192 77.1985 186.344 79.2967 185.756C82.7586 186.939 90.9831 189.149 90.361 191.14C89.6518 193.41 82.1141 193.41 79.3577 192.559C76.6012 191.707 74.8989 190.431 73.9057 190.431C72.9125 190.431 68.7987 191.566 68.0896 190.431C67.3804 189.296 67.5221 186.273 68.0896 184.805C68.1337 184.691 68.153 184.543 68.1623 184.381Z" fill="black"/>
<path d="M45.6314 7.58099C40.566 9.14535 39.4218 13.445 39.9184 18.6937C40.415 23.9424 42.7892 26.4987 40.4523 30.0103C38.1154 33.5218 19.0075 59.2849 42.3131 68.1608C65.6187 77.0367 77.752 63.4423 80.3226 56.1954C82.8938 48.9479 77.0105 36.9756 73.8426 21.1008C73.5108 19.3519 79.6656 7.18695 72.9321 2.43421C66.1986 -2.31852 55.9013 4.40939 45.6314 7.58099Z" fill="#0D4261"/>
<mask id="mask3_355_1496" style="mask-type:luminance" maskUnits="userSpaceOnUse" x="30" y="0" width="51" height="72">
<path d="M45.6314 7.58099C40.566 9.14535 39.4218 13.445 39.9184 18.6937C40.415 23.9424 42.7892 26.4987 40.4523 30.0103C38.1154 33.5218 19.0075 59.2849 42.3131 68.1608C65.6187 77.0367 77.752 63.4423 80.3226 56.1954C82.8938 48.9479 77.0105 36.9756 73.8426 21.1008C73.5108 19.3519 79.6656 7.18695 72.9321 2.43421C66.1986 -2.31852 55.9013 4.40939 45.6314 7.58099Z" fill="white"/>
</mask>
<g mask="url(#mask3_355_1496)">
<path d="M55.0944 4.27704C56.5264 9.40206 51.7668 12.8502 47.5747 14.3804C43.5274 15.8577 39.4726 16.79 35.6689 18.9032C35.3196 19.0971 35.6335 19.6341 35.9834 19.4395C38.4956 18.0442 41.1215 17.0113 43.8717 16.189C46.1657 15.5029 48.5039 14.8689 50.6183 13.7148C54.0832 11.8229 56.8434 8.22553 55.6954 4.11669C55.5873 3.73135 54.9863 3.89108 55.0944 4.27704Z" fill="#0D4261"/>
<path d="M34.5315 13.5231C41.4894 14.1042 47.8624 10.1569 50.4902 3.7081C50.6412 3.33767 50.0396 3.17794 49.8904 3.54402C47.3646 9.7424 41.1923 13.4578 34.5359 12.9016C34.1368 12.868 34.135 13.4901 34.5315 13.5231Z" fill="#0D4261"/>
<path d="M74.4211 25.584C74.426 25.9843 75.0475 25.9886 75.0426 25.5884C74.9425 17.1258 68.9505 9.94729 60.624 8.40033C60.6197 8.39971 60.6166 8.40096 60.6128 8.40033C60.5998 6.97333 60.1821 5.52769 59.5973 4.14979C65.8491 0.833377 73.17 0.166488 79.9227 2.28834C80.3056 2.4083 80.4678 1.80854 80.0868 1.68858C73.1985 -0.476157 65.7273 0.216211 59.3462 3.5811C59.0802 3.0062 58.7924 2.44497 58.4947 1.90611C58.3014 1.5562 57.7651 1.87007 57.9583 2.2206C59.6134 5.22004 61.1001 8.89072 58.8459 12.0002C58.6109 12.324 59.151 12.6322 59.3841 12.3109C60.1405 11.2674 60.5022 10.1586 60.5898 9.02931C68.5757 10.5769 74.3247 17.4254 74.4211 25.584Z" fill="#0D4261"/>
<path d="M60.481 5.08442C60.0907 5.17392 60.2523 5.77431 60.642 5.68481C70.6397 3.3852 80.3845 10.2082 81.717 20.3501C81.7692 20.7454 82.3689 20.5807 82.3174 20.1891C80.9388 9.6998 70.7733 2.71644 60.481 5.08442Z" fill="#0D4261"/>
<path d="M51.0756 16.901C43.2843 19.2006 33.9783 22.5039 31.7974 31.3581C31.7017 31.7465 32.3015 31.9112 32.3972 31.5221C34.5228 22.8918 43.6628 19.7363 51.2366 17.5014C51.6194 17.3882 51.4603 16.7872 51.0756 16.901Z" fill="#0D4261"/>
<path d="M53.9634 20.5198C40.0495 26.4105 38.8823 43.4052 38.6231 56.3906C38.615 56.7915 39.2366 56.7946 39.2446 56.3949C39.5001 43.6072 40.5629 26.8623 54.2779 21.0555C54.6446 20.9008 54.3276 20.3656 53.9634 20.5198Z" fill="#0D4261"/>
<path d="M53.9539 27.1051C49.5698 29.0933 47.4628 35.1289 46.4964 39.4813C45.3055 44.8413 45.4559 50.3995 46.0047 55.8297C46.0445 56.2244 46.6667 56.2318 46.6263 55.834C46.1166 50.7892 45.9401 45.6381 46.8929 40.6324C47.7456 36.1525 49.7537 29.6887 54.269 27.6414C54.632 27.4767 54.3157 26.941 53.9539 27.1051Z" fill="#0D4261"/>
<path d="M65.926 31.603C65.9005 31.2052 65.279 31.199 65.3045 31.5986C65.6009 36.2476 66.954 40.6951 67.9347 45.2247C68.4723 47.7089 68.8571 50.2199 68.9204 52.7644C68.949 53.9204 68.9223 55.0783 68.8378 56.2318C68.7955 56.8086 68.739 57.3841 68.6681 57.9584C68.6004 58.5059 68.519 59.051 68.4239 59.5942C68.4301 60.1237 68.1131 60.3885 67.4723 60.3873C67.284 60.0342 66.7476 60.3487 66.936 60.7017C67.1634 61.1281 67.5388 61.3624 68.0466 61.2226C68.8123 61.0119 68.954 60.1349 69.0709 59.4724C69.6097 56.4164 69.6874 53.2566 69.3779 50.172C68.7458 43.8848 66.3287 37.9257 65.926 31.603Z" fill="#0D4261"/>
<path d="M68.3155 25.8214C68.1608 25.4541 67.6263 25.7717 67.7792 26.1359C70.0862 31.617 72.397 37.115 74.1074 42.8186C75.7538 48.3109 77.5544 54.7163 75.6308 60.3454C75.5009 60.7251 76.1013 60.8867 76.2305 60.5095C78.1299 54.9494 76.4611 48.6503 74.8719 43.2108C73.1317 37.2567 70.7183 31.5306 68.3155 25.8214Z" fill="#0D4261"/>
</g>
<path d="M74.1451 22.5654C73.9207 23.3802 73.7864 23.9862 73.843 24.2845C76.2738 36.4669 80.2999 46.3477 80.8811 53.5623C81.5722 46.4534 76.9928 35.951 74.1451 22.5654Z" fill="#0D4261"/>
<path d="M40.4517 33.1923C41.6009 31.4657 41.6083 29.9691 41.2628 28.2705C41.1061 28.8342 40.8519 29.4073 40.4517 30.0095C38.9053 32.3334 30.017 44.402 30.9344 54.8726C31.7225 45.2653 39.0601 35.2837 40.4517 33.1923Z" fill="#0D4261"/>
<path d="M45.6312 10.7638C55.9017 7.59218 66.199 0.864264 72.9325 5.617C74.8953 7.00236 75.7585 9.01918 76.0109 11.2225C76.3341 7.86689 75.8176 4.4703 72.9325 2.43421C66.199 -2.31852 55.9017 4.40939 45.6312 7.58099C40.7168 9.09873 39.4987 13.1939 39.8834 18.2294C40.2159 14.693 41.802 11.9465 45.6312 10.7638Z" fill="#0D4261"/>
<path d="M71.1892 17.1741C69.5304 12.1988 59.4612 10.8955 59.4612 10.8955C57.9211 15.7527 49.3914 17.2928 49.3914 17.2928L50.8159 31.8642C49.1608 31.8642 47.3199 27.0071 47.3199 27.0071C44.6561 25.8225 42.2838 29.6131 43.8239 32.6933C45.364 35.7736 49.6288 34.5889 49.6288 34.5889C49.6288 34.5889 51.6425 44.8956 50.4262 45.757L45.9569 54.0169L51.4064 58.7554L58.1591 60.1768L65.741 56.2674L66.452 48.8043L63.2282 45.6606C63.2282 45.6606 61.4768 44.8949 61.1213 44.3026C60.7658 43.7103 61.4768 40.6301 61.4768 40.6301C64.3202 42.0515 67.3998 40.1565 69.7691 36.9576C72.1383 33.7586 70.4801 31.39 70.2427 28.9021C70.0052 26.4142 72.8481 22.1493 71.1892 17.1741Z" fill="#925F2D"/>
<mask id="mask4_355_1496" style="mask-type:luminance" maskUnits="userSpaceOnUse" x="43" y="10" width="29" height="51">
<path d="M71.1892 17.1741C69.5304 12.1988 59.4612 10.8955 59.4612 10.8955C57.9211 15.7527 49.3914 17.2928 49.3914 17.2928L50.8159 31.8642C49.1608 31.8642 47.3199 27.0071 47.3199 27.0071C44.6561 25.8225 42.2838 29.6131 43.8239 32.6933C45.364 35.7736 49.6288 34.5889 49.6288 34.5889C49.6288 34.5889 51.6425 44.8956 50.4262 45.757L45.9569 54.0169L51.4064 58.7554L58.1591 60.1768L65.741 56.2674L66.452 48.8043L63.2282 45.6606C63.2282 45.6606 61.4768 44.8949 61.1213 44.3026C60.7658 43.7103 61.4768 40.6301 61.4768 40.6301C64.3202 42.0515 67.3998 40.1565 69.7691 36.9576C72.1383 33.7586 70.4801 31.39 70.2427 28.9021C70.0052 26.4142 72.8481 22.1493 71.1892 17.1741Z" fill="white"/>
</mask>
<g mask="url(#mask4_355_1496)">
<path d="M42.6477 30.1085C45.3712 28.6225 47.6298 31.1819 48.6764 33.4225C48.8455 33.7842 49.3812 33.4685 49.2128 33.108C48.0027 30.5181 45.3395 27.932 42.3332 29.5728C41.9821 29.7636 42.2959 30.3006 42.6477 30.1085Z" fill="#042638"/>
</g>
<path d="M57.3184 26.1545C59.149 26.1545 60.633 24.6705 60.633 22.8399C60.633 21.0094 59.149 19.5254 57.3184 19.5254C55.4879 19.5254 54.0039 21.0094 54.0039 22.8399C54.0039 24.6705 55.4879 26.1545 57.3184 26.1545Z" fill="#042638"/>
<mask id="mask5_355_1496" style="mask-type:luminance" maskUnits="userSpaceOnUse" x="54" y="20" width="7" height="7">
<path d="M57.4015 26.8586C59.232 26.8586 60.716 25.3746 60.716 23.544C60.716 21.7135 59.232 20.2295 57.4015 20.2295C55.5709 20.2295 54.0869 21.7135 54.0869 23.544C54.0869 25.3746 55.5709 26.8586 57.4015 26.8586Z" fill="white"/>
</mask>
<g mask="url(#mask5_355_1496)">
<path d="M57.4015 26.8586C59.232 26.8586 60.716 25.3746 60.716 23.544C60.716 21.7135 59.232 20.2295 57.4015 20.2295C55.5709 20.2295 54.0869 21.7135 54.0869 23.544C54.0869 25.3746 55.5709 26.8586 57.4015 26.8586Z" fill="white"/>
</g>
<mask id="mask6_355_1496" style="mask-type:luminance" maskUnits="userSpaceOnUse" x="54" y="20" width="7" height="7">
<path d="M57.4015 26.8586C59.232 26.8586 60.716 25.3746 60.716 23.544C60.716 21.7135 59.232 20.2295 57.4015 20.2295C55.5709 20.2295 54.0869 21.7135 54.0869 23.544C54.0869 25.3746 55.5709 26.8586 57.4015 26.8586Z" fill="white"/>
</mask>
<g mask="url(#mask6_355_1496)">
<path d="M57.8966 26.1536C59.526 26.1536 60.847 24.8327 60.847 23.2033C60.847 21.5738 59.526 20.2529 57.8966 20.2529C56.2672 20.2529 54.9463 21.5738 54.9463 23.2033C54.9463 24.8327 56.2672 26.1536 57.8966 26.1536Z" fill="#042638"/>
</g>
<path d="M68.1286 25.4904C69.529 25.4904 70.6643 24.0065 70.6643 22.1759C70.6643 20.3453 69.529 18.8613 68.1286 18.8613C66.7281 18.8613 65.5928 20.3453 65.5928 22.1759C65.5928 24.0065 66.7281 25.4904 68.1286 25.4904Z" fill="#042638"/>
<mask id="mask7_355_1496" style="mask-type:luminance" maskUnits="userSpaceOnUse" x="65" y="19" width="6" height="8">
<path d="M68.1911 26.1955C69.5915 26.1955 70.7268 24.7115 70.7268 22.881C70.7268 21.0504 69.5915 19.5664 68.1911 19.5664C66.7906 19.5664 65.6553 21.0504 65.6553 22.881C65.6553 24.7115 66.7906 26.1955 68.1911 26.1955Z" fill="white"/>
</mask>
<g mask="url(#mask7_355_1496)">
<path d="M68.1911 26.1955C69.5915 26.1955 70.7268 24.7115 70.7268 22.881C70.7268 21.0504 69.5915 19.5664 68.1911 19.5664C66.7906 19.5664 65.6553 21.0504 65.6553 22.881C65.6553 24.7115 66.7906 26.1955 68.1911 26.1955Z" fill="white"/>
</g>
<mask id="mask8_355_1496" style="mask-type:luminance" maskUnits="userSpaceOnUse" x="65" y="19" width="6" height="8">
<path d="M68.1911 26.1955C69.5915 26.1955 70.7268 24.7115 70.7268 22.881C70.7268 21.0504 69.5915 19.5664 68.1911 19.5664C66.7906 19.5664 65.6553 21.0504 65.6553 22.881C65.6553 24.7115 66.7906 26.1955 68.1911 26.1955Z" fill="white"/>
</mask>
<g mask="url(#mask8_355_1496)">
<path d="M68.5698 25.4905C69.8165 25.4905 70.8272 24.1696 70.8272 22.5402C70.8272 20.9108 69.8165 19.5898 68.5698 19.5898C67.3232 19.5898 66.3125 20.9108 66.3125 22.5402C66.3125 24.1696 67.3232 25.4905 68.5698 25.4905Z" fill="#042638"/>
</g>
<path d="M52.5164 35.5352C52.5164 35.5352 50.1658 55.0508 63.7665 48.7803C64.4011 48.4876 64.9915 48.2085 65.5614 47.9356L63.227 45.6597C63.227 45.6597 61.4756 44.8939 61.1201 44.3016C60.7646 43.7093 61.4756 40.6291 61.4756 40.6291C55.5016 38.9007 52.5164 35.5352 52.5164 35.5352Z" fill="#925F2D"/>
<path d="M78.6216 123.341L74.1666 88.4854L39.3114 96.4364L18.6074 178.638L34.6581 180.473L57.9183 112.596C57.9183 112.596 63.1596 181.259 64.2081 180.473C65.2566 179.687 77.8361 182.059 78.6223 180.48C79.4079 178.9 78.6216 123.341 78.6216 123.341Z" fill="black"/>
<path d="M72.941 53.7642L65.6786 47.5391C65.6786 47.5391 63.4555 54.6536 57.5268 54.6536C51.5982 54.6536 48.3377 49.0214 48.3377 49.0214L41.9647 56.7282C41.9647 56.7282 31.2932 83.8511 44.3364 92.2994C57.3789 100.748 74.2754 93.6332 74.2754 93.6332L72.941 53.7642Z" fill="white"/>
<path d="M50.4256 45.757C50.4256 45.757 41.1532 44.7451 36.6012 49.2971C32.0492 53.8491 24.7998 62.784 25.6432 72.3939C26.486 82.0032 30.8696 86.0492 33.3985 87.7354C33.3985 87.7354 15.5281 137.974 16.034 138.48C16.5399 138.986 42.165 143.201 42.165 143.201L50.4256 89.9269L52.6171 89.5894L53.2914 79.6426L50.9309 79.4742L50.4256 45.757Z" fill="#F07F17"/>
<path d="M63.2256 45.6615C63.2256 45.6615 69.2363 79.2874 69.2363 95.527C69.2363 111.767 69.2363 143.201 69.2363 143.201C69.2363 143.201 84.7897 144.9 85.4759 143.201C86.162 141.502 78.1563 68.5371 78.1563 68.5371C78.1563 68.5371 100.712 70.1971 110.636 51.8394C117.848 38.4998 111.885 22.3447 98.161 16.3975L92.7998 25.4567C92.7998 25.4567 103.323 35.5352 97.2461 44.7243C91.5723 53.3043 81.1296 53.4404 77.0127 51.382C72.8964 49.3235 72.4918 45.6615 63.2256 45.6615Z" fill="#F07F17"/>
<path d="M47.4479 30.9966C46.7002 31.0644 46.0576 31.4466 45.6598 32.0868C45.4479 32.4274 45.9867 32.7369 46.1981 32.3975C46.4709 31.9587 46.9258 31.6648 47.4436 31.6181C47.8389 31.5821 47.8457 30.9606 47.4479 30.9966Z" fill="#042638"/>
<path d="M63.3594 21.4209C63.3582 22.4489 63.393 23.6472 64.2382 24.3775C64.5782 24.6714 64.8914 24.6478 65.2401 24.8368C65.7411 25.1084 66.0897 25.5354 66.0251 26.0643C65.9362 26.797 65.2519 27.4372 64.5832 27.6305C64.1997 27.7417 64.3588 28.3421 64.7441 28.2309C65.9468 27.8828 66.9934 26.4453 66.7759 25.1339C66.7137 24.7585 66.5646 24.5154 66.2414 24.3253C65.5347 23.9095 64.8635 24.4135 64.3116 23.4893C63.9455 22.8771 63.9803 22.1096 63.9809 21.4246C63.9815 21.025 63.3594 21.0213 63.3594 21.4209Z" fill="#042638"/>
<path d="M61.3049 31.0834C62.6194 32.1966 64.2459 33.0425 65.9371 32.2308C66.2969 32.058 65.9818 31.5222 65.6226 31.6944C64.213 32.3712 62.8152 31.5496 61.7425 30.6409C61.4392 30.3848 60.9985 30.8243 61.3049 31.0834Z" fill="#042638"/>
<path d="M61.2751 31.2771C61.5299 31.0459 61.7841 30.8147 62.0389 30.5829C62.3347 30.3137 61.8928 29.8768 61.597 30.1459C61.3422 30.3771 61.088 30.6083 60.8332 30.8402C60.5373 31.1093 60.9792 31.5462 61.2751 31.2771Z" fill="#042638"/>
<path opacity="0.6" d="M52.6081 19.5996C51.8616 19.7643 51.3551 19.9066 51.2016 20.0123C50.1065 20.765 48.7373 29.4892 54.5559 29.3711C54.582 29.3705 54.6044 29.3661 54.6305 29.3649C53.5919 28.1511 52.8281 26.7011 52.4415 25.1504C51.9884 23.3312 52.0555 21.3896 52.6081 19.5996Z" fill="#7DC1C7"/>
<path opacity="0.6" d="M72.284 16.7956C71.1671 16.685 57.1955 18.5868 52.6081 19.6005C52.0555 21.3905 51.9884 23.3321 52.4415 25.1513C52.8274 26.702 53.5919 28.152 54.6305 29.3658C60.3845 29.1999 61.8891 23.6802 64.1384 23.797C66.3976 23.9145 66.0807 24.462 66.479 25.4204C66.8774 26.3788 70.7103 28.2955 72.9689 26.5839C75.2275 24.8729 73.5824 16.9243 72.284 16.7956Z" fill="#BBEBEF"/>
<path d="M53.1706 18.7776C54.3571 17.6738 55.4826 16.9646 57.0756 17.9124C57.8736 18.3873 58.6716 18.8105 59.5275 19.1729C59.8917 19.327 60.2062 18.7906 59.8382 18.6346C58.6294 18.1225 57.4 17.0361 56.111 16.7949C54.7555 16.5414 53.6498 17.4836 52.7293 18.34C52.436 18.6129 52.8779 19.0498 53.1706 18.7776Z" fill="#042638"/>
<path d="M70.2442 16.3293C68.8967 14.6575 66.6704 14.2858 64.8357 15.3853C64.4933 15.5904 64.8059 16.128 65.1502 15.9216C66.7668 14.9533 68.6301 15.3107 69.8066 16.7712C70.0571 17.082 70.4928 16.6382 70.2442 16.3293Z" fill="#042638"/>
<path d="M50.2206 23.0352L45.8799 26.8202L47.2696 27.0073L50.4288 26.0887C50.1783 25.0967 50.1373 24.0134 50.2206 23.0352Z" fill="#042638"/>
<path d="M50.9305 79.4733C50.9305 79.4733 43.9273 79.4627 40.6115 73.9362C37.2957 68.4103 41.4623 62.8838 41.4623 62.8838" stroke="#C6C6C5" stroke-width="0.621516" stroke-miterlimit="10"/>
<path d="M49.8971 93.3302L50.4254 89.9249C45.2476 91.0809 37.0448 89.4662 33.3978 87.7334C33.3978 87.7334 32.9981 88.8571 32.3213 90.7658C35.1865 92.0735 38.3301 92.8286 41.4719 93.1692C44.2699 93.4737 47.0835 93.4669 49.8971 93.3302Z" fill="#F07F17"/>
<path d="M50.8075 71.1936L50.4259 45.7562C50.4259 45.7562 49.4035 45.6456 47.8746 45.663L43.3369 51.5662L46.9423 54.8732L44.097 56.0143L50.8075 71.1936Z" fill="#E8FDFF"/>
<path d="M67.0479 70.4105L71.7099 54.8745L67.8714 53.0099L70.1835 51.0863L66.5221 45.8507C65.5625 45.7301 64.4773 45.6611 63.2256 45.6611C63.2256 45.6611 65.33 57.4333 67.0479 70.4105Z" fill="#E8FDFF"/>
<path d="M106.89 57.249C92.0171 63.6239 77.3916 62.1453 77.3916 62.1453L78.1579 68.5351C78.1579 68.5351 95.9582 69.8335 106.89 57.249Z" fill="#F07F17"/>
<path d="M58.4174 63.501L55.3359 99.7776H76.7658L82.6485 63.501H58.4174Z" fill="black"/>
<path d="M70.7667 79.7367C70.3478 79.1022 69.1619 79.953 68.2234 80.1743C67.285 80.3955 63.7206 80.1743 63.7206 80.1743C63.7206 80.1743 64.3116 79.4123 64.4881 79.1854C64.9692 78.5658 64.7672 78.209 64.4881 77.8598C64.2091 77.5111 63.3023 78.4875 62.5347 78.976C61.7671 79.4645 59.6745 78.5571 58.8373 78.976C58.0001 79.3943 57.9305 80.6504 56.8143 81.4179C56.0088 81.9717 54.1542 81.5453 53.1815 81.2644L52.7607 87.474C54.1032 87.2484 56.1325 86.9917 57.524 87.208C59.769 87.5567 65.3253 88.3938 68.3254 86.7897C71.3248 85.1856 71.185 80.3713 70.7667 79.7367Z" fill="#925F2D"/>
<mask id="mask9_355_1496" style="mask-type:luminance" maskUnits="userSpaceOnUse" x="52" y="77" width="19" height="11">
<path d="M70.7667 79.7367C70.3478 79.1022 69.1619 79.953 68.2234 80.1743C67.285 80.3955 63.7206 80.1743 63.7206 80.1743C63.7206 80.1743 64.3116 79.4123 64.4881 79.1854C64.9692 78.5658 64.7672 78.209 64.4881 77.8598C64.2091 77.5111 63.3023 78.4875 62.5347 78.976C61.7671 79.4645 59.6745 78.5571 58.8373 78.976C58.0001 79.3943 57.9305 80.6504 56.8143 81.4179C56.0088 81.9717 54.1542 81.5453 53.1815 81.2644L52.7607 87.474C54.1032 87.2484 56.1325 86.9917 57.524 87.208C59.769 87.5567 65.3253 88.3938 68.3254 86.7897C71.3248 85.1856 71.185 80.3713 70.7667 79.7367Z" fill="white"/>
</mask>
<g mask="url(#mask9_355_1496)">
<path d="M63.6508 82.6898C66.6831 82.8694 69.5782 82.1068 72.1289 80.4573C72.4632 80.241 72.1512 79.7034 71.8144 79.921C69.3414 81.5195 66.5949 82.2417 63.6557 82.0677C63.2549 82.0447 63.2524 82.6662 63.6508 82.6898Z" fill="#042638"/>
</g>
<mask id="mask10_355_1496" style="mask-type:luminance" maskUnits="userSpaceOnUse" x="52" y="77" width="19" height="11">
<path d="M70.7667 79.7367C70.3478 79.1022 69.1619 79.953 68.2234 80.1743C67.285 80.3955 63.7206 80.1743 63.7206 80.1743C63.7206 80.1743 64.3116 79.4123 64.4881 79.1854C64.9692 78.5658 64.7672 78.209 64.4881 77.8598C64.2091 77.5111 63.3023 78.4875 62.5347 78.976C61.7671 79.4645 59.6745 78.5571 58.8373 78.976C58.0001 79.3943 57.9305 80.6504 56.8143 81.4179C56.0088 81.9717 54.1542 81.5453 53.1815 81.2644L52.7607 87.474C54.1032 87.2484 56.1325 86.9917 57.524 87.208C59.769 87.5567 65.3253 88.3938 68.3254 86.7897C71.3248 85.1856 71.185 80.3713 70.7667 79.7367Z" fill="white"/>
</mask>
<g mask="url(#mask10_355_1496)">
<path d="M63.8556 84.9299C67.113 84.9014 70.3691 84.7174 73.0224 82.6229C73.3356 82.3755 72.8912 81.9405 72.5805 82.186C70.0733 84.1649 66.9191 84.2817 63.86 84.3084C63.4597 84.3122 63.4554 84.9337 63.8556 84.9299Z" fill="#042638"/>
</g>
<mask id="mask11_355_1496" style="mask-type:luminance" maskUnits="userSpaceOnUse" x="52" y="77" width="19" height="11">
<path d="M70.7667 79.7367C70.3478 79.1022 69.1619 79.953 68.2234 80.1743C67.285 80.3955 63.7206 80.1743 63.7206 80.1743C63.7206 80.1743 64.3116 79.4123 64.4881 79.1854C64.9692 78.5658 64.7672 78.209 64.4881 77.8598C64.2091 77.5111 63.3023 78.4875 62.5347 78.976C61.7671 79.4645 59.6745 78.5571 58.8373 78.976C58.0001 79.3943 57.9305 80.6504 56.8143 81.4179C56.0088 81.9717 54.1542 81.5453 53.1815 81.2644L52.7607 87.474C54.1032 87.2484 56.1325 86.9917 57.524 87.208C59.769 87.5567 65.3253 88.3938 68.3254 86.7897C71.3248 85.1856 71.185 80.3713 70.7667 79.7367Z" fill="white"/>
</mask>
<g mask="url(#mask11_355_1496)">
<path d="M64.4831 86.5718C67.4776 86.6681 70.3465 86.1094 73.0954 84.9204C73.4615 84.762 73.1446 84.2268 72.781 84.3841C70.1377 85.5277 67.3657 86.0429 64.4875 85.9503C64.0872 85.9372 64.0841 86.5588 64.4831 86.5718Z" fill="#042638"/>
</g>
<path d="M179.732 196.046C220.82 196.046 254.128 194.058 254.128 191.606C254.128 189.154 220.82 187.166 179.732 187.166C138.644 187.166 105.336 189.154 105.336 191.606C105.336 194.058 138.644 196.046 179.732 196.046Z" fill="#C6C6C5"/>
<path d="M239.666 116.239C240.745 111.667 243.274 108.253 244.831 108.621C246.389 108.989 247.123 113.173 246.044 117.745C244.964 122.318 240.537 144.077 239.629 144.917C238.721 145.758 236.212 145.127 236.212 145.127C236.212 145.127 233.686 144.569 233.25 143.412C232.815 142.254 238.586 120.813 239.666 116.239Z" fill="black"/>
<path d="M191.81 142.323C191.81 140.219 193.514 138.515 195.618 138.515H239.175C241.278 138.515 242.983 140.219 242.983 142.323V146.755H191.81V142.323Z" fill="black"/>
<path d="M239.175 152.89H195.618C193.514 152.89 191.81 151.185 191.81 149.081V146.754H242.983V149.081C242.983 151.185 241.278 152.89 239.175 152.89Z" fill="black"/>
<path d="M248.226 87.3595C250.479 87.6566 255.359 91.0351 253.411 105.825C251.463 120.616 249.918 121.374 247.594 121.068C245.271 120.762 243.851 120.575 243.851 120.575C243.851 120.575 242.432 120.388 240.108 120.082C237.784 119.777 236.489 118.644 238.436 103.854C240.384 89.0624 245.972 87.0624 248.226 87.3595Z" fill="black"/>
<path d="M198.572 175.007C201.211 172.31 210.972 171.194 215.639 170.808V149.224H218.789V170.592C220.977 170.473 223.069 170.424 224.947 170.45C231.274 170.539 235.026 171.314 236.416 172.816C237.075 173.529 240.158 177.567 236.074 187.102L235.829 187.674L232.934 186.434L233.178 185.862C234.525 182.714 235.967 176.969 234.104 174.956C233.784 174.611 231.509 173.693 224.902 173.6C222.944 173.571 220.9 173.617 218.789 173.731V187.104H215.639V173.951C207.309 174.66 201.898 176.113 200.822 177.211C198.017 180.076 201.952 185.488 201.991 185.541L202.362 186.04L199.838 187.922L199.466 187.424C199.235 187.116 193.869 179.809 198.572 175.007Z" fill="black"/>
<path d="M233.854 193.175C235.22 193.175 236.327 192.068 236.327 190.703C236.327 189.337 235.22 188.23 233.854 188.23C232.489 188.23 231.382 189.337 231.382 190.703C231.382 192.068 232.489 193.175 233.854 193.175Z" fill="black"/>
<path d="M217.397 193.175C218.763 193.175 219.87 192.068 219.87 190.703C219.87 189.337 218.763 188.23 217.397 188.23C216.032 188.23 214.925 189.337 214.925 190.703C214.925 192.068 216.032 193.175 217.397 193.175Z" fill="black"/>
<path d="M203.034 193.175C204.399 193.175 205.506 192.068 205.506 190.703C205.506 189.337 204.399 188.23 203.034 188.23C201.668 188.23 200.562 189.337 200.562 190.703C200.562 192.068 201.668 193.175 203.034 193.175Z" fill="black"/>
<path d="M229.44 191.945C230.127 191.945 230.684 191.388 230.684 190.702C230.684 188.954 232.106 187.531 233.854 187.531C235.602 187.531 237.024 188.954 237.024 190.702C237.024 191.388 237.581 191.945 238.268 191.945C238.955 191.945 239.512 191.388 239.512 190.702C239.512 187.582 236.973 185.044 233.854 185.044C230.735 185.044 228.196 187.582 228.196 190.702C228.196 191.388 228.753 191.945 229.44 191.945Z" fill="black"/>
<path d="M212.984 191.945C213.67 191.945 214.227 191.388 214.227 190.702C214.227 188.954 215.649 187.531 217.398 187.531C219.145 187.531 220.567 188.954 220.567 190.702C220.567 191.388 221.124 191.945 221.811 191.945C222.498 191.945 223.055 191.388 223.055 190.702C223.055 187.582 220.516 185.044 217.397 185.044C214.277 185.044 211.739 187.582 211.739 190.702C211.74 191.388 212.297 191.945 212.984 191.945Z" fill="black"/>
<path d="M198.619 191.945C199.305 191.945 199.862 191.388 199.862 190.702C199.862 188.954 201.284 187.531 203.033 187.531C204.781 187.531 206.203 188.954 206.203 190.702C206.203 191.388 206.76 191.945 207.447 191.945C208.133 191.945 208.69 191.388 208.69 190.702C208.69 187.582 206.152 185.044 203.033 185.044C199.913 185.044 197.375 187.582 197.375 190.702C197.375 191.388 197.932 191.945 198.619 191.945Z" fill="black"/>
<path d="M195.571 180.464C197.514 177.856 198.754 174.832 199.711 171.706C199.088 171.741 198.493 171.816 198.079 171.852C196.937 171.953 194.438 170.042 194.438 170.042L190.571 173.864C190.571 173.864 193.287 176.881 194.438 178.188C194.922 178.737 194.722 180.103 194.317 181.598C194.319 181.597 194.32 181.597 194.322 181.596C194.848 181.379 195.231 180.92 195.571 180.464Z" fill="#D4A87F"/>
<path d="M202.441 172.357C201.992 171.716 200.807 171.647 199.712 171.708C198.756 174.834 197.515 177.857 195.572 180.465C195.232 180.922 194.85 181.381 194.324 181.599C194.323 181.6 194.321 181.6 194.319 181.601C193.759 183.667 192.802 185.981 192.685 186.74C192.484 188.048 193.39 188.149 194.441 188.231C195.492 188.313 203.145 173.363 202.441 172.357Z" fill="black"/>
<path d="M181.726 146.963L171.234 162.073L190.728 177.184L198.081 167.971L181.726 146.963Z" fill="#092F45"/>
<path d="M212.857 142.42L210.895 123.028C210.895 123.028 174.167 119.045 167.433 129.925C160.7 140.805 174.13 178.838 174.13 178.838L182.591 177.166C182.591 177.166 178.745 146.461 181.439 143.768C184.133 141.074 212.857 142.42 212.857 142.42Z" fill="black"/>
<path d="M187.14 82.9726C186.314 82.1466 185.304 82.9726 185.304 82.9726C185.304 82.9726 181.725 98.4838 181.725 99.0344H182.734C182.734 99.0344 187.966 83.7986 187.14 82.9726Z" fill="#042638"/>
<path d="M188.075 106.815H119.061V190.545H123.443C123.442 190.511 123.433 190.479 123.433 190.445V186.539C123.433 185.108 124.593 183.949 126.023 183.949H181.112C182.543 183.949 183.703 185.108 183.703 186.539V190.445C183.703 190.479 183.694 190.511 183.693 190.545H188.075V106.815Z" fill="black"/>
<path d="M190.727 104.646H116.178V110.023H190.727V104.646Z" fill="#9D9D9D"/>
<path d="M215.75 60.5604C214.451 57.7604 218.55 52.3613 216.45 48.2618C214.35 44.1623 210.651 45.0622 207.851 43.6626C205.051 42.2629 206.651 33.6636 201.952 30.8824C197.253 28.1005 192.253 32.6642 188.953 32.9638C185.654 33.264 185.054 30.364 179.754 30.9638C174.455 31.5635 171.455 38.6625 168.756 40.9627C166.057 43.263 166.956 40.5631 162.757 43.2623C157.057 47.1617 160.757 54.4608 160.757 54.4608L185.254 68.8589C185.254 68.8589 207.251 77.4575 214.85 72.0584C222.449 66.6599 217.05 63.3603 215.75 60.5604Z" fill="#C9312C"/>
<mask id="mask12_355_1496" style="mask-type:luminance" maskUnits="userSpaceOnUse" x="159" y="29" width="60" height="45">
<path d="M215.75 60.5604C214.451 57.7604 218.55 52.3613 216.45 48.2618C214.35 44.1623 210.651 45.0622 207.851 43.6626C205.051 42.2629 206.651 33.6636 201.952 30.8824C197.253 28.1005 192.253 32.6642 188.953 32.9638C185.654 33.264 185.054 30.364 179.754 30.9638C174.455 31.5635 171.455 38.6625 168.756 40.9627C166.057 43.263 166.956 40.5631 162.757 43.2623C157.057 47.1617 160.757 54.4608 160.757 54.4608L185.254 68.8589C185.254 68.8589 207.251 77.4575 214.85 72.0584C222.449 66.6599 217.05 63.3603 215.75 60.5604Z" fill="white"/>
</mask>
<g mask="url(#mask12_355_1496)">
<path d="M164.029 57.2089C162.536 50.8278 162.175 43.1328 167.896 38.6697C168.229 38.4105 167.759 37.9506 167.429 38.2073C161.528 42.8108 161.852 50.7905 163.393 57.3786C163.49 57.7906 164.125 57.6203 164.029 57.2089Z" fill="#C9312C"/>
</g>
<mask id="mask13_355_1496" style="mask-type:luminance" maskUnits="userSpaceOnUse" x="159" y="29" width="60" height="45">
<path d="M215.75 60.5604C214.451 57.7604 218.55 52.3613 216.45 48.2618C214.35 44.1623 210.651 45.0622 207.851 43.6626C205.051 42.2629 206.651 33.6636 201.952 30.8824C197.253 28.1005 192.253 32.6642 188.953 32.9638C185.654 33.264 185.054 30.364 179.754 30.9638C174.455 31.5635 171.455 38.6625 168.756 40.9627C166.057 43.263 166.956 40.5631 162.757 43.2623C157.057 47.1617 160.757 54.4608 160.757 54.4608L185.254 68.8589C185.254 68.8589 207.251 77.4575 214.85 72.0584C222.449 66.6599 217.05 63.3603 215.75 60.5604Z" fill="white"/>
</mask>
<g mask="url(#mask13_355_1496)">
<path d="M168.111 59.8841C167.709 56.3825 167.255 52.3681 169.198 49.2151C170.904 46.4469 174.1 45.1548 176.134 42.6861C178.272 40.0907 177.915 37.003 178.799 33.9731C179.434 31.7947 181.356 30.9482 183.174 29.8928C184.957 28.8586 186.752 27.8449 188.556 26.8462C188.926 26.6417 188.594 26.0742 188.223 26.2793C186.239 27.3782 184.266 28.495 182.306 29.6368C181.127 30.3242 179.738 30.9799 178.917 32.1197C177.87 33.5741 177.896 35.5312 177.618 37.2273C177.266 39.3722 176.6 41.33 175.046 42.9086C172.804 45.1865 169.726 46.5899 168.258 49.5694C166.688 52.7528 167.063 56.472 167.453 59.8785C167.502 60.2949 168.16 60.3036 168.111 59.8841Z" fill="#C9312C"/>
</g>
<mask id="mask14_355_1496" style="mask-type:luminance" maskUnits="userSpaceOnUse" x="159" y="29" width="60" height="45">
<path d="M215.75 60.5604C214.451 57.7604 218.55 52.3613 216.45 48.2618C214.35 44.1623 210.651 45.0622 207.851 43.6626C205.051 42.2629 206.651 33.6636 201.952 30.8824C197.253 28.1005 192.253 32.6642 188.953 32.9638C185.654 33.264 185.054 30.364 179.754 30.9638C174.455 31.5635 171.455 38.6625 168.756 40.9627C166.057 43.263 166.956 40.5631 162.757 43.2623C157.057 47.1617 160.757 54.4608 160.757 54.4608L185.254 68.8589C185.254 68.8589 207.251 77.4575 214.85 72.0584C222.449 66.6599 217.05 63.3603 215.75 60.5604Z" fill="white"/>
</mask>
<g mask="url(#mask14_355_1496)">
<path d="M169.941 62.9509C170.461 60.6979 170.992 58.3896 172.11 56.3442C173.312 54.1459 175.144 52.8109 177.243 51.5474C178.887 50.5585 180.618 49.5859 181.835 48.0625C183.175 46.3863 183.618 44.2862 184.103 42.2476C184.487 40.6348 184.852 38.8995 186.685 38.4383C187.686 38.1872 188.745 38.268 189.758 38.0953C191.64 37.7739 193.14 36.6366 194.56 35.4283C196.488 33.7881 198.328 32.2965 200.809 31.5855C203.313 30.8676 205.91 30.9491 208.385 31.7359C208.789 31.8646 208.961 31.23 208.558 31.102C204.345 29.7626 199.747 30.4978 196.216 33.184C193.897 34.9491 192.04 37.2152 188.966 37.5365C187.185 37.7223 185.294 37.6478 184.302 39.4309C183.033 41.71 183.265 44.5528 181.89 46.8338C180.516 49.1135 178.043 50.2391 175.877 51.6114C171.732 54.2379 170.367 58.1827 169.305 62.7769C169.212 63.1896 169.845 63.3636 169.941 62.9509Z" fill="#C9312C"/>
</g>
<mask id="mask15_355_1496" style="mask-type:luminance" maskUnits="userSpaceOnUse" x="159" y="29" width="60" height="45">
<path d="M215.75 60.5604C214.451 57.7604 218.55 52.3613 216.45 48.2618C214.35 44.1623 210.651 45.0622 207.851 43.6626C205.051 42.2629 206.651 33.6636 201.952 30.8824C197.253 28.1005 192.253 32.6642 188.953 32.9638C185.654 33.264 185.054 30.364 179.754 30.9638C174.455 31.5635 171.455 38.6625 168.756 40.9627C166.057 43.263 166.956 40.5631 162.757 43.2623C157.057 47.1617 160.757 54.4608 160.757 54.4608L185.254 68.8589C185.254 68.8589 207.251 77.4575 214.85 72.0584C222.449 66.6599 217.05 63.3603 215.75 60.5604Z" fill="white"/>
</mask>
<g mask="url(#mask15_355_1496)">
<path d="M173.024 64.538C176.883 63.855 179.651 59.9655 181.556 56.8306C182.138 55.8728 182.608 54.8299 183.299 53.943C184.403 52.5285 185.656 52.5888 187.271 52.4147C188.993 52.2295 190.533 51.4619 191.866 50.378C193.554 49.0063 194.771 47.2139 196.062 45.491C197.043 44.1828 198.017 43.1411 199.813 43.184C200.921 43.2107 201.862 43.4817 202.985 43.2871C207.627 42.481 211.818 36.0086 216.833 38.7998C217.203 39.0055 217.532 38.4368 217.162 38.2311C212.873 35.8439 209.179 39.7327 205.63 41.6159C204.143 42.4052 202.685 42.8204 200.989 42.6675C200.032 42.5811 199.084 42.3741 198.153 42.7216C196.349 43.3959 195.285 45.5004 194.18 46.9342C192.531 49.0722 190.48 51.2251 187.691 51.7012C185.691 52.0424 184.171 51.7447 182.795 53.5024C181.417 55.2644 180.542 57.38 179.153 59.1588C177.522 61.249 175.582 63.4199 172.852 63.9028C172.438 63.9774 172.61 64.6114 173.024 64.538Z" fill="#C9312C"/>
</g>
<mask id="mask16_355_1496" style="mask-type:luminance" maskUnits="userSpaceOnUse" x="159" y="29" width="60" height="45">
<path d="M215.75 60.5604C214.451 57.7604 218.55 52.3613 216.45 48.2618C214.35 44.1623 210.651 45.0622 207.851 43.6626C205.051 42.2629 206.651 33.6636 201.952 30.8824C197.253 28.1005 192.253 32.6642 188.953 32.9638C185.654 33.264 185.054 30.364 179.754 30.9638C174.455 31.5635 171.455 38.6625 168.756 40.9627C166.057 43.263 166.956 40.5631 162.757 43.2623C157.057 47.1617 160.757 54.4608 160.757 54.4608L185.254 68.8589C185.254 68.8589 207.251 77.4575 214.85 72.0584C222.449 66.6599 217.05 63.3603 215.75 60.5604Z" fill="white"/>
</mask>
<g mask="url(#mask16_355_1496)">
<path d="M177.32 66.1361C181.015 66.9962 184.807 63.32 187.226 60.9526C189.012 59.2043 190.466 58.011 193.01 57.6051C195.049 57.2801 196.713 56.7021 198.362 55.4317C199.891 54.2545 201.076 52.5709 202.707 51.5416C204.694 50.288 207.138 50.7672 209.3 50.0382C211.233 49.3862 212.836 48.1003 214.649 47.2103C217.489 45.8168 219.907 46.9735 222.398 48.4819C222.76 48.7013 223.088 48.132 222.727 47.9132C221.184 46.9791 219.511 45.9735 217.664 45.8535C215.683 45.7248 214.034 46.7771 212.398 47.746C211.349 48.3669 210.289 49.0077 209.13 49.4042C207.946 49.8088 206.731 49.8387 205.502 49.9829C203.657 50.1991 202.297 50.871 200.952 52.1464C199.32 53.6939 197.807 55.3795 195.689 56.2707C193.739 57.0911 191.497 56.8475 189.65 57.955C187.984 58.9544 186.75 60.5859 185.291 61.8464C183.295 63.5698 180.324 66.1622 177.494 65.5034C177.082 65.4064 176.908 66.0397 177.32 66.1361Z" fill="#C9312C"/>
</g>
<mask id="mask17_355_1496" style="mask-type:luminance" maskUnits="userSpaceOnUse" x="159" y="29" width="60" height="45">
<path d="M215.75 60.5604C214.451 57.7604 218.55 52.3613 216.45 48.2618C214.35 44.1623 210.651 45.0622 207.851 43.6626C205.051 42.2629 206.651 33.6636 201.952 30.8824C197.253 28.1005 192.253 32.6642 188.953 32.9638C185.654 33.264 185.054 30.364 179.754 30.9638C174.455 31.5635 171.455 38.6625 168.756 40.9627C166.057 43.263 166.956 40.5631 162.757 43.2623C157.057 47.1617 160.757 54.4608 160.757 54.4608L185.254 68.8589C185.254 68.8589 207.251 77.4575 214.85 72.0584C222.449 66.6599 217.05 63.3603 215.75 60.5604Z" fill="white"/>
</mask>
<g mask="url(#mask17_355_1496)">
<path d="M175.598 68.8956C179.772 69.8813 182.916 66.7414 185.908 64.3585C186.822 63.6307 187.789 62.9284 188.858 62.4424C190.122 61.8675 191.413 61.7842 192.757 61.5306C194.608 61.1813 195.912 60.1888 197.242 58.9134C198.963 57.2627 200.597 56.1899 202.945 55.6256C205.029 55.1247 207.011 54.7505 208.853 53.597C210.864 52.3384 212.595 50.6982 215.074 50.4869C217.776 50.257 220.649 50.7386 223.349 50.9127C223.771 50.94 223.774 50.2824 223.354 50.2557C220.726 50.086 218.009 49.6995 215.377 49.8182C213.48 49.9039 211.95 50.6765 210.407 51.7362C208.439 53.0886 206.66 54.1079 204.305 54.6504C202.443 55.0793 200.542 55.4224 198.943 56.5355C197.415 57.5995 196.321 59.2211 194.701 60.1596C192.816 61.2516 190.497 60.9651 188.526 61.8756C184.276 63.8389 181.069 69.5121 175.772 68.2617C175.36 68.1647 175.185 68.7986 175.598 68.8956Z" fill="#C9312C"/>
</g>
<mask id="mask18_355_1496" style="mask-type:luminance" maskUnits="userSpaceOnUse" x="159" y="29" width="60" height="45">
<path d="M215.75 60.5604C214.451 57.7604 218.55 52.3613 216.45 48.2618C214.35 44.1623 210.651 45.0622 207.851 43.6626C205.051 42.2629 206.651 33.6636 201.952 30.8824C197.253 28.1005 192.253 32.6642 188.953 32.9638C185.654 33.264 185.054 30.364 179.754 30.9638C174.455 31.5635 171.455 38.6625 168.756 40.9627C166.057 43.263 166.956 40.5631 162.757 43.2623C157.057 47.1617 160.757 54.4608 160.757 54.4608L185.254 68.8589C185.254 68.8589 207.251 77.4575 214.85 72.0584C222.449 66.6599 217.05 63.3603 215.75 60.5604Z" fill="white"/>
</mask>
<g mask="url(#mask18_355_1496)">
<path d="M180.107 70.226C187.69 68.6274 195.36 67.2632 202.79 65.0798C204.263 64.6472 205.087 64.7914 206.235 65.7678C206.668 66.1358 207.074 66.5 207.596 66.7486C208.785 67.316 210.157 67.2328 211.427 67.0805C215.399 66.6056 219.24 66.2607 223.245 66.5329C223.667 66.5615 223.67 65.9046 223.25 65.876C219.423 65.6162 215.68 65.8486 211.887 66.3601C210.857 66.4987 209.828 66.633 208.801 66.4229C207.65 66.1874 207.046 65.5267 206.18 64.8499C205.243 64.1165 204.312 63.9636 203.166 64.2644C201.384 64.7312 199.688 65.408 197.876 65.8076C195.924 66.2377 193.965 66.6349 192.01 67.0469C187.986 67.8953 183.962 68.743 179.938 69.5914C179.523 69.6784 179.694 70.313 180.107 70.226Z" fill="#C9312C"/>
</g>
<path d="M161.63 45.6341C165.83 42.9342 164.93 45.6341 167.63 43.3344C170.33 41.0348 173.329 33.9359 178.628 33.3355C183.927 32.7357 184.528 35.6351 187.827 35.3355C191.127 35.0353 196.126 30.4722 200.826 33.2541C205.525 36.036 203.925 44.6347 206.725 46.0343C209.525 47.434 213.224 46.534 215.324 50.6335C217.423 54.7331 213.324 60.1322 214.624 62.9321C215.474 64.7625 218.075 66.8072 217.651 69.5133C220.746 65.5686 216.832 62.8905 215.75 60.5604C214.45 57.7605 218.55 52.3613 216.45 48.2618C214.35 44.1623 210.65 45.0623 207.851 43.6626C205.051 42.2629 206.651 33.6636 201.952 30.8824C197.252 28.1005 192.253 32.6642 188.953 32.9638C185.654 33.264 185.054 30.364 179.754 30.9638C174.455 31.5635 171.455 38.6625 168.756 40.9627C166.057 43.263 166.956 40.5631 162.756 43.2623C161.068 44.4177 160.208 45.8715 159.829 47.3451C160.285 46.7317 160.873 46.1524 161.63 45.6341Z" fill="#C9312C"/>
<path d="M161.656 57.2625C160.929 59.0624 161.728 62.9165 164.528 65.8164C167.327 68.7164 173.855 70.2609 173.804 71.2609C173.755 72.2609 171.955 74.7607 172.555 75.1603C173.154 75.56 182.554 77.3599 183.853 76.7601C185.153 76.1603 186.153 72.4604 186.853 72.3604C187.552 72.2603 192.752 74.66 192.752 74.66L196.252 67.0719C196.252 67.0719 190.853 65.2614 191.552 62.9618C192.252 60.6622 193.652 53.6627 189.853 52.9629C186.053 52.263 185.553 55.9623 185.753 57.2625C185.953 58.5621 186.753 60.7623 185.653 60.8623C184.553 60.9624 181.654 52.8678 178.054 51.9156C174.455 50.9628 163.556 52.5626 161.656 57.2625Z" fill="#D4A87F"/>
<mask id="mask19_355_1496" style="mask-type:luminance" maskUnits="userSpaceOnUse" x="161" y="51" width="36" height="26">
<path d="M161.656 57.2625C160.929 59.0624 161.728 62.9165 164.528 65.8164C167.327 68.7164 173.855 70.2609 173.804 71.2609C173.755 72.2609 171.955 74.7607 172.555 75.1603C173.154 75.56 182.554 77.3599 183.853 76.7601C185.153 76.1603 186.153 72.4604 186.853 72.3604C187.552 72.2603 192.752 74.66 192.752 74.66L196.252 67.0719C196.252 67.0719 190.853 65.2614 191.552 62.9618C192.252 60.6622 193.652 53.6627 189.853 52.9629C186.053 52.263 185.553 55.9623 185.753 57.2625C185.953 58.5621 186.753 60.7623 185.653 60.8623C184.553 60.9624 181.654 52.8678 178.054 51.9156C174.455 50.9628 163.556 52.5626 161.656 57.2625Z" fill="white"/>
</mask>
<g mask="url(#mask19_355_1496)">
<path d="M160.757 58.3826C160.757 58.3826 161.879 59.2154 162.182 59.2154C162.484 59.2154 163.241 56.7169 163.241 56.9444C163.241 57.1719 163.241 58.0724 163.241 58.0724L164.377 56.4142L164.755 57.2613C164.755 57.2613 166.95 53.6889 167.632 52.9319C168.313 52.1749 173.31 51.7205 173.31 51.7205L174.598 54.7486L175.581 53.728V55.4677L176.793 54.2942L177.398 55.8082L178.079 54.5211L184.211 57.7008L183.303 52.7044L174.824 50.8877L169.373 51.6509L162.181 54.7486L158.85 57.7766" fill="#C9312C"/>
</g>
<path d="M160.758 54.4614L161.658 57.2613C161.658 57.2613 170.186 48.8 185.784 55.899C185.875 55.1389 186.195 54.4347 186.729 53.7821C186.729 53.7821 172.356 45.1623 160.758 54.4614Z" fill="#0D4261"/>
<path d="M174.785 68.1764C174.432 66.5307 174.506 64.3982 176.347 63.6872C176.738 63.5368 176.572 62.9004 176.177 63.0527C173.97 63.9048 173.71 66.2951 174.15 68.3467C174.24 68.7607 174.874 68.5891 174.785 68.1764Z" fill="#042638"/>
<path d="M188.071 57.8608C188.989 57.8819 189.817 58.2206 190.485 58.8515C190.792 59.1411 191.256 58.6756 190.948 58.3841C190.157 57.6383 189.163 57.2287 188.076 57.2032C187.652 57.1939 187.648 57.8515 188.071 57.8608Z" fill="#042638"/>
<path d="M172.954 60.4452C172.055 60.5552 171.679 61.1575 171.492 62.0071C171.348 62.6559 171.295 63.3433 171.307 64.0059C171.321 64.8617 171.796 66.2023 171.293 66.9276C171.051 67.275 171.622 67.6013 171.862 67.2564C172.249 66.6983 172.197 66.1899 172.116 65.5354C172.009 64.6765 171.469 61.2842 172.949 61.1034C173.364 61.0518 173.372 60.3942 172.954 60.4452Z" fill="#042638"/>
<mask id="mask20_355_1496" style="mask-type:luminance" maskUnits="userSpaceOnUse" x="161" y="51" width="36" height="26">
<path d="M161.656 57.2625C160.929 59.0624 161.728 62.9165 164.528 65.8164C167.327 68.7164 173.855 70.2609 173.804 71.2609C173.755 72.2609 171.955 74.7607 172.555 75.1603C173.154 75.56 182.554 77.3599 183.853 76.7601C185.153 76.1603 186.153 72.4604 186.853 72.3604C187.552 72.2603 192.752 74.66 192.752 74.66L196.252 67.0719C196.252 67.0719 190.853 65.2614 191.552 62.9618C192.252 60.6622 193.652 53.6627 189.853 52.9629C186.053 52.263 185.553 55.9623 185.753 57.2625C185.953 58.5621 186.753 60.7623 185.653 60.8623C184.553 60.9624 181.654 52.8678 178.054 51.9156C174.455 50.9628 163.556 52.5626 161.656 57.2625Z" fill="white"/>
</mask>
<g mask="url(#mask20_355_1496)">
<path d="M192.314 53.7242C190.409 52.7615 188.952 53.4855 188.058 55.4011C187.235 57.1643 187.391 59.1824 188.376 60.8393C188.592 61.2023 189.16 60.871 188.943 60.5068C188.263 59.3626 188.014 58.0879 188.289 56.774C188.658 55.0039 189.966 53.2717 191.986 54.2929C192.361 54.4831 192.692 53.915 192.314 53.7242Z" fill="#042638"/>
</g>
<mask id="mask21_355_1496" style="mask-type:luminance" maskUnits="userSpaceOnUse" x="161" y="51" width="36" height="26">
<path d="M161.656 57.2625C160.929 59.0624 161.728 62.9165 164.528 65.8164C167.327 68.7164 173.855 70.2609 173.804 71.2609C173.755 72.2609 171.955 74.7607 172.555 75.1603C173.154 75.56 182.554 77.3599 183.853 76.7601C185.153 76.1603 186.153 72.4604 186.853 72.3604C187.552 72.2603 192.752 74.66 192.752 74.66L196.252 67.0719C196.252 67.0719 190.853 65.2614 191.552 62.9618C192.252 60.6622 193.652 53.6627 189.853 52.9629C186.053 52.263 185.553 55.9623 185.753 57.2625C185.953 58.5621 186.753 60.7623 185.653 60.8623C184.553 60.9624 181.654 52.8678 178.054 51.9156C174.455 50.9628 163.556 52.5626 161.656 57.2625Z" fill="white"/>
</mask>
<g mask="url(#mask21_355_1496)">
<path d="M178.791 72.8258C178.871 74.4623 178.737 76.0714 178.377 77.6705C178.285 78.0826 178.918 78.2573 179.011 77.844C179.384 76.1889 179.532 74.5257 179.448 72.8302C179.427 72.4094 178.77 72.4032 178.791 72.8258Z" fill="#042638"/>
</g>
<path d="M201.379 66.4017C200.905 66.4017 197.184 63.3936 197.184 63.3936L189.2 76.6132C189.2 76.6132 194.651 80.4125 194.651 79.8588C194.651 79.305 201.379 66.4017 201.379 66.4017Z" fill="#E8FDFF"/>
<path d="M234.201 144.341C234.201 144.341 233.117 113.999 229.712 99.1377C226.306 84.276 217.651 68.8842 211.121 66.1594C206.06 64.0482 202.995 64.9761 199.855 66.9481C198.095 68.0538 196.694 69.6493 195.822 71.5356L195.431 72.3808C194.281 74.8694 194.125 77.6985 194.998 80.2977C197.361 87.3295 202.091 101.315 203.24 104.017C204.788 107.657 201.227 144.032 201.227 144.032L234.201 144.341Z" fill="#F07F17"/>
<path d="M209.199 84.5234C209.236 84.4059 209.21 84.2735 209.074 84.1847C209.071 84.1828 209.068 84.1803 209.065 84.1784C208.467 82.734 207.787 81.3188 207.016 79.9428C206.809 79.5742 206.242 79.9061 206.449 80.2753C207.043 81.3344 207.572 82.4202 208.062 83.5209C207.599 83.2176 207.136 82.9143 206.674 82.611C206.321 82.3798 205.937 82.9124 206.291 83.1455C207.039 83.6352 207.785 84.125 208.532 84.6147C210.119 88.5005 211.071 92.6081 211.333 96.8406C211.359 97.2607 212.016 97.2676 211.99 96.8456C211.727 92.5838 210.778 88.4433 209.199 84.5234Z" fill="#C6C6C5"/>
<path d="M210.029 101.417C210.029 101.417 210.493 94.8079 216.87 93.4169C223.248 92.026 231.016 100.49 228.697 107.91C226.378 115.33 216.291 115.85 212.349 110.024" fill="#E8FDFF"/>
<mask id="mask22_355_1496" style="mask-type:luminance" maskUnits="userSpaceOnUse" x="178" y="92" width="46" height="20">
<path d="M191.891 99.994C192.818 100.056 215.069 98.7976 216.864 98.994C219.253 99.2557 225.688 107.508 223.21 110.914C220.734 114.32 193.151 107.318 191.94 107.335C190.728 107.353 183.793 106.979 183.36 106.299C182.928 105.619 182.742 105.279 182.742 105.279C182.742 105.279 181.814 105.912 181.011 105.279C180.207 104.647 179.651 102.714 180.083 101.972C180.083 101.972 177.858 100.118 178.971 98.3868C178.971 98.3868 177.668 96.9032 178.66 95.3575C179.651 93.8118 185.524 91.9578 186.575 92.7615C187.626 93.5651 190.469 99.8704 191.644 100.18" fill="white"/>
</mask>
<g mask="url(#mask22_355_1496)">
<path d="M191.891 99.994C192.818 100.056 215.069 98.7976 216.864 98.994C219.253 99.2557 225.688 107.508 223.21 110.914C220.734 114.32 193.151 107.318 191.94 107.335C190.728 107.353 183.793 106.979 183.36 106.299C182.928 105.619 182.742 105.279 182.742 105.279C182.742 105.279 181.814 105.912 181.011 105.279C180.207 104.647 179.651 102.714 180.083 101.972C180.083 101.972 177.858 100.118 178.971 98.3868C178.971 98.3868 177.668 96.9032 178.66 95.3575C179.651 93.8118 185.524 91.9578 186.575 92.7615C187.626 93.5651 190.469 99.8704 191.644 100.18" fill="#D4A87F"/>
</g>
<mask id="mask23_355_1496" style="mask-type:luminance" maskUnits="userSpaceOnUse" x="178" y="92" width="46" height="20">
<path d="M191.891 99.994C192.818 100.056 215.069 98.7976 216.864 98.994C219.253 99.2557 225.688 107.508 223.21 110.914C220.734 114.32 193.151 107.318 191.94 107.335C190.728 107.353 183.793 106.979 183.36 106.299C182.928 105.619 182.742 105.279 182.742 105.279C182.742 105.279 181.814 105.912 181.011 105.279C180.207 104.647 179.651 102.714 180.083 101.972C180.083 101.972 177.858 100.118 178.971 98.3868C178.971 98.3868 177.668 96.9032 178.66 95.3575C179.651 93.8118 185.524 91.9578 186.575 92.7615C187.626 93.5651 190.469 99.8704 191.644 100.18" fill="white"/>
</mask>
<g mask="url(#mask23_355_1496)">
<path d="M178.567 99.1758C180.386 96.8153 183.11 95.5778 186.086 95.7773C186.508 95.8059 186.511 95.1484 186.091 95.1204C182.963 94.9103 180.015 96.2292 178.099 98.714C177.845 99.044 178.308 99.5108 178.567 99.1758Z" fill="#042638"/>
</g>
<mask id="mask24_355_1496" style="mask-type:luminance" maskUnits="userSpaceOnUse" x="178" y="92" width="46" height="20">
<path d="M191.891 99.994C192.818 100.056 215.069 98.7976 216.864 98.994C219.253 99.2557 225.688 107.508 223.21 110.914C220.734 114.32 193.151 107.318 191.94 107.335C190.728 107.353 183.793 106.979 183.36 106.299C182.928 105.619 182.742 105.279 182.742 105.279C182.742 105.279 181.814 105.912 181.011 105.279C180.207 104.647 179.651 102.714 180.083 101.972C180.083 101.972 177.858 100.118 178.971 98.3868C178.971 98.3868 177.668 96.9032 178.66 95.3575C179.651 93.8118 185.524 91.9578 186.575 92.7615C187.626 93.5651 190.469 99.8704 191.644 100.18" fill="white"/>
</mask>
<g mask="url(#mask24_355_1496)">
<path d="M179.771 102.66C181.492 100.62 183.863 99.4294 186.533 99.3039C186.954 99.284 186.96 98.627 186.538 98.6469C183.701 98.7806 181.138 100.024 179.303 102.198C179.033 102.518 179.497 102.984 179.771 102.66Z" fill="#042638"/>
</g>
<mask id="mask25_355_1496" style="mask-type:luminance" maskUnits="userSpaceOnUse" x="178" y="92" width="46" height="20">
<path d="M191.891 99.994C192.818 100.056 215.069 98.7976 216.864 98.994C219.253 99.2557 225.688 107.508 223.21 110.914C220.734 114.32 193.151 107.318 191.94 107.335C190.728 107.353 183.793 106.979 183.36 106.299C182.928 105.619 182.742 105.279 182.742 105.279C182.742 105.279 181.814 105.912 181.011 105.279C180.207 104.647 179.651 102.714 180.083 101.972C180.083 101.972 177.858 100.118 178.971 98.3868C178.971 98.3868 177.668 96.9032 178.66 95.3575C179.651 93.8118 185.524 91.9578 186.575 92.7615C187.626 93.5651 190.469 99.8704 191.644 100.18" fill="white"/>
</mask>
<g mask="url(#mask25_355_1496)">
<path d="M182.907 105.981C183.029 105.276 182.947 104.612 182.666 103.956C182.5 103.569 181.934 103.904 182.099 104.289C182.304 104.768 182.362 105.295 182.273 105.808C182.202 106.221 182.835 106.397 182.907 105.981Z" fill="#042638"/>
</g>
<path d="M159.83 83.9844C159.83 83.9844 159.046 86.0733 161.404 87.1181C163.761 88.1628 165.092 85.5512 165.092 85.5512L159.83 83.9844Z" fill="#49154A"/>
<path d="M166.476 72.8436C166.545 72.6348 169.54 68.585 169.54 68.585L172.248 69.5154L170.236 75.0027" fill="#49154A"/>
<path d="M149.972 77.8572C144.75 82.871 145.028 99.3748 145.028 99.3748H153.451C153.451 99.3748 153.732 82.2445 155.891 81.1301C158.049 80.0158 161.403 81.4782 161.403 81.4782L163.203 77.8572C163.203 77.8572 155.195 72.8435 149.972 77.8572Z" fill="#49154A"/>
<path d="M147.776 97.2331C149.295 97.2331 150.527 96.0015 150.527 94.4823C150.527 92.963 149.295 91.7314 147.776 91.7314C146.257 91.7314 145.025 92.963 145.025 94.4823C145.025 96.0015 146.257 97.2331 147.776 97.2331Z" fill="#AA8FCC"/>
<path d="M164.612 72.731L159.527 82.8487C159.183 83.533 159.504 84.3639 160.218 84.6405L164.402 86.2596C165.043 86.5075 165.767 86.2123 166.051 85.5858L170.678 75.3892C170.982 74.7211 170.671 73.9349 169.993 73.6546L166.266 72.1151C165.638 71.8559 164.916 72.1244 164.612 72.731Z" fill="#AA8FCC"/>
<path d="M161.733 87.0818L161.971 88.8662H162.398L162.804 86.8916" fill="#49154A"/>
<path d="M160.878 86.3457L158.618 87.5005L158.38 86.8914L160.378 85.2979" fill="#49154A"/>
<path d="M145.029 99.374C145.029 99.374 135.593 101.188 135.593 104.647H164.636C164.636 104.647 159.725 99.374 153.453 99.374C147.18 99.374 145.029 99.374 145.029 99.374Z" fill="#0D4261"/>
<path d="M153.003 96.2021H163.584V97.1568H152.715" fill="#49154A"/>
<path d="M160.579 96.4911V94.9678H161.238V96.4911" fill="#49154A"/>
<path d="M166.016 94.1045H155.687V95.378H166.016V94.1045Z" fill="#0D4261"/>
<defs>
<linearGradient id="paint0_linear_355_1496" x1="84.329" y1="16.531" x2="83.7159" y2="31.8582" gradientUnits="userSpaceOnUse">
<stop stop-color="#FF0000"/>
<stop offset="1" stop-color="#D20000"/>
</linearGradient>
</defs>
</svg>
