<svg width="58" height="58" viewBox="0 0 58 58" fill="none" xmlns="http://www.w3.org/2000/svg">
<rect width="58" height="58" rx="29" fill="#2EBBF8"/>
<path d="M42.8646 28.2604H40.6354V21.5729C40.6354 20.9817 40.4006 20.4147 39.9825 19.9967C39.5645 19.5786 38.9975 19.3438 38.4062 19.3438H32.8333C32.2421 19.3438 31.6751 19.5786 31.2571 19.9967C30.839 20.4147 30.6042 20.9817 30.6042 21.5729V28.2604H28.375V18.2292C28.375 17.638 28.1401 17.071 27.7221 16.6529C27.304 16.2349 26.737 16 26.1458 16H20.5729C19.9817 16 19.4147 16.2349 18.9967 16.6529C18.5786 17.071 18.3437 17.638 18.3437 18.2292V28.2604H16.1146C15.819 28.2604 15.5355 28.3778 15.3265 28.5869C15.1174 28.7959 15 29.0794 15 29.375C15 29.6706 15.1174 29.9541 15.3265 30.1631C15.5355 30.3722 15.819 30.4896 16.1146 30.4896H18.3437V40.5208C18.3437 41.112 18.5786 41.679 18.9967 42.0971C19.4147 42.5151 19.9817 42.75 20.5729 42.75H26.1458C26.737 42.75 27.304 42.5151 27.7221 42.0971C28.1401 41.679 28.375 41.112 28.375 40.5208V30.4896H30.6042V37.1771C30.6042 37.7683 30.839 38.3353 31.2571 38.7533C31.6751 39.1714 32.2421 39.4062 32.8333 39.4062H38.4062C38.9975 39.4062 39.5645 39.1714 39.9825 38.7533C40.4006 38.3353 40.6354 37.7683 40.6354 37.1771V30.4896H42.8646C43.1602 30.4896 43.4437 30.3722 43.6527 30.1631C43.8617 29.9541 43.9792 29.6706 43.9792 29.375C43.9792 29.0794 43.8617 28.7959 43.6527 28.5869C43.4437 28.3778 43.1602 28.2604 42.8646 28.2604ZM26.1458 40.5208H20.5729V18.2292H26.1458V40.5208ZM38.4062 37.1771H32.8333V21.5729H38.4062V37.1771Z" fill="white"/>
</svg>
