<svg width="295" height="197" viewBox="0 0 295 197" fill="none" xmlns="http://www.w3.org/2000/svg">
<path d="M235.398 3.14844H95.4102V88.1768H235.398V3.14844Z" fill="#EDDCD4" stroke="#972C23" stroke-width="0.617522" stroke-miterlimit="10"/>
<path d="M231.107 3.14844H91.1191V88.1768H231.107V3.14844Z" fill="#DFB28A" stroke="#972C23" stroke-width="0.617522" stroke-miterlimit="10" stroke-linejoin="round"/>
<path d="M224.932 82.0012V9.32324L97.2943 9.32324L97.2943 82.0012L224.932 82.0012Z" fill="#EDDCD4" stroke="#972C23" stroke-width="0.617522" stroke-miterlimit="10"/>
<path d="M107.456 3.14836H102.414V1.75955C102.414 1.34025 102.754 1 103.174 1H106.696C107.115 1 107.456 1.34025 107.456 1.75955V3.14836Z" fill="#DFB28A" stroke="#972C23" stroke-width="0.617522" stroke-miterlimit="10" stroke-linejoin="round"/>
<path d="M218.268 3.14836H213.227V1.75955C213.227 1.34025 213.567 1 213.986 1H217.508C217.928 1 218.268 1.34025 218.268 1.75955V3.14836Z" fill="#DFB28A" stroke="#972C23" stroke-width="0.617522" stroke-miterlimit="10" stroke-linejoin="round"/>
<path d="M106.379 69.9326V72.4638H214.671V69.9326" stroke="#972C23" stroke-width="0.617522" stroke-miterlimit="10" stroke-linejoin="round"/>
<path d="M124.428 69.9326V72.4638" stroke="#972C23" stroke-width="0.617522" stroke-miterlimit="10" stroke-linejoin="round"/>
<path d="M142.477 69.9326V72.4638" stroke="#972C23" stroke-width="0.617522" stroke-miterlimit="10" stroke-linejoin="round"/>
<path d="M160.523 69.9326V72.4638" stroke="#972C23" stroke-width="0.617522" stroke-miterlimit="10" stroke-linejoin="round"/>
<path d="M178.574 69.9326V72.4638" stroke="#972C23" stroke-width="0.617522" stroke-miterlimit="10" stroke-linejoin="round"/>
<path d="M196.621 69.9326V72.4638" stroke="#972C23" stroke-width="0.617522" stroke-miterlimit="10" stroke-linejoin="round"/>
<path d="M198.222 30.3486L106.379 67.2165" stroke="#972C23" stroke-width="0.617522" stroke-miterlimit="10" stroke-linecap="round" stroke-linejoin="round"/>
<path d="M193.986 28.6406L198.387 30.2758L196.753 34.6769" stroke="#972C23" stroke-width="0.617522" stroke-miterlimit="10" stroke-linecap="round" stroke-linejoin="round"/>
<path d="M160.525 45.6621V71.4356" stroke="#972C23" stroke-width="0.617522" stroke-miterlimit="10" stroke-linejoin="round"/>
<path d="M160.342 53.0938H182.867" stroke="#972C23" stroke-width="0.617522" stroke-miterlimit="10" stroke-linecap="round" stroke-linejoin="round"/>
<path d="M205.795 50.3057H182.867V55.8819H205.795V50.3057Z" fill="#DFB28A" stroke="#972C23" stroke-width="0.617522" stroke-miterlimit="10" stroke-linejoin="round"/>
<path d="M130.078 18.252H108.617V22.1041H130.078V18.252Z" fill="#DFB28A" stroke="#972C23" stroke-width="0.617522" stroke-miterlimit="10" stroke-linejoin="round"/>
<path d="M108.615 26.2129H116.916" stroke="#972C23" stroke-width="0.617522" stroke-miterlimit="10" stroke-linecap="round" stroke-linejoin="round"/>
<path d="M113.477 29.5332H120.354" stroke="#972C23" stroke-width="0.617522" stroke-miterlimit="10" stroke-linecap="round" stroke-linejoin="round"/>
<path d="M119.07 26.2129H124.463" stroke="#972C23" stroke-width="0.617522" stroke-miterlimit="10" stroke-linecap="round" stroke-linejoin="round"/>
<path d="M108.66 29.5332H111.577" stroke="#972C23" stroke-width="0.617522" stroke-miterlimit="10" stroke-linecap="round" stroke-linejoin="round"/>
<path d="M126.609 26.2129H129.527" stroke="#972C23" stroke-width="0.617522" stroke-miterlimit="10" stroke-linecap="round" stroke-linejoin="round"/>
<path d="M138.387 39.8253L141.902 38.5143C142.044 38.4612 142.174 38.3809 142.285 38.2778L144.82 35.9121C144.865 35.8707 144.911 35.833 144.961 35.7997C144.961 35.7997 145.155 35.67 145.411 35.6193C145.671 35.5681 148.341 35.6712 151.989 35.8985C152.391 38.2358 152.456 40.0902 152.438 41.3598C152.427 42.091 152.337 42.7826 151.965 43.5582C151.542 44.4394 150.704 44.9976 149.816 45.3527C148.303 45.9573 146.61 45.9289 145.075 45.383L144.605 45.2163C143.323 45.6732 142.039 46.1296 140.757 46.5859L138.387 39.8253Z" fill="#DFB28A" stroke="#ED5F1F" stroke-width="0.617522" stroke-miterlimit="10" stroke-linejoin="round"/>
<path d="M144.606 45.2164C144.606 45.2164 143.927 43.6152 145.679 42.9137C145.679 42.9137 144.007 41.6009 145.477 40.6104" fill="#DFB28A"/>
<path d="M144.606 45.2164C144.606 45.2164 143.927 43.6152 145.679 42.9137C145.679 42.9137 144.007 41.6009 145.477 40.6104" stroke="#ED5F1F" stroke-width="0.617522" stroke-miterlimit="10" stroke-linejoin="round"/>
<path d="M151.405 42.4082C151.405 42.4082 149.643 43.9168 145.678 42.9146L151.405 42.4082Z" fill="#DFB28A"/>
<path d="M151.405 42.4082C151.405 42.4082 149.643 43.9168 145.678 42.9146" stroke="#ED5F1F" stroke-width="0.617522" stroke-miterlimit="10" stroke-linecap="round" stroke-linejoin="round"/>
<path d="M150.697 40.1426C150.697 40.1426 148.322 41.2374 145.754 40.4816L150.697 40.1426Z" fill="#DFB28A"/>
<path d="M150.697 40.1426C150.697 40.1426 148.322 41.2374 145.754 40.4816" stroke="#ED5F1F" stroke-width="0.617522" stroke-miterlimit="10" stroke-linecap="round" stroke-linejoin="round"/>
<path d="M144.652 46.8807L150.25 12.3125" stroke="#040404" stroke-width="0.617522" stroke-miterlimit="10" stroke-linejoin="round"/>
<path d="M145.512 36.457C145.512 36.457 150.617 36.8016 150.279 38.0311C149.942 39.2606 146.737 39.3785 146.737 39.3785C146.737 39.3785 146.61 40.6951 143.889 40.9761" fill="#DFB28A"/>
<path d="M145.512 36.457C145.512 36.457 150.617 36.8016 150.279 38.0311C149.942 39.2606 146.737 39.3785 146.737 39.3785C146.737 39.3785 146.61 40.6951 143.889 40.9761" stroke="#ED5F1F" stroke-width="0.617522" stroke-miterlimit="10" stroke-linecap="round" stroke-linejoin="round"/>
<path d="M99.2846 38.7992C101.154 40.4931 103.045 42.1888 104.959 43.887C109.147 47.6032 113.315 51.2157 117.456 54.7269C124.318 49.3119 131.181 43.8975 138.045 38.4824C140.289 41.0742 142.535 43.6659 144.779 46.2576C138.016 54.3855 131.554 60.142 126.727 63.9861C118.821 70.2823 116.026 70.8708 113.909 70.8974C113.909 70.8974 110.491 70.94 97.248 63.3574C97.9273 55.1716 98.606 46.9851 99.2846 38.7992Z" fill="#ED5F1F"/>
<path d="M79.9766 36.079C81.8971 58.9396 83.8175 81.8003 85.7442 104.661C89.6716 104.698 93.5929 104.723 97.5203 104.76L90.0422 36.0543C88.4984 35.9061 87.0472 35.8752 85.7627 35.8505C84.4906 35.8196 82.3911 35.7826 79.9766 36.079Z" fill="black" stroke="#ED5F1F" stroke-width="0.617522" stroke-miterlimit="10" stroke-linejoin="round"/>
<path d="M60.4141 104.446C68.8556 104.52 77.2971 104.588 85.7448 104.662C83.8181 81.8014 81.8976 58.9407 79.9771 36.0801C78.8841 36.1789 77.365 36.4135 75.6298 36.9878C75.6051 36.994 75.5619 37.0125 75.5063 37.0311C74.7467 37.2843 71.48 38.4143 68.9853 40.7238C68.8 40.8906 68.6209 41.0697 68.4418 41.2549C65.0393 44.8365 64.36 49.3012 64.0204 51.7528C61.3897 70.6613 60.5437 99.6354 60.4141 104.446Z" fill="#ED5F1F" stroke="#ED5F1F" stroke-width="0.617522" stroke-miterlimit="10"/>
<path d="M90.043 36.0557C91.1483 45.6742 92.132 55.5737 92.9675 65.7424C94.0538 78.9691 94.8189 91.795 95.3154 104.187C97.6125 104.48 100.121 104.703 102.816 104.804C105.372 104.899 107.768 104.873 109.978 104.769C109.899 97.722 109.702 90.4686 109.365 83.0206C108.963 74.1364 108.388 65.5429 107.676 57.2564C107.813 53.5081 107.011 50.6113 106.394 48.9038C105.729 47.0642 103.893 42.1858 99.1391 39.0871C96.5906 37.4259 93.9013 36.7176 93.0627 36.5305C92.0376 36.3027 91.0187 36.1545 90.043 36.0557Z" fill="#ED5F1F" stroke="#ED5F1F" stroke-width="0.617522" stroke-miterlimit="10"/>
<path d="M80.1059 37.4823L78.5078 20.4609H88.285L89.8832 37.4823C89.8832 37.4823 89.617 40.2951 86.1502 40.6249C82.6841 40.9552 80.1059 37.4823 80.1059 37.4823Z" fill="#DFB28A" stroke="#972C23" stroke-width="0.617522" stroke-miterlimit="10" stroke-linecap="round" stroke-linejoin="round"/>
<path d="M93.3104 35.0744C87.5798 36.4546 81.6096 31.2075 80.0306 29.7428C79.1309 28.8776 77.3073 26.8768 76.5188 23.754C76.273 22.7969 75.1485 18.373 77.9428 14.2343C80.7482 10.0889 85.3814 9.48682 85.8748 9.43247C86.8622 9.32379 89.7078 9.14224 92.5292 10.8089C96.8031 13.3364 97.7133 18.1679 98.0777 20.0866C98.2716 21.1351 100.065 31.4465 95.0203 34.4217C94.3454 34.82 93.7488 34.9688 93.3104 35.0744Z" fill="#DFB28A" stroke="#972C23" stroke-width="0.617522" stroke-miterlimit="10" stroke-linejoin="round"/>
<path d="M72.5567 20.1976C73.0612 23.3562 74.9514 28.6767 78.065 28.9046C78.3435 28.925 79.5266 29.2801 79.5532 28.5921C79.7953 22.2199 80.1034 20.2815 80.3998 20.2735C80.7135 20.2655 81.2359 22.8801 81.6799 22.8412C82.0869 22.806 82.2493 20.518 82.2962 17.6108C82.5667 17.5669 83.2015 17.4255 83.7542 16.8957C84.6657 16.0213 84.5934 14.8171 84.5798 14.6392C89.8442 13.1133 92.9472 13.8013 94.8424 14.8041C95.5989 15.2049 96.4288 15.7965 97.0982 15.4642C98.5667 14.7362 98.676 9.85345 96.548 8.91605C95.5254 8.46526 94.3076 9.06857 93.8112 9.3514C91.9586 7.50254 90.1388 6.79671 89.0093 6.49474C83.2954 4.967 76.2952 8.70177 76.1599 11.845C76.1476 12.1302 76.1939 12.3649 76.2303 12.5076C75.5412 12.8546 73.4904 13.9989 72.666 16.3442C72.1775 17.7367 72.3486 18.8983 72.5567 20.1976Z" fill="#040404"/>
<path d="M95.7017 23.1474C95.7678 23.9193 95.6653 24.5585 95.4732 24.5745C95.2812 24.5912 95.0718 23.9786 95.0064 23.2067C94.9403 22.4348 95.0428 21.7957 95.2349 21.7796C95.4269 21.763 95.6363 22.3755 95.7017 23.1474Z" fill="#040404"/>
<path d="M89.2465 23.6995C89.3125 24.4714 89.189 25.1124 88.971 25.1309C88.7531 25.1494 88.5227 24.5387 88.4573 23.7668C88.3912 22.9949 88.5147 22.3539 88.7327 22.3354C88.9507 22.3168 89.181 22.9276 89.2465 23.6995Z" fill="#040404"/>
<path d="M93.4365 21.7803L94.309 26.5055L92.5176 26.6587" fill="#DFB28A"/>
<path d="M93.4365 21.7803L94.309 26.5055L92.5176 26.6587" stroke="#972C23" stroke-width="0.617522" stroke-miterlimit="10" stroke-linecap="round" stroke-linejoin="round"/>
<path d="M91.2794 29.9744C91.2794 29.9744 89.3354 30.7815 88.2344 29.1309L91.2794 29.9744Z" fill="#DFB28A"/>
<path d="M91.2794 29.9744C91.2794 29.9744 89.3354 30.7815 88.2344 29.1309" stroke="#972C23" stroke-width="0.617522" stroke-miterlimit="10" stroke-linecap="round" stroke-linejoin="round"/>
<path d="M80.3923 26.657C79.755 26.7113 79.1115 25.2632 78.9547 23.423C78.7978 21.5828 79.1869 20.047 79.8241 19.9927C80.4614 19.9383 81.1049 21.3864 81.2617 23.2267C81.2926 23.591 81.3025 23.9436 81.2932 24.2752" fill="#DFB28A"/>
<path d="M80.3923 26.657C79.755 26.7113 79.1115 25.2632 78.9547 23.423C78.7978 21.5828 79.1869 20.047 79.8241 19.9927C80.4614 19.9383 81.1049 21.3864 81.2617 23.2267C81.2926 23.591 81.3025 23.9436 81.2932 24.2752" stroke="#972C23" stroke-width="0.617522" stroke-miterlimit="10" stroke-linecap="round" stroke-linejoin="round"/>
<path d="M79.7703 33.9131C77.6584 35.4618 75.5465 37.01 73.4345 38.5587C74.2904 40.3687 75.1463 42.178 76.0022 43.9879C74.8283 45.2106 73.6544 46.4333 72.4805 47.6566C75.7008 53.6756 78.9206 59.6946 82.141 65.7136" fill="white"/>
<path d="M89.7266 35.8086C92.3566 37.8544 94.9866 39.9003 97.6166 41.9461L95.3318 46.0181L100.024 49.2842C97.8204 54.5053 95.6165 59.7264 93.4132 64.9476" fill="white"/>
<path d="M68.9836 40.7236C66.0683 43.8804 61.9445 48.6946 57.6786 55.0643C50.6716 65.5282 49.6978 71.801 48.5356 78.2936C47.6705 83.1264 52.4186 87.4441 58.5993 87.4441H72.4028C71.2629 71.8708 70.1235 56.2969 68.9836 40.7236Z" fill="#ED5F1F" stroke="#ED5F1F" stroke-width="0.617522" stroke-miterlimit="10" stroke-linecap="round" stroke-linejoin="round"/>
<path d="M67.1109 82.4103L65.4893 73.1846C65.1731 71.3839 63.4638 70.1754 61.6613 70.4767L53.7656 71.7958" stroke="#6C1C15" stroke-width="0.617522" stroke-miterlimit="10" stroke-linecap="round"/>
<path d="M94.6127 84.8914H71.4668L64.918 53.4707H88.0639L94.6127 84.8914Z" fill="#EDDCD4"/>
<path d="M65.1465 73.0593L67.2115 68.2421L74.7434 66.9805L75.3936 68.4712L69.9644 70.4596L69.9261 71.3772L77.8403 72.4863V75.3917H76.5021L76.6935 77.9155L74.7051 78.5269V80.477H66.5229L65.1465 73.0593Z" fill="#DFB28A"/>
<path d="M76.6639 75.392C75.5585 75.3642 74.4081 75.3105 73.2157 75.2246C72.1899 75.1505 71.1988 75.0573 70.2441 74.9492" fill="#DFB28A"/>
<path d="M74.799 78.4979C73.9172 78.5473 72.9224 78.5547 71.8368 78.4818C70.8636 78.4164 69.9731 78.2972 69.1777 78.1533" fill="#DFB28A"/>
<path d="M105.788 195.884V202.746L118.107 206.365C118.741 206.551 119.177 207.132 119.177 207.794C119.177 208.612 118.516 209.277 117.697 209.282L93.1523 209.441C93.5124 204.773 93.8724 200.107 94.2324 195.439C101.651 195.725 98.3698 195.598 105.788 195.884Z" fill="#040404"/>
<path d="M76.2958 196.745V203.171L87.8324 206.56C88.4258 206.734 88.834 207.279 88.834 207.898C88.834 208.664 88.2152 209.287 87.4483 209.292L64.4629 209.44C64.8001 205.069 65.1372 200.699 65.4744 196.328C72.4215 196.596 69.3493 196.478 76.2958 196.745Z" fill="#040404"/>
<path d="M62.0879 198.933C62.7171 167.447 63.347 135.961 63.9763 104.476C72.6648 104.465 81.3539 104.453 90.0425 104.442L90.0394 104.466C96.34 104.458 102.641 104.45 108.942 104.442L107.462 198.933H91.9926L85.9008 135.79L77.5574 198.933H62.0879Z" fill="#040404" stroke="#040404" stroke-width="0.617522" stroke-miterlimit="10"/>
<path d="M108.587 69.1816L107.713 57.708" stroke="#6C1C15" stroke-width="0.617522" stroke-miterlimit="10" stroke-linecap="round"/>
<path d="M293.02 155.765H253.518V160.325H293.02V155.765Z" fill="#EDDCD4" stroke="#972C23" stroke-width="0.617522" stroke-miterlimit="10"/>
<path d="M293.02 160.325H253.518V212.711H293.02V160.325Z" fill="#EDDCD4" stroke="#972C23" stroke-width="0.617522" stroke-miterlimit="10"/>
<path d="M273.27 155.765H264.795V212.71H273.27V155.765Z" fill="#040404" stroke="#040404" stroke-width="0.617522" stroke-miterlimit="10"/>
<path d="M275.193 111.776H0.5V119.886H275.193V111.776Z" fill="#EDDCD4" stroke="#972C23" stroke-width="0.617522" stroke-miterlimit="10"/>
<path d="M124.64 111.776H0.5V119.886H124.64V111.776Z" fill="#DFB28A" stroke="#972C23" stroke-width="0.617522" stroke-miterlimit="10" stroke-linejoin="round"/>
<path d="M162.453 119.886H153.979V212.71H162.453V119.886Z" fill="#DFB28A" stroke="#972C23" stroke-width="0.617522" stroke-miterlimit="10" stroke-linejoin="round"/>
<path d="M162.453 119.886V123.006L153.979 126.927V119.886H162.453Z" fill="#972C23"/>
<path d="M12.7796 119.886H4.30469V212.71H12.7796V119.886Z" fill="#DFB28A" stroke="#972C23" stroke-width="0.617522" stroke-miterlimit="10" stroke-linejoin="round"/>
<path d="M12.7789 119.886V123.006L4.30469 126.927V119.886H12.7789Z" fill="#040404" stroke="#040404" stroke-width="0.617522" stroke-miterlimit="10"/>
<path d="M119.854 119.886H111.379V212.71H119.854V119.886Z" fill="#DFB28A" stroke="#972C23" stroke-width="0.617522" stroke-miterlimit="10" stroke-linejoin="round"/>
<path d="M119.854 119.886V123.006L111.379 126.927V119.886H119.854Z" fill="#040404" stroke="#040404" stroke-width="0.617522" stroke-miterlimit="10"/>
<path d="M269.528 119.886H261.053V212.71H269.528V119.886Z" fill="#DFB28A" stroke="#972C23" stroke-width="0.617522" stroke-miterlimit="10" stroke-linejoin="round"/>
<path d="M269.528 119.886V123.006L261.053 126.927V119.886H269.528Z" fill="#040404" stroke="#040404" stroke-width="0.617522" stroke-miterlimit="10"/>
<path d="M199.584 111.776H230.245L225.399 91.9873H194.738L199.584 111.776Z" fill="#EDDCD4" stroke="#ED5F1F" stroke-width="0.617522" stroke-miterlimit="10"/>
<path d="M224.833 109.433L221.135 94.332H197.725L201.422 109.433H224.833Z" fill="#DFB28A" stroke="#ED5F1F" stroke-width="0.617522" stroke-miterlimit="10" stroke-linejoin="round"/>
<path d="M226.714 101.883C226.85 102.511 226.452 103.019 225.824 103.019C225.196 103.019 224.576 102.511 224.439 101.883C224.302 101.255 224.7 100.745 225.329 100.745C225.957 100.745 226.577 101.255 226.714 101.883Z" fill="#EDDCD4" stroke="#ED5F1F" stroke-width="0.617522" stroke-miterlimit="10"/>
<path d="M225.117 75.8726C225.414 78.008 225.65 79.7049 225.947 81.8397C226.087 82.8481 226.552 83.7917 227.291 84.4913C229.641 86.7132 232.745 87.6271 235.471 86.8287C235.495 86.8219 235.517 86.8151 235.541 86.8077C238.147 86.0154 239.378 83.0229 238.223 80.5565C237.232 78.4409 236.242 76.3252 235.251 74.209" fill="#DFB28A"/>
<path d="M236.986 65.8169C236.449 69.0651 234.769 71.2511 233.929 72.2144C230.78 77.5745 225.16 80.1434 220.893 78.7849C217.417 77.6733 215.793 74.2399 215.101 70.8127C214.582 70.5842 214.064 70.3557 213.545 70.1272L214.65 65.9898C214.656 65.2117 214.694 64.5201 214.749 63.9582C214.953 61.9821 215.459 56.9925 219.584 54.0469C222.308 52.1079 225.216 52.0462 226.229 52.0771C226.735 52.0894 231.496 52.2932 234.707 56.27C237.906 60.2283 237.147 64.8289 236.986 65.8169Z" fill="#DFB28A"/>
<path d="M216.085 66.1437C216.085 66.9341 215.962 67.5745 215.81 67.5745C215.658 67.5745 215.535 66.9341 215.535 66.1437C215.535 65.3533 215.658 64.7129 215.81 64.7129C215.962 64.7129 216.085 65.3533 216.085 66.1437Z" fill="#ED5F1F"/>
<path d="M221.427 71.3519C222.079 71.3519 222.607 69.8242 222.607 67.9401C222.607 66.0561 222.079 64.5283 221.427 64.5283C220.775 64.5283 220.246 66.0554 220.246 67.9401C220.246 68.3193 220.268 68.6836 220.307 69.0245" fill="#DFB28A"/>
<path d="M219.254 128.59L228.498 198.661H241.044V129.767L219.254 128.59Z" fill="#ED5F1F"/>
<path d="M222.666 154.456L223.727 162.495L241.044 154.456V147.861H222.666V154.456Z" fill="#6C1C15"/>
<path d="M198.133 128.59L207.377 198.661H219.923V129.767L198.133 128.59Z" fill="#ED5F1F"/>
<path d="M219.924 135.356C213.99 135.434 208.057 135.511 202.123 135.589C208.057 144.128 213.99 152.666 219.924 161.204C219.924 152.588 219.924 143.972 219.924 135.356Z" fill="#6C1C15"/>
<path d="M198.133 128.59C198.133 132.332 201.167 135.367 204.91 135.367H249.874C254.08 135.367 257.314 131.647 256.729 127.481C256.53 126.06 255.753 121.318 255.554 119.897L204.654 121.817C201.014 121.954 198.133 124.946 198.133 128.59Z" fill="#ED5F1F"/>
<path d="M238.83 78.0015C238.429 77.3265 238.028 76.6516 237.627 75.9766C237.426 75.6376 237.125 75.4042 236.785 75.3128C235.307 74.917 233.384 74.5872 231.142 74.6687C228.458 74.7663 226.232 75.419 224.622 76.0637C224.269 76.2051 223.98 76.5065 223.815 76.9048L223.053 78.7438C225.433 78.222 228.217 77.8026 231.334 77.6835C234.111 77.5779 236.63 77.7304 238.83 78.0015Z" fill="white"/>
<path d="M264.603 111.606H257.088C257.236 116.175 257.039 121.091 256.39 126.377H218.092C217.828 126.172 217.336 125.726 217.082 124.995C216.554 123.479 217.532 122.13 217.632 121.996C216.672 118.592 215.711 115.189 214.751 111.784H191.199C189.55 105.146 209.063 86.9474 209.063 86.9474C210.978 85.1751 220.543 76.641 234.45 77.4684C234.775 77.4876 235.096 77.5117 235.413 77.5401C243.37 78.2545 250.632 82.3963 255.524 88.7129C260.866 95.6131 268.371 106.881 264.603 111.606Z" fill="white"/>
<path d="M214.751 111.785C213.427 107.321 212.105 102.855 210.781 98.3906L214.751 111.785Z" fill="white"/>
<path d="M242.53 68.0705C243.313 69.5495 239.531 74.2278 234.551 75.4622C233.519 75.7179 231.064 76.1656 228.241 75.1689C223.328 73.4343 221.507 68.7702 221.236 68.0378C221.183 68.0983 220.903 68.4132 220.556 68.6788C220.486 68.7319 219.904 69.0851 219.469 69.0203C218.782 68.9177 218.393 67.742 218.153 66.7496C217.834 65.4386 217.507 63.3483 217.767 60.4768C216.212 62.4788 215.378 62.8475 214.902 62.6721C213.598 62.1905 213.38 57.0274 216.025 53.8552C216.669 53.0833 217.369 52.5645 217.93 52.2218C216.21 51.545 215.367 50.9219 215.401 50.352C215.453 49.4985 217.471 48.7649 221.454 48.1511C220.576 47.2187 220.483 46.7073 220.611 46.4085C221.312 44.7652 230.164 45.9929 236.972 50.4804C239.091 51.8766 240.513 52.8437 241.521 54.7357C244.344 60.0372 240.564 66.5248 239.999 67.4653C241.768 67.3406 242.338 67.7086 242.53 68.0705Z" fill="#040404"/>
<path d="M213.002 154.456H255.87C257.682 154.456 259.151 152.987 259.151 151.174C259.151 149.362 257.682 147.893 255.87 147.893H213.002C211.19 147.893 209.721 149.362 209.721 151.174C209.721 152.987 211.19 154.456 213.002 154.456Z" fill="#DFB28A" stroke="#ED5F1F" stroke-width="0.617522" stroke-miterlimit="10" stroke-linejoin="round"/>
<path d="M234.956 130.906H261.435C265.062 130.906 268.03 127.938 268.03 124.311V97.8324C268.03 94.2051 265.062 91.2373 261.435 91.2373H234.956C231.329 91.2373 228.361 94.2051 228.361 97.8324V124.311C228.361 127.938 231.329 130.906 234.956 130.906Z" fill="#EDDCD4" stroke="#ED5F1F" stroke-width="0.617522" stroke-miterlimit="10"/>
<path d="M207.729 147.893H261.764C265.211 147.893 268.032 145.073 268.032 141.625C268.032 138.177 265.211 135.356 261.764 135.356H207.729C204.282 135.356 201.461 138.177 201.461 141.625C201.46 145.073 204.281 147.893 207.729 147.893Z" fill="#EDDCD4" stroke="#ED5F1F" stroke-width="0.617522" stroke-miterlimit="10"/>
<path d="M233.391 154.454H248.255C252.977 154.454 256.817 150.613 256.817 145.892V116.827C256.817 115.006 255.34 113.529 253.519 113.529C251.698 113.529 250.222 115.006 250.222 116.827V145.892C250.222 146.977 249.339 147.859 248.255 147.859H233.391C231.57 147.859 230.094 149.336 230.094 151.157C230.094 152.978 231.57 154.454 233.391 154.454Z" fill="#DFB28A" stroke="#ED5F1F" stroke-width="0.617522" stroke-miterlimit="10" stroke-linejoin="round"/>
<path d="M249.209 122.721H257.829C258.991 122.721 259.934 121.779 259.934 120.616V111.996C259.934 110.834 258.991 109.891 257.829 109.891H249.209C248.046 109.891 247.104 110.834 247.104 111.996V120.616C247.104 121.779 248.046 122.721 249.209 122.721Z" fill="#DFB28A" stroke="#ED5F1F" stroke-width="0.617522" stroke-miterlimit="10" stroke-linejoin="round"/>
<path d="M250.326 111.658V120.951" stroke="#ED5F1F" stroke-width="0.617522" stroke-miterlimit="10" stroke-linecap="round" stroke-linejoin="round"/>
<path d="M254.513 210.776L238.34 203.971V157.132L231.078 160.491V203.996L214.973 210.776C213.961 211.202 214.27 212.709 215.369 212.709H254.124C255.224 212.709 255.526 211.202 254.513 210.776Z" fill="#EDDCD4" stroke="#ED5F1F" stroke-width="0.617522" stroke-miterlimit="10"/>
<path d="M238.343 154.457V157.131L231.08 160.49V154.457H238.343Z" fill="#EDDCD4" stroke="#ED5F1F" stroke-width="0.617522" stroke-miterlimit="10"/>
<path d="M238.343 154.457V157.131L231.08 160.49V154.457H238.343Z" fill="#040404" stroke="#040404" stroke-width="0.617522" stroke-miterlimit="10"/>
<path d="M107.728 110.083H70.5293L76.9126 84.0156H114.111L107.728 110.083Z" fill="#EDDCD4" stroke="#972C23" stroke-width="0.617522" stroke-miterlimit="10"/>
<path d="M74.4668 106.995L79.3384 87.1025H110.178L105.308 106.995H74.4668Z" fill="#DFB28A" stroke="#972C23" stroke-width="0.617522" stroke-miterlimit="10" stroke-linejoin="round"/>
<path d="M107.729 110.083H51.6387V111.777H107.729V110.083Z" fill="#DFB28A" stroke="#972C23" stroke-width="0.617522" stroke-miterlimit="10" stroke-linejoin="round"/>
<path d="M107.73 110.083H85.6094V111.777H107.73V110.083Z" fill="#EDDCD4" stroke="#972C23" stroke-width="0.617522" stroke-miterlimit="10"/>
<path d="M114.948 98.292H104.053V111.777H114.948V98.292Z" fill="#DFB28A" stroke="#972C23" stroke-width="0.617522" stroke-miterlimit="10" stroke-linejoin="round"/>
<path d="M104.053 100.359C105.413 100.359 105.413 101.594 106.774 101.594C108.136 101.594 108.136 100.359 109.497 100.359C110.86 100.359 110.86 101.594 112.223 101.594C113.585 101.594 113.585 100.359 114.948 100.359" stroke="#972C23" stroke-width="0.617522" stroke-miterlimit="10"/>
<path d="M104.053 103.157C105.413 103.157 105.413 104.392 106.774 104.392C108.136 104.392 108.136 103.157 109.497 103.157C110.86 103.157 110.86 104.392 112.223 104.392C113.585 104.392 113.585 103.157 114.948 103.157" stroke="#972C23" stroke-width="0.617522" stroke-miterlimit="10"/>
<path d="M104.053 105.953C105.413 105.953 105.413 107.188 106.774 107.188C108.136 107.188 108.136 105.953 109.497 105.953C110.86 105.953 110.86 107.188 112.223 107.188C113.585 107.188 113.585 105.953 114.948 105.953" stroke="#972C23" stroke-width="0.617522" stroke-miterlimit="10"/>
<path d="M104.053 108.749C105.413 108.749 105.413 109.984 106.774 109.984C108.136 109.984 108.136 108.749 109.497 108.749C110.86 108.749 110.86 109.984 112.223 109.984C113.585 109.984 113.585 108.749 114.948 108.749" stroke="#972C23" stroke-width="0.617522" stroke-miterlimit="10"/>
<path d="M60.8318 68.2625L59.6276 68.8491C59.1892 72.8321 57.6701 77.445 53.5327 78.7727C49.2656 80.1374 43.6462 77.5623 40.4968 72.2023C39.657 71.2451 37.9773 69.0529 37.4463 65.8109C37.2795 64.8167 36.52 60.2223 39.7188 56.2579C42.9299 52.2872 47.691 52.0772 48.1973 52.0649C49.2101 52.0402 52.1186 52.1019 54.8419 54.0409C58.9669 56.9803 59.4733 61.9699 59.6771 63.9522L60.8318 68.2625Z" fill="#DFB28A" stroke="#ED5F1F" stroke-width="0.617522" stroke-miterlimit="10" stroke-linejoin="round"/>
<path d="M58.8529 63.9806C58.8529 64.771 58.7294 65.4114 58.5775 65.4114C58.4256 65.4114 58.3027 64.7704 58.3027 63.9806C58.3027 63.1902 58.4256 62.5498 58.5775 62.5498C58.7294 62.5498 58.8529 63.1902 58.8529 63.9806Z" fill="#040404"/>
<path d="M38.8856 86.7976C36.9466 85.6527 35.9092 83.166 36.2037 80.5464C36.8027 79.2052 37.4956 77.7904 38.2984 76.3251C39.3957 74.3224 40.5276 72.5353 41.6274 70.96C41.8522 70.7896 43.48 69.5996 45.6315 70.0906C47.2704 70.4642 48.3306 71.648 48.913 72.7169C49.3613 73.5394 49.499 74.4966 49.3699 75.4241C49.0729 77.5595 48.7759 79.6943 48.4795 81.8296C48.3096 83.0505 47.7675 83.702 47.1345 84.4813C45.5024 86.4926 41.7917 88.5131 38.8856 86.7976Z" fill="#DFB28A" stroke="#ED5F1F" stroke-width="0.617522" stroke-miterlimit="10" stroke-linejoin="round"/>
<path d="M33.963 64.0911C34.1989 67.1009 35.1981 69.416 35.907 70.7678C34.3465 71.9145 34.215 72.7568 34.2563 73.1891C34.4379 75.0837 38.6179 76.1069 41.0244 76.3255C42.6429 76.4725 46.3067 76.8059 49.6635 74.2346C53.4403 71.3421 53.8917 67.0231 53.9559 66.2926C54.0621 66.4143 55.0742 67.5524 55.7226 67.2751C56.0376 67.1405 56.2673 66.6742 56.2673 65.5973C56.2673 62.1836 55.8819 58.9373 55.8819 58.9373C55.8819 58.9373 57.464 58.208 58.7843 57.0255C59.0529 56.7846 60.5794 54.8209 60.1188 52.3897C60.0305 51.9223 59.5426 49.4831 57.7524 49.1428C56.3154 48.8699 55.1026 50.1531 54.9723 50.2951C53.6045 49.6374 51.3209 48.7618 48.4161 48.6846C47.1514 48.6506 40.9602 48.4987 36.8975 53.2333C33.4153 57.291 33.8241 62.3213 33.963 64.0911Z" fill="#040404"/>
<path d="M53.7647 69.6049C53.1126 69.6049 52.584 68.0777 52.584 66.1931C52.584 64.309 53.1126 62.7812 53.7647 62.7812C54.4168 62.7812 54.9454 64.3084 54.9454 66.1931C54.9454 66.566 54.9244 66.9254 54.8861 67.2614" fill="#DFB28A"/>
<path d="M53.7647 69.6049C53.1126 69.6049 52.584 68.0777 52.584 66.1931C52.584 64.309 53.1126 62.7812 53.7647 62.7812C54.4168 62.7812 54.9454 64.3084 54.9454 66.1931C54.9454 66.566 54.9244 66.9254 54.8861 67.2614" stroke="#ED5F1F" stroke-width="0.617522" stroke-miterlimit="10" stroke-linecap="round" stroke-linejoin="round"/>
<path d="M55.1752 128.579L45.9309 198.649H33.3848V129.756L55.1752 128.579Z" fill="#ED5F1F"/>
<path d="M33.3848 152.784V164.41L51.63 155.451L52.6267 147.894L33.3848 152.784Z" fill="#6C1C15"/>
<path d="M83.2225 129.494C82.7927 130.903 82.1665 132.544 81.2371 134.286C79.6939 137.181 77.8735 139.309 76.4057 140.762C59.049 138.96 41.6917 137.159 24.3344 135.357C20.1278 135.357 16.8939 131.637 17.4787 127.471C17.6781 126.05 18.455 121.308 18.6544 119.888L76.7002 122.721C77.1726 122.739 79.4803 122.876 81.3267 124.793C83.1731 126.709 83.2225 129.021 83.2225 129.494Z" fill="#ED5F1F"/>
<path d="M83.2233 129.493C80.1931 152.545 77.1623 175.597 74.1321 198.649H61.5859V129.756C68.7986 129.668 76.0112 129.581 83.2233 129.493Z" fill="#ED5F1F"/>
<path d="M61.8077 135.356C66.6868 135.324 71.5664 135.292 76.4455 135.259C71.4929 144.863 66.5404 154.467 61.5879 164.072L61.8077 135.356Z" fill="#6C1C15"/>
<path d="M89.8842 103.992C89.8842 103.992 89.8891 104.034 89.8965 104.111C89.978 104.915 90.4053 109.526 89.518 109.41C88.5466 109.282 88.2539 104.926 88.2539 104.926L89.8885 104.034" fill="#DFB28A"/>
<path d="M89.8842 103.992C89.8842 103.992 89.8891 104.034 89.8965 104.111C89.978 104.915 90.4053 109.526 89.518 109.41C88.5466 109.282 88.2539 104.926 88.2539 104.926L89.8885 104.034" stroke="#ED5F1F" stroke-width="0.617522" stroke-miterlimit="10" stroke-linejoin="round"/>
<path d="M87.7385 103.539C87.7385 103.539 87.7447 103.581 87.7558 103.658C87.8694 104.467 88.4746 109.1 87.4316 108.964C86.2885 108.815 85.8477 104.438 85.8477 104.438L87.7447 103.58" fill="#DFB28A"/>
<path d="M87.7385 103.539C87.7385 103.539 87.7447 103.581 87.7558 103.658C87.8694 104.467 88.4746 109.1 87.4316 108.964C86.2885 108.815 85.8477 104.438 85.8477 104.438L87.7447 103.58" stroke="#ED5F1F" stroke-width="0.617522" stroke-miterlimit="10" stroke-linejoin="round"/>
<path d="M76.2971 105.621C76.4941 105.12 77.2037 103.393 78.9315 102.399C79.1661 102.264 79.3977 102.154 79.7621 102.011C80.7717 101.614 82.5576 100.913 84.8523 100.95C89.3058 101.02 91.7673 103.806 91.9068 104.085C91.9667 104.205 92.0063 104.327 92.0063 104.327C92.0946 104.638 92.0019 104.92 92.4731 106.92C92.7738 108.196 93.0876 109.255 92.6349 109.586C92.533 109.661 92.4274 109.673 92.3891 109.677C91.4443 109.782 90.3414 107.09 90.1624 106.646C89.7634 106.402 89.3645 106.159 88.9662 105.916C88.8501 106.259 88.6037 106.837 88.0714 107.334C87.3854 107.974 86.5937 108.134 86.2003 108.214C84.6917 108.52 80.8563 108.436 75.8223 107.828C75.8482 107.309 75.9439 106.514 76.2971 105.621Z" fill="#DFB28A" stroke="#ED5F1F" stroke-width="0.617522" stroke-miterlimit="10" stroke-linejoin="round"/>
<path d="M73.8101 111.777C77.2231 111.866 79.8896 111.448 81.7033 111.039C84.1721 110.484 84.7032 109.807 84.9366 109.523C86.1568 108.037 85.8746 103.076 82.8988 100.756C81.949 100.016 81.5396 100.18 79.0837 99.2342C76.6735 98.3067 74.8302 97.2878 73.6699 96.5869C73.7169 101.651 73.7638 106.714 73.8101 111.777Z" fill="white" stroke="#ED5F1F" stroke-width="0.617522" stroke-miterlimit="10"/>
<path d="M79.7244 106.426C79.4651 108.389 78.1065 110.236 76.4577 111.1C72.3574 113.255 66.4107 109.408 63.1316 107.29C62.1559 106.66 61.384 106.08 60.8591 105.666C59.6951 111 58.5317 116.334 57.3683 121.667C57.6456 121.922 58.5354 122.804 58.7441 124.253C58.9047 125.369 58.5786 126.246 58.4138 126.62C44.8839 126.535 31.354 126.45 17.8247 126.365C17.1763 121.086 16.9787 116.17 17.1269 111.6H9.60547C9.86483 108.204 10.7479 101.59 14.4036 94.6557C17.4048 88.9498 21.184 85.1211 22.4993 83.8429C22.8698 83.4847 23.1848 83.1945 23.4071 82.9907C26.2415 81.1196 31.9659 77.9208 39.759 77.4577C53.6656 76.6302 63.2372 85.1644 65.1454 86.9428C69.0296 91.3643 71.8887 94.5816 73.3646 96.2427C78.2177 101.689 80.0764 103.715 79.7244 106.426Z" fill="white" stroke="#ED5F1F" stroke-width="0.617522" stroke-miterlimit="10" stroke-linejoin="round"/>
<path d="M60.8574 105.666L63.9759 93.1924" stroke="#ED5F1F" stroke-width="0.617522" stroke-miterlimit="10" stroke-linecap="round"/>
<path d="M61.7031 102.281L65.4367 97.8408" stroke="#ED5F1F" stroke-width="0.617522" stroke-miterlimit="10" stroke-linecap="round" stroke-linejoin="round"/>
<path d="M34.9883 78.0119C35.3891 77.3611 35.7898 76.7096 36.1912 76.0587C36.3925 75.7314 36.6926 75.506 37.0329 75.4184C38.5106 75.0367 40.4336 74.7187 42.6764 74.7971C45.3602 74.891 47.5863 75.5209 49.1962 76.1433C49.5494 76.2798 49.8391 76.57 50.0039 76.9548L50.766 78.7289C48.386 78.2256 45.6016 77.8205 42.4844 77.7063C39.7068 77.6032 37.1879 77.7507 34.9883 78.0119Z" fill="white" stroke="#ED5F1F" stroke-width="0.617522" stroke-miterlimit="10"/>
<path d="M60.9665 210.776L44.7936 203.971V157.132L37.5316 160.491V203.996L21.4266 210.776C20.4139 211.202 20.7226 212.709 21.8218 212.709H60.5775C61.6767 212.709 61.9793 211.202 60.9665 210.776Z" fill="#EDDCD4" stroke="#ED5F1F" stroke-width="0.617522" stroke-miterlimit="10"/>
<path d="M44.7933 154.457V157.131L37.5312 160.49V154.457H44.7933Z" fill="#EDDCD4" stroke="#ED5F1F" stroke-width="0.617522" stroke-miterlimit="10"/>
<path d="M44.7933 154.457V157.131L37.5312 160.49V154.457H44.7933Z" fill="#040404" stroke="#040404" stroke-width="0.617522" stroke-miterlimit="10"/>
<path d="M62.6323 154.456H19.7639C17.9515 154.456 16.4824 152.987 16.4824 151.174C16.4824 149.362 17.9515 147.893 19.7639 147.893H62.6323C64.4447 147.893 65.9138 149.362 65.9138 151.174C65.9132 152.987 64.4441 154.456 62.6323 154.456Z" fill="#DFB28A" stroke="#ED5F1F" stroke-width="0.617522" stroke-miterlimit="10" stroke-linejoin="round"/>
<path d="M40.6767 130.906H14.1987C10.5713 130.906 7.60352 127.938 7.60352 124.311V97.8324C7.60352 94.2051 10.5713 91.2373 14.1987 91.2373H40.6767C44.3041 91.2373 47.2719 94.2051 47.2719 97.8324V124.311C47.2719 127.938 44.3041 130.906 40.6767 130.906Z" fill="#EDDCD4" stroke="#ED5F1F" stroke-width="0.617522" stroke-miterlimit="10"/>
<path d="M67.9057 147.893H13.872C10.4244 147.893 7.60352 145.073 7.60352 141.625C7.60352 138.177 10.4244 135.356 13.872 135.356H67.9063C71.354 135.356 74.1748 138.177 74.1748 141.625C74.1748 145.073 71.354 147.893 67.9057 147.893Z" fill="#EDDCD4" stroke="#ED5F1F" stroke-width="0.617522" stroke-miterlimit="10"/>
<path d="M42.2421 154.454H27.3783C22.6568 154.454 18.8164 150.613 18.8164 145.892V116.827C18.8164 115.006 20.2929 113.529 22.114 113.529C23.935 113.529 25.4115 115.006 25.4115 116.827V145.892C25.4115 146.977 26.294 147.859 27.3783 147.859H42.2421C44.0632 147.859 45.5396 149.336 45.5396 151.157C45.5396 152.978 44.0632 154.454 42.2421 154.454Z" fill="#DFB28A" stroke="#ED5F1F" stroke-width="0.617522" stroke-miterlimit="10" stroke-linejoin="round"/>
<path d="M26.4243 122.721H17.805C16.6422 122.721 15.6992 121.779 15.6992 120.616V111.996C15.6992 110.834 16.6422 109.891 17.805 109.891H26.4243C27.5871 109.891 28.5301 110.834 28.5301 111.996V120.616C28.5301 121.779 27.5871 122.721 26.4243 122.721Z" fill="#DFB28A" stroke="#ED5F1F" stroke-width="0.617522" stroke-miterlimit="10" stroke-linejoin="round"/>
<path d="M25.6719 111.658V120.951" stroke="#ED5F1F" stroke-width="0.617522" stroke-miterlimit="10" stroke-linecap="round" stroke-linejoin="round"/>
<path d="M170.042 68.4406C169.446 73.4827 166.096 80.9053 160.784 81.5611C154.238 82.3688 146.963 72.6095 147.889 64.5873C147.987 63.7345 148.466 59.4711 152.141 56.5651C156.157 53.3886 160.873 54.2302 161.373 54.3284C162.368 54.5236 165.211 55.2201 167.457 57.7094C170.863 61.483 170.275 66.4652 170.042 68.4406Z" fill="#DFB28A" stroke="#ED5F1F" stroke-width="0.617522" stroke-miterlimit="10" stroke-linejoin="round"/>
<path d="M162.305 86.8028C165.047 85.7388 166.246 82.6821 166.383 80.5516C166.409 80.1496 165.919 78.4168 164.938 74.9674C164.175 72.2824 163.949 71.5722 163.17 70.938C161.688 69.7302 159.705 70.0229 159.289 70.0957C157.38 70.4286 156.279 71.7174 155.997 72.0582C155.736 72.3738 155.361 72.8974 154.45 76.9502C153.801 79.8334 153.722 80.7665 153.82 81.8348C153.9 82.7049 153.882 83.6578 154.573 84.4865C155.498 85.5962 156.528 86.2063 157.239 86.5021C157.899 86.7756 160.061 87.6741 162.305 86.8028Z" fill="#DFB28A" stroke="#ED5F1F" stroke-width="0.617522" stroke-miterlimit="10" stroke-linejoin="round"/>
<path d="M149.29 67.3537C149.586 69.2143 149.304 70.8063 148.659 70.9082C148.015 71.0107 147.253 69.5848 146.957 67.7242C146.661 65.863 146.944 64.2717 147.588 64.1691C148.232 64.0679 148.994 65.4931 149.29 67.3537Z" fill="#DFB28A" stroke="#ED5F1F" stroke-width="0.617522" stroke-miterlimit="10" stroke-linejoin="round"/>
<path d="M171.56 67.707C171.292 69.5719 170.552 71.0089 169.907 70.9168C169.261 70.8242 168.954 69.2372 169.222 67.3723C169.489 65.5074 170.229 64.0704 170.875 64.1624C171.521 64.2544 171.827 65.842 171.56 67.707Z" fill="#DFB28A" stroke="#ED5F1F" stroke-width="0.617522" stroke-miterlimit="10" stroke-linejoin="round"/>
<path d="M146.832 131.113L156.076 201.184H168.623V132.291L146.832 131.113Z" fill="#ED5F1F"/>
<path d="M151.009 162.781C156.879 160.302 162.75 157.823 168.622 155.344C168.622 152.85 168.622 150.355 168.622 147.861L149.045 147.894C149.699 152.856 150.354 157.819 151.009 162.781Z" fill="#6C1C15"/>
<path d="M125.711 131.113L134.955 201.184H147.501V132.291L125.711 131.113Z" fill="#ED5F1F"/>
<path d="M125.711 131.114C125.711 134.857 128.745 137.891 132.488 137.891H177.452C179.555 137.891 181.415 136.961 182.676 135.511C183.01 135.127 183.837 134.03 184.307 130.006C184.519 128.191 184.682 125.572 184.377 122.371C166.995 123.028 149.614 123.685 132.232 124.342C128.592 124.479 125.711 127.471 125.711 131.114Z" fill="#ED5F1F"/>
<path d="M141.779 135.589H131.006L147.502 162.167L147.423 135.589H141.779Z" fill="#6C1C15"/>
<path d="M192.181 111.6H184.666C184.814 116.164 184.617 121.085 183.968 126.365H145.67C144.558 121.505 143.447 116.639 142.329 111.779H118.777C117.128 105.141 136.642 86.9425 136.642 86.9425C138.556 85.1702 148.121 76.6361 162.028 77.4636C169.821 77.9267 175.545 81.1255 178.386 82.9965C178.386 82.9965 197.795 104.56 192.181 111.6Z" fill="white" stroke="#ED5F1F" stroke-width="0.617522" stroke-miterlimit="10"/>
<path d="M142.33 111.778L138.479 97.0479" stroke="#ED5F1F" stroke-width="0.617522" stroke-miterlimit="10" stroke-linecap="round" stroke-linejoin="round"/>
<path d="M140.402 105.207L136.867 102.569" stroke="#ED5F1F" stroke-width="0.617522" stroke-miterlimit="10" stroke-linecap="round" stroke-linejoin="round"/>
<path d="M148.66 70.9083C139.243 79.0775 138.897 92.8167 146.235 100.207C152.449 106.464 163.198 107.186 169.841 102.243C178.221 96.0081 179.734 81.011 169.908 70.9163L170.392 64.3552C170.392 64.3552 171.754 54.0395 159.719 53.0125C159.719 53.0125 160.157 50.4078 155.241 50.9216C150.326 51.4354 157.956 53.3059 157.956 53.3059C156.883 53.4164 151.894 54.0395 149.46 57.9397C148.203 59.9541 148.067 62.1395 147.941 64.1644C147.763 67.029 148.234 69.3818 148.66 70.9083Z" fill="#040404"/>
<path d="M183.75 210.776L167.577 203.971V157.132L160.315 160.491V203.996L144.21 210.776C143.197 211.202 143.506 212.709 144.605 212.709H183.361C184.46 212.709 184.762 211.202 183.75 210.776Z" fill="#EDDCD4" stroke="#ED5F1F" stroke-width="0.617522" stroke-miterlimit="10"/>
<path d="M167.577 154.457V157.131L160.314 160.49V154.457H167.577Z" fill="#EDDCD4" stroke="#ED5F1F" stroke-width="0.617522" stroke-miterlimit="10"/>
<path d="M167.577 154.457V157.131L160.314 160.49V154.457H167.577Z" fill="#040404" stroke="#040404" stroke-width="0.617522" stroke-miterlimit="10"/>
<path d="M142.547 154.456H185.415C187.227 154.456 188.696 152.987 188.696 151.174C188.696 149.362 187.227 147.893 185.415 147.893H142.547C140.735 147.893 139.266 149.362 139.266 151.174C139.266 152.987 140.735 154.456 142.547 154.456Z" fill="#DFB28A" stroke="#ED5F1F" stroke-width="0.617522" stroke-miterlimit="10" stroke-linejoin="round"/>
<path d="M164.503 130.906H190.981C194.609 130.906 197.577 127.938 197.577 124.311V97.8324C197.577 94.2051 194.609 91.2373 190.981 91.2373H164.503C160.876 91.2373 157.908 94.2051 157.908 97.8324V124.311C157.908 127.938 160.876 130.906 164.503 130.906Z" fill="#EDDCD4" stroke="#ED5F1F" stroke-width="0.617522" stroke-miterlimit="10"/>
<path d="M137.274 147.893H191.309C194.756 147.893 197.577 145.073 197.577 141.625C197.577 138.177 194.756 135.356 191.309 135.356H137.274C133.827 135.356 131.006 138.177 131.006 141.625C131.006 145.073 133.827 147.893 137.274 147.893Z" fill="#EDDCD4" stroke="#ED5F1F" stroke-width="0.617522" stroke-miterlimit="10"/>
<path d="M162.934 154.454H177.798C182.52 154.454 186.36 150.613 186.36 145.892V116.827C186.36 115.006 184.883 113.529 183.062 113.529C181.241 113.529 179.765 115.006 179.765 116.827V145.892C179.765 146.977 178.882 147.859 177.798 147.859H162.934C161.113 147.859 159.637 149.336 159.637 151.157C159.637 152.978 161.113 154.454 162.934 154.454Z" fill="#DFB28A" stroke="#ED5F1F" stroke-width="0.617522" stroke-miterlimit="10" stroke-linejoin="round"/>
<path d="M178.756 122.721H187.376C188.538 122.721 189.481 121.779 189.481 120.616V111.996C189.481 110.834 188.538 109.891 187.376 109.891H178.756C177.593 109.891 176.65 110.834 176.65 111.996V120.616C176.65 121.779 177.593 122.721 178.756 122.721Z" fill="#DFB28A" stroke="#ED5F1F" stroke-width="0.617522" stroke-miterlimit="10" stroke-linejoin="round"/>
<path d="M179.816 111.776V121.07" stroke="#ED5F1F" stroke-width="0.617522" stroke-miterlimit="10" stroke-linecap="round" stroke-linejoin="round"/>
</svg>
