<svg width="196" height="279" viewBox="0 0 196 279" fill="none" xmlns="http://www.w3.org/2000/svg">
<path d="M75.1737 145.862C99.0974 118.213 128.251 79.2615 133.618 64.0811C142.463 39.0611 129.351 11.6062 104.33 2.7607C79.309 -6.0848 51.8547 7.02876 43.0095 32.0487C37.6428 47.2291 35.8379 95.8492 37.0686 132.391C13.145 160.039 -16.0089 198.991 -21.3755 214.171C-30.2207 239.191 -17.1084 266.646 7.91245 275.492C32.9333 284.337 60.3876 271.224 69.2328 246.204C74.5995 231.023 76.4044 182.403 75.1737 145.862Z" fill="#001621" fill-opacity="0.03"/>
<path d="M63.1496 120.687C35.5018 96.7635 -3.4509 67.6094 -18.6312 62.2428C-43.652 53.3973 -71.106 66.51 -79.9515 91.5307C-88.797 116.552 -75.6843 144.006 -50.6635 152.851C-35.4833 158.218 13.1379 160.023 49.6785 158.792C77.3263 182.715 116.279 211.87 131.459 217.236C156.48 226.082 183.934 212.969 192.78 187.948C201.625 162.927 188.512 135.473 163.492 126.628C148.311 121.261 99.6902 119.456 63.1496 120.687Z" fill="#001621" fill-opacity="0.03"/>
</svg>
