<svg width="173" height="195" viewBox="0 0 173 195" fill="none" xmlns="http://www.w3.org/2000/svg">
<path d="M125.086 89.8462C144.04 67.9412 167.137 37.0816 171.389 25.0548C178.397 5.23253 168.008 -16.5188 148.186 -23.5268C128.363 -30.5347 106.612 -20.1454 99.604 -0.323121C95.3522 11.7037 93.9222 50.2233 94.8973 79.1736C75.9436 101.079 52.8463 131.938 48.5945 143.965C41.5868 163.787 51.9752 185.539 71.7981 192.547C91.621 199.554 113.372 189.165 120.38 169.343C124.631 157.316 126.061 118.796 125.086 89.8462Z" fill="#001621" fill-opacity="0.06"/>
<path d="M115.56 69.9012C93.6559 50.9477 62.7954 27.8501 50.7687 23.5984C30.9458 16.5905 9.19512 26.9791 2.18722 46.802C-4.82069 66.6249 5.56793 88.3756 25.3908 95.3835C37.4175 99.6352 75.938 101.066 104.888 100.09C126.792 119.044 157.652 142.141 169.679 146.393C189.502 153.401 211.253 143.012 218.26 123.189C225.268 103.366 214.88 81.6158 195.057 74.6079C183.03 70.3562 144.51 68.9258 115.56 69.9012Z" fill="#001621" fill-opacity="0.06"/>
</svg>
