<svg width="498" height="355" viewBox="0 0 498 355" fill="none" xmlns="http://www.w3.org/2000/svg">
<g filter="url(#filter0_dd_134_310)">
<g clip-path="url(#clip0_134_310)">
<path d="M3 74C3 60.7452 13.7452 50 27 50H498V450H3V74Z" fill="#F8F6F6"/>
<circle cx="28" cy="75" r="4.5" fill="#D9D9D9" fill-opacity="0.6" stroke="#CBD5E1"/>
<circle cx="46" cy="75" r="4.5" fill="#D9D9D9" fill-opacity="0.6" stroke="#CBD5E1"/>
<circle cx="64" cy="75" r="4.5" fill="#D9D9D9" fill-opacity="0.6" stroke="#CBD5E1"/>
<line x1="211.5" y1="50" x2="211.5" y2="450" stroke="#CBD5E1"/>
<line x1="210.5" y1="50" x2="210.5" y2="450" stroke="#001621"/>
<rect x="23" y="109" width="168" height="28" rx="6" fill="#CBD5E1"/>
</g>
<path d="M27 50.5H497.5V449.5H3.5V74C3.5 61.0213 14.0213 50.5 27 50.5Z" stroke="#CBD5E1"/>
</g>
<g filter="url(#filter2_dd_134_310)">
<mask id="path-9-inside-1_134_310" fill="white">
<path d="M225 24C225 10.7452 235.745 0 249 0H510V400H225V24Z"/>
</mask>
<path d="M225 24C225 10.7452 235.745 0 249 0H510V400H225V24Z" fill="white"/>
<path d="M224 24C224 10.1929 235.193 -1 249 -1H510V1H249C236.297 1 226 11.2975 226 24H224ZM226 24M510 400H225H510M224 400V24C224 10.1929 235.193 -1 249 -1V1C236.297 1 226 11.2975 226 24V400H224ZM226 400M510 0V400V0" fill="#B2B2B2" mask="url(#path-9-inside-1_134_310)"/>
</g>
<defs>
<filter id="filter0_dd_134_310" x="0" y="48" width="501" height="406" filterUnits="userSpaceOnUse" color-interpolation-filters="sRGB">
<feFlood flood-opacity="0" result="BackgroundImageFix"/>
<feColorMatrix in="SourceAlpha" type="matrix" values="0 0 0 0 0 0 0 0 0 0 0 0 0 0 0 0 0 0 127 0" result="hardAlpha"/>
<feOffset dy="1"/>
<feGaussianBlur stdDeviation="1"/>
<feColorMatrix type="matrix" values="0 0 0 0 0.0627451 0 0 0 0 0.0941176 0 0 0 0 0.156863 0 0 0 0.06 0"/>
<feBlend mode="normal" in2="BackgroundImageFix" result="effect1_dropShadow_134_310"/>
<feColorMatrix in="SourceAlpha" type="matrix" values="0 0 0 0 0 0 0 0 0 0 0 0 0 0 0 0 0 0 127 0" result="hardAlpha"/>
<feOffset dy="1"/>
<feGaussianBlur stdDeviation="1.5"/>
<feColorMatrix type="matrix" values="0 0 0 0 0.0627451 0 0 0 0 0.0941176 0 0 0 0 0.156863 0 0 0 0.1 0"/>
<feBlend mode="normal" in2="effect1_dropShadow_134_310" result="effect2_dropShadow_134_310"/>
<feBlend mode="normal" in="SourceGraphic" in2="effect2_dropShadow_134_310" result="shape"/>
</filter>
<filter id="filter2_dd_134_310" x="213" y="0" width="309" height="424" filterUnits="userSpaceOnUse" color-interpolation-filters="sRGB">
<feFlood flood-opacity="0" result="BackgroundImageFix"/>
<feColorMatrix in="SourceAlpha" type="matrix" values="0 0 0 0 0 0 0 0 0 0 0 0 0 0 0 0 0 0 127 0" result="hardAlpha"/>
<feMorphology radius="2" operator="erode" in="SourceAlpha" result="effect1_dropShadow_134_310"/>
<feOffset dy="4"/>
<feGaussianBlur stdDeviation="3"/>
<feColorMatrix type="matrix" values="0 0 0 0 0.0627451 0 0 0 0 0.0941176 0 0 0 0 0.156863 0 0 0 0.03 0"/>
<feBlend mode="normal" in2="BackgroundImageFix" result="effect1_dropShadow_134_310"/>
<feColorMatrix in="SourceAlpha" type="matrix" values="0 0 0 0 0 0 0 0 0 0 0 0 0 0 0 0 0 0 127 0" result="hardAlpha"/>
<feMorphology radius="4" operator="erode" in="SourceAlpha" result="effect2_dropShadow_134_310"/>
<feOffset dy="12"/>
<feGaussianBlur stdDeviation="8"/>
<feColorMatrix type="matrix" values="0 0 0 0 0.0627451 0 0 0 0 0.0941176 0 0 0 0 0.156863 0 0 0 0.08 0"/>
<feBlend mode="normal" in2="effect1_dropShadow_134_310" result="effect2_dropShadow_134_310"/>
<feBlend mode="normal" in="SourceGraphic" in2="effect2_dropShadow_134_310" result="shape"/>
</filter>
<clipPath id="clip0_134_310">
<path d="M3 74C3 60.7452 13.7452 50 27 50H498V450H3V74Z" fill="white"/>
</clipPath>
</defs>
</svg>
